<?xml version="1.0" encoding="UTF-8"?>
<svg id="Layer_2" data-name="Layer 2" xmlns="http://www.w3.org/2000/svg" viewBox="0 0 264.31 528.2">
  <defs>
    <style>
      .cls-1 {
        fill: #c7c6c1;
      }

      .cls-1, .cls-2, .cls-3, .cls-4, .cls-5, .cls-6, .cls-7, .cls-8, .cls-9, .cls-10, .cls-11, .cls-12, .cls-13, .cls-14, .cls-15, .cls-16, .cls-17, .cls-18, .cls-19, .cls-20, .cls-21, .cls-22, .cls-23, .cls-24, .cls-25, .cls-26, .cls-27, .cls-28, .cls-29, .cls-30, .cls-31, .cls-32 {
        fill-rule: evenodd;
      }

      .cls-2 {
        fill: #d43628;
      }

      .cls-3 {
        fill: #90c1c5;
      }

      .cls-4 {
        fill: #4f4a42;
      }

      .cls-5 {
        fill: #38342e;
      }

      .cls-6 {
        fill: #3d3d3d;
      }

      .cls-7 {
        fill: #ebe6d9;
      }

      .cls-8 {
        fill: #4d4d4d;
      }

      .cls-9 {
        fill: #444038;
      }

      .cls-10 {
        fill: #454545;
      }

      .cls-11 {
        fill: #fff;
      }

      .cls-12 {
        fill: #768191;
      }

      .cls-13 {
        fill: #434d57;
      }

      .cls-14 {
        fill: #eb3c2c;
      }

      .cls-15 {
        fill: #adb7c7;
      }

      .cls-16 {
        fill: #76acb6;
      }

      .cls-17 {
        fill: #707c87;
      }

      .cls-18 {
        fill: #e68200;
      }

      .cls-19 {
        fill: #54606c;
      }

      .cls-20 {
        fill: #dad9d4;
      }

      .cls-21 {
        fill: #f2d291;
      }

      .cls-22 {
        fill: #8a6030;
      }

      .cls-23 {
        fill: #96a1b0;
      }

      .cls-24 {
        fill: #575757;
      }

      .cls-25 {
        fill: #403c35;
      }

      .cls-26 {
        fill: #e66f00;
      }

      .cls-27 {
        fill: #6e675a;
      }

      .cls-28 {
        fill: #606973;
      }

      .cls-29 {
        fill: #798591;
      }

      .cls-30 {
        fill: #9c6f3d;
      }

      .cls-31 {
        fill: #4a4a4a;
      }

      .cls-32 {
        fill: #ededed;
      }
      
      .wheel-rotate {
        animation: none;
        transform-origin: center;
      }
      
      @keyframes wheelSpin {
        from { transform: rotate(0deg); }
        to { transform: rotate(360deg); }
      }
      
      #frontWheel, #rearWheel {
        animation: none;
      }
    </style>
  </defs>
  <g id="Layer_1-2" data-name="Layer 1">
    <g>
      <path class="cls-24" d="M56.72,389.5c4.27-.53,10.06-.63,13.68.45-1.15-5.23-5.85-11.94-9.03-17.16-12.34,4.14-23.14,6.25-26.58,9.45,3.94,1.27,20.05,6.1,21.92,7.25h0ZM207.59,389.5c-4.27-.53-10.06-.63-13.69.45,1.15-5.23,5.85-11.94,9.03-17.16,12.34,4.14,23.14,6.25,26.58,9.45-3.94,1.27-20.05,6.1-21.92,7.25h0ZM194.35,397.17c36.79,1.65,35.55,0,64.83-10.31,24.99-9.32-47.36-43.77-90.46-46.79,53.84-37.49-126.98-37.49-73.14,0-43.1,3.02-115.45,37.48-90.46,46.79,29.28,10.3,28.05,11.96,64.84,10.31.11.57.34,1.16.75,1.76-46.76,23.37-43.5,30.32-34.08,56.9-4.02,6.56-7.93,10.3-7.18,17.33.9,8.49,25.37,10.59,40.39,6.39,0,5.44-4.87,15.17,13.84,16.51,0,0,7.74,6.58,13.26,7.03,2.95,8.07,8.52,15.53,10.81,17.32h48.82c2.29-1.79,7.86-9.25,10.81-17.32,5.52-.45,13.26-7.03,13.26-7.03,18.7-1.34,13.84-11.07,13.84-16.51,15.02,4.21,39.49,2.1,40.39-6.39.75-7.04-3.16-10.78-7.18-17.33,9.42-26.58,12.67-33.53-34.08-56.9.4-.61.63-1.19.75-1.76h0ZM169.93,433.3c1.31.11,2.81.08,4.17.08,4.34,2.37,9.02,4.81,13.69,6.93.23,5.49,1.25,9.63,2.94,13.87-.27.21-.52.43-.75.65-3.39-2.61-20.87-9.73-29.35-9.73,6.62-1.62,8.25-9.24,9.31-11.81h0ZM94.38,433.3c-1.31.11-2.82.08-4.17.08-4.34,2.37-9.02,4.81-13.69,6.93-.23,5.49-1.24,9.63-2.94,13.87.27.21.52.43.75.65,3.39-2.61,20.87-9.73,29.35-9.73-6.62-1.62-8.25-9.24-9.31-11.81h0Z"/>
      <g id="frontWheel" style="transform-origin: 40px 157px;">
      <path class="cls-13" d="M19.92,144.65c-3.88,3.58-1.26,12.09,1.6,15.69,2.09,2.53,4.82,4.02,7.95,4.86,5.17,1.09,21.54,5.41,25.89,4.91,2.89-.33,5.16-1.02,7.32-2.85,5.06-4.3,5.66-13.36,1.87-18.58-3.61-4.98-8.65-8.29-14.84-8.63-8.45-.46-26.46,1.54-29.78,4.61h0Z"/>
      <path class="cls-13" d="M19.93,144.65c-3.91,3.58-1.25,12.09,1.65,15.7,2.12,2.53,4.87,4.03,8.03,4.88,3.76.79,13.39,3.28,20.12,4.42,1.56.2,2.83.29,3.67.19,2.92-.33,5.21-1.01,7.38-2.84,5.1-4.29,5.68-13.35,1.84-18.58-3.07-4.18-7.14-7.19-12.06-8.27-.19-.02-.39-.03-.58-.04-8.54-.48-26.71,1.48-30.06,4.55h0Z"/>
      <path class="cls-16" d="M21.91,146.42c-3.36,3.04-1.03,10.25,1.48,13.29,1.84,2.14,4.22,3.4,6.95,4.1,4.51.91,18.8,4.55,22.59,4.12,2.52-.29,4.49-.87,6.36-2.43,4.39-3.65,4.86-11.33,1.53-15.74-3.19-4.23-7.6-7.02-13.01-7.29-7.38-.37-23.03,1.35-25.9,3.95h0Z"/>
      <path class="cls-3" d="M20.56,148.6c-1.1,3.5.81,8.66,2.83,11.11,1.84,2.14,4.22,3.4,6.95,4.1,4.51.91,18.8,4.55,22.59,4.12,2.52-.29,4.49-.87,6.36-2.43,1.84-1.53,2.99-3.77,3.46-6.18-.33-1.99-1.07-3.88-2.23-5.41-3.55-4.71-8.46-7.82-14.49-8.12-6.6-.33-19.13.84-25.47,2.81h0Z"/>
      </g>
      <path class="cls-15" d="M90.75,193.21c-1.14-4.62-2.33-9.26-3.38-13.89-.96-4.23-.77-5.09-4.85-7.69l-23.43-14.91-.02,5.29,17.65,11.02c5.27,3.29,4.85,3.21,6.16,9.25l2.49,12.01,5.39-1.07h0Z"/>
      <path class="cls-15" d="M173.56,193.21c1.14-4.62,2.33-9.26,3.38-13.89.96-4.23.77-5.09,4.85-7.69l23.43-14.91.02,5.29-17.65,11.02c-5.27,3.29-4.85,3.21-6.16,9.25l-2.49,12-5.39-1.07h0Z"/>
      <g id="rearWheel" style="transform-origin: 225px 157px;">
      <path class="cls-13" d="M244.4,144.64c3.88,3.58,1.26,12.09-1.6,15.69-2.09,2.52-4.81,4.02-7.95,4.85-5.17,1.09-21.54,5.41-25.89,4.91-2.89-.33-5.16-1.02-7.32-2.85-5.06-4.3-5.66-13.36-1.87-18.58,3.61-4.98,8.65-8.29,14.84-8.63,8.45-.46,26.46,1.54,29.78,4.61h0Z"/>
      <path class="cls-13" d="M244.39,144.65c3.91,3.58,1.25,12.09-1.65,15.7-2.12,2.53-4.87,4.03-8.03,4.87-3.76.79-13.39,3.28-20.12,4.42-1.56.2-2.83.29-3.67.19-2.92-.33-5.21-1.01-7.38-2.84-5.1-4.29-5.68-13.35-1.85-18.58,3.07-4.18,7.14-7.19,12.06-8.27.19-.02.39-.03.58-.04,8.54-.48,26.71,1.48,30.06,4.55h0Z"/>
      <path class="cls-16" d="M242.4,146.42c3.36,3.04,1.03,10.25-1.48,13.29-1.84,2.14-4.22,3.4-6.95,4.1-4.51.91-18.8,4.55-22.59,4.12-2.52-.29-4.49-.87-6.36-2.43-4.39-3.65-4.86-11.33-1.53-15.74,3.19-4.23,7.6-7.02,13.01-7.29,7.38-.37,23.03,1.35,25.9,3.95h0Z"/>
      <path class="cls-3" d="M243.76,148.6c1.1,3.5-.81,8.66-2.83,11.11-1.84,2.14-4.22,3.4-6.95,4.1-4.51.91-18.8,4.55-22.59,4.12-2.52-.29-4.49-.87-6.36-2.43-1.84-1.53-2.99-3.77-3.46-6.18.33-1.99,1.07-3.88,2.23-5.41,3.55-4.71,8.46-7.82,14.49-8.12,6.6-.33,19.13.84,25.48,2.81h0Z"/>
      </g>
      <polygon class="cls-4" points="54.34 201.86 80.98 198.54 81.91 207.92 55.27 211.23 54.34 201.86 54.34 201.86"/>
      <path class="cls-17" d="M54.34,201.86c.68-.09,1.43,1.95,1.69,4.53.26,2.59-.09,4.76-.76,4.84-.68.09-1.44-1.95-1.69-4.54-.25-2.59.09-4.76.77-4.84h0Z"/>
      <path class="cls-21" d="M61.6,194.24l-6.09,3.72c-.63.73-.84,1.78-.82,2.28.05,1.11.15,2.03.28,3.46.1,1.13.49,1.29,1.32,1.92,1.26.97,1.13,1.32,4.12.66,4.22-.93,5.23-1.67,9.51-1.19,6.64-.17,7.84-.97,13.49-4.15-.06-1.4-.4-2.23-1.45-3.69-1.35-1.86-2.54-3.06-4.68-4.73-1.39-1.08-3.79-1.15-5.97-1.21-3.65-.1-6.48,1.2-9.71,2.93h0Z"/>
      <path class="cls-11" d="M85.57,133.86l-18.44-43.96-3.13.14c-17.7,22.41-26.84,35.89-40.8,60.76-5.29,9.42-10.73,26.01-2.1,34.93,9.73,9.49,21.95,19.48,33.53,28.09,12.69.51,16.68-15.17,10.78-22.88l-18.36-16.37c4.4-11.35,22.54-17.01,38.53-40.7h0Z"/>
      <path class="cls-21" d="M68.75,211.83c3.03-.37,9.38-1.17,12.41-1.54l-2.46-3.42-10.88,1.25c-1.63.07-1.95,1.14-1.35,2.36l.27.54c.39.8.55.98,2.01.81h0Z"/>
      <path class="cls-32" d="M85.57,133.86l-18.44-43.96-3.13.14c-6.81,11.73-11.32,19.56-6.83,42.42,2.24,11.4,4.22,16.27-1.13,21.58-4.82,4.78-11.9,11.88-9,20.53,4.4-11.35,22.54-17.01,38.53-40.7h0Z"/>
      <path class="cls-4" d="M110.41,275.32c-5.14,7.31-16.05,26.24-26.9,39.94-.31,20.39-2.23,33.13-5.44,50.82h-27.85c-1.68-16-7.29-51.55-7.26-74.2.82-21.65,19.69-56.01,38.65-81.24,31.18-14.49,69.31-13.62,101.07,0,18.97,25.23,37.83,59.59,38.65,81.24.02,22.64-5.59,58.2-7.26,74.2h-27.85c-3.2-17.69-5.13-30.43-5.44-50.82-10.84-13.7-21.76-32.63-26.9-39.94h-43.48Z"/>
      <path class="cls-25" d="M110.41,275.32c-5.14,7.31-16.05,26.24-26.9,39.94-.31,20.39-2.23,33.13-5.44,50.82h-27.85c-1.35-12.92-5.27-38.59-6.72-59.92,3.09,13.74,30.22,21.78,27.15-3.33-1.27-10.39-4.97-24.91-1.52-39.42,6.05-25.45,17.5-40.91,44.14-46.72,13.21-2.88,24.53-2.88,37.74,0,26.64,5.82,38.1,21.28,44.14,46.72,3.45,14.51-.26,29.03-1.52,39.42-3.06,25.11,24.07,17.07,27.15,3.33-1.45,21.33-5.36,47-6.72,59.92h-27.85c-3.2-17.69-5.13-30.43-5.44-50.82-10.84-13.7-21.76-32.63-26.9-39.94h-43.48Z"/>
      <path class="cls-22" d="M207.39,401.11l11.02,6c1.88-4.75,3.35-7.06,3.55-12.25.27-7.07-.45-12.15-1.09-19.46-.57-6.53-3.68-15.66-5.19-22.56-.99-4.51-2.65-7.18-6.42-9.87-5.73-4.08-15.26-5.46-21.11-.52-4.48,3.79-6.3,9.26-7.17,15.04-.86,5.74-1.43,7.68.34,14.31l26.07,29.3h0Z"/>
      <path class="cls-22" d="M218.28,362.98c-.94-3.54-1.93-7.06-2.61-10.14-.99-4.51-2.65-7.18-6.42-9.87-5.73-4.08-15.26-5.46-21.11-.52-3.15,2.67-4.99,6.16-6.1,10.02,1.45-.55,4.41-5.96,7.55-6.94,4.68-1.46,3.22,10.76,3.22,14.08l10.54.35c.16-3.18-1.19-14.13,3.31-13.21,10.27,2.12,7.11,14.57,11.62,16.22h0Z"/>
      <path class="cls-30" d="M207.39,401.11l11.02,6c1.63-4.1,2.94-6.38,3.4-10.26-.08-.42-.16-.83-.26-1.26-2.8-12.1-.86-21.69-6.23-32.64-5.7-11.59-30.85-12.08-35.12.55-.13,2.3.12,4.55,1.13,8.31l26.07,29.3h0Z"/>
      <path class="cls-31" d="M213.56,365.82c4.95,9.73,3.25,18.19,5.88,28.92,3.29,13.44-6.24,21.31-18,20.29-13.43-1.18-21.95-6.31-20.59-22.13,1.61-6.56.89-13.7.37-22.81-.87-15.22,26.53-15.68,32.34-4.27h0Z"/>
      <path class="cls-6" d="M217.02,377.18c.82,5.55.85,11.15,2.42,17.55,3.29,13.44-6.24,21.31-18,20.29-13.43-1.18-21.95-6.31-20.59-22.13,1.5-6.14.97-12.79.47-21.08,7.11-9.3,28.94-7.76,34.33,2.84.44.86.9,1.7,1.37,2.53h0Z"/>
      <path class="cls-22" d="M56.92,401.11l-11.02,6c-1.88-4.75-3.35-7.06-3.55-12.25-.27-7.07.45-12.15,1.09-19.46.57-6.53,3.68-15.66,5.19-22.56.99-4.51,2.65-7.18,6.42-9.87,5.73-4.08,15.27-5.46,21.11-.52,4.48,3.79,6.3,9.26,7.17,15.04.86,5.74,1.43,7.68-.34,14.31l-26.07,29.3h0Z"/>
      <path class="cls-22" d="M46.03,362.98c.94-3.54,1.93-7.06,2.61-10.14.99-4.51,2.65-7.18,6.42-9.87,5.73-4.08,15.27-5.46,21.11-.52,3.15,2.67,4.99,6.16,6.1,10.02-1.45-.55-4.41-5.96-7.55-6.94-4.68-1.46-3.22,10.76-3.22,14.08l-10.55.35c-.16-3.18,1.19-14.13-3.31-13.21-10.27,2.12-7.11,14.57-11.62,16.22h0Z"/>
      <path class="cls-30" d="M56.92,401.11l-11.02,6c-1.63-4.1-2.94-6.38-3.4-10.26.08-.42.16-.83.26-1.26,2.8-12.1.86-21.69,6.23-32.64,5.7-11.59,30.85-12.08,35.12.55.13,2.3-.12,4.55-1.13,8.31l-26.07,29.3h0Z"/>
      <path class="cls-31" d="M50.75,365.82c-4.95,9.73-3.25,18.19-5.88,28.92-3.29,13.44,6.24,21.31,18,20.29,13.43-1.18,21.95-6.31,20.59-22.13-1.61-6.56-.89-13.7-.37-22.81.87-15.22-26.53-15.68-32.34-4.27h0Z"/>
      <path class="cls-6" d="M47.29,377.18c-.82,5.55-.85,11.15-2.42,17.55-3.29,13.44,6.24,21.31,18,20.29,13.43-1.18,21.95-6.31,20.59-22.13-1.5-6.14-.97-12.79-.47-21.08-7.11-9.3-28.94-7.76-34.33,2.84-.44.86-.9,1.7-1.37,2.53h0Z"/>
      <path class="cls-29" d="M160.13,328.62c2.4-.01,4.69-2.11,5.17-4.36,4.55-21.5,9.43-42.67,14.2-64.21,10.96-49.5-105.65-49.5-94.7,0,4.76,21.49,9.57,42.73,14.12,64.21.48,2.25,2.77,4.34,5.17,4.36h56.04Z"/>
      <path class="cls-19" d="M132.15,238.19c-21.65-.24-41.41,3.99-37.56,29.85,2.75,18.44,5.57,36.67,8.12,55.09.27,1.93,2.27,3.73,4.55,3.74h49.78c2.27-.01,4.28-1.81,4.55-3.74,2.55-18.43,5.37-36.65,8.12-55.09,3.85-25.86-15.9-30.1-37.56-29.85h0Z"/>
      <path class="cls-13" d="M94.46,267.04l.14,1.01c2.75,18.44,5.57,36.67,8.12,55.09.27,1.93,2.27,3.73,4.55,3.74h49.78c2.27-.01,4.28-1.81,4.55-3.74,2.55-18.43,5.37-36.65,8.12-55.09l.14-1.01c-1.83-16.2-19.05-19.1-37.7-18.9-18.64-.19-35.86,2.7-37.7,18.9h0Z"/>
      <path class="cls-8" d="M56.44,380.23h25.37c3.14,0,5.7,2.57,5.7,5.7h0c0,3.14-2.57,5.71-5.7,5.71h-25.37c-3.14,0-5.71-2.57-5.71-5.71h0c0-3.14,2.57-5.71,5.71-5.71h0Z"/>
      <path class="cls-8" d="M182.5,380.23h25.36c3.14,0,5.71,2.57,5.71,5.7h0c0,3.14-2.57,5.71-5.71,5.71h-25.36c-3.14,0-5.7-2.57-5.7-5.71h0c0-3.14,2.57-5.71,5.7-5.71h0Z"/>
      <path class="cls-15" d="M162.95,435.85l1.45-103.62c17.65,10.54,22.24,21.25,22.24,41.21v59.16c0,8.54-2.73,15.89-12.1,17.75l-11.59-14.49h0Z"/>
      <path class="cls-29" d="M150.85,452.99l1.45-114.86c17.65,10.54,22.24,21.25,22.24,41.21v70.39c0,8.54-2.73,15.89-12.1,17.75l-11.59-14.49h0Z"/>
      <path class="cls-15" d="M101.36,435.85l-1.45-103.62c-17.65,10.54-22.24,21.25-22.24,41.21v59.16c0,8.54,2.73,15.89,12.1,17.75l11.59-14.49h0Z"/>
      <path class="cls-29" d="M113.46,452.99l-1.45-114.86c-17.65,10.54-22.24,21.25-22.24,41.21v70.39c0,8.54,2.73,15.89,12.1,17.75l11.59-14.49h0Z"/>
      <path class="cls-6" d="M125.42,338.35h13.48c13.23,0,24.06,10.83,24.06,24.06v141.74c0,13.23-10.83,24.06-24.06,24.06h-13.48c-13.23,0-24.06-10.83-24.06-24.06v-141.74c0-13.23,10.83-24.06,24.06-24.06h0Z"/>
      <path class="cls-10" d="M160.38,351.61c.68,1.34,1.24,2.76,1.66,4.23-4.04,1.63-7.66,3.88-10.89,6.76-2.93-3.71,3.37-9.4,9.23-10.99h0ZM162.95,384.89v4.29c-4.42,1.65-8.34,4.02-11.81,7.12-3.36-4.27,5.46-11.16,11.81-11.41h0ZM162.95,418.58v4.29c-4.42,1.65-8.34,4.02-11.81,7.12-3.36-4.27,5.46-11.16,11.81-11.41h0ZM162.95,452.28v4.29c-4.42,1.65-8.34,4.02-11.81,7.12-3.36-4.27,5.46-11.16,11.81-11.41h0ZM162.95,485.97v4.29c-4.42,1.65-8.34,4.02-11.81,7.12-3.36-4.27,5.46-11.16,11.81-11.41h0ZM101.55,507.18c-.13-1-.19-2.01-.19-3.04v-1.32c6.35.25,15.17,7.14,11.81,11.41-3.42-3.05-7.28-5.4-11.61-7.04h0ZM101.36,473.42v-4.29c6.35.25,15.17,7.14,11.81,11.41-3.47-3.1-7.39-5.47-11.81-7.11h0ZM101.36,439.72v-4.29c6.35.25,15.17,7.14,11.81,11.41-3.47-3.1-7.39-5.47-11.81-7.12h0ZM101.36,406.02v-4.29c6.35.25,15.17,7.14,11.81,11.41-3.47-3.1-7.39-5.47-11.81-7.12h0ZM101.36,372.33v-4.29c6.35.25,15.17,7.14,11.81,11.41-3.47-3.1-7.39-5.47-11.81-7.12h0Z"/>
      <path class="cls-8" d="M149.57,340.86c2.05,1.03,3.94,2.33,5.61,3.87-10.84,4.94-16.81,12.08-18.53,25.14-3.42-2.25-3.28-8.79-2.2-11.88,2.44-6.96,7.46-13.04,15.11-17.13h0ZM101.36,492.58v-6.32c4.1,1.32,7.87,2.81,11.39,4.43,8.78,4.06,14.46,10.58,17.11,18.13,1.08,3.09,1.23,9.63-2.2,11.88-1.82-13.84-8.41-21.04-20.51-26-1.86-.76-3.78-1.47-5.79-2.12h0ZM162.95,500.15v3.99c0,.8-.04,1.59-.12,2.38-1.97.64-3.85,1.33-5.67,2.08-10.08,4.13-16.33,9.82-19.19,19.6h-4.17c-.12-2.06.17-4.11.65-5.49,2.64-7.54,8.32-14.07,17.11-18.13,3.52-1.63,7.29-3.11,11.39-4.43h0ZM101.36,459.64v-6.32c4.1,1.32,7.87,2.81,11.39,4.43,8.78,4.06,14.46,10.58,17.11,18.13,1.08,3.09,1.23,9.63-2.2,11.88-1.82-13.84-8.41-21.04-20.51-26-1.86-.76-3.78-1.47-5.79-2.12h0ZM162.95,467.21v6.32c-2.01.65-3.93,1.36-5.79,2.12-12.1,4.96-18.69,12.16-20.51,26-3.42-2.25-3.28-8.79-2.2-11.88,2.64-7.54,8.32-14.07,17.11-18.12,3.52-1.63,7.29-3.11,11.39-4.43h0ZM101.36,426.69v-6.32c4.1,1.32,7.87,2.81,11.39,4.43,8.78,4.06,14.46,10.58,17.11,18.12,1.08,3.09,1.23,9.63-2.2,11.88-1.82-13.84-8.41-21.04-20.51-26-1.86-.76-3.78-1.47-5.79-2.12h0ZM162.95,434.27v6.32c-2.01.65-3.93,1.36-5.79,2.12-12.1,4.96-18.69,12.16-20.51,26-3.42-2.25-3.28-8.79-2.2-11.88,2.64-7.54,8.32-14.07,17.11-18.12,3.52-1.63,7.29-3.11,11.39-4.43h0ZM101.36,393.75v-6.32c4.1,1.32,7.87,2.81,11.39,4.43,8.78,4.06,14.46,10.58,17.11,18.13,1.08,3.09,1.23,9.63-2.2,11.88-1.82-13.84-8.41-21.04-20.51-26-1.86-.76-3.78-1.47-5.79-2.12h0ZM162.95,401.32v6.32c-2.01.65-3.93,1.36-5.79,2.12-12.1,4.96-18.69,12.16-20.51,26-3.42-2.25-3.28-8.79-2.2-11.88,2.64-7.54,8.32-14.07,17.11-18.12,3.52-1.63,7.29-3.11,11.39-4.43h0ZM101.41,360.82c.13-2.06.53-4.06,1.16-5.95,3.64,1.22,7.01,2.57,10.18,4.04,8.78,4.06,14.46,10.58,17.11,18.13,1.08,3.09,1.23,9.63-2.2,11.88-1.82-13.84-8.41-21.04-20.51-26-1.84-.76-3.74-1.45-5.74-2.1h0ZM162.95,368.38v6.32c-2.01.65-3.93,1.36-5.79,2.12-12.1,4.96-18.69,12.16-20.51,26-3.42-2.25-3.28-8.79-2.2-11.88,2.64-7.54,8.32-14.07,17.11-18.12,3.52-1.63,7.29-3.11,11.39-4.43h0ZM125.42,338.35h1.7c1.13,1.83,2.04,3.75,2.74,5.75,1.08,3.09,1.23,9.63-2.2,11.88-.97-7.38-3.3-12.87-7.09-17.14,1.57-.33,3.19-.49,4.85-.49h0Z"/>
      <path class="cls-28" d="M104.21,326.88h55.9c2.4,0,4.58,2.41,4.84,5.36l3.34,37.16c.26,2.95-1.48,5.36-3.88,5.36h-64.5c-2.4,0-4.14-2.41-3.88-5.36l3.34-37.16c.27-2.95,2.44-5.36,4.84-5.36h0Z"/>
      <path class="cls-23" d="M156.88,330.82h-49.45c-2.7,0-3.57,1.16-3.85,4.38l-2.65,30.31c-.26,3,.48,4.38,3.08,4.38h56.28c2.6,0,3.34-1.37,3.08-4.38l-2.65-30.31c-.28-3.21-1.15-4.38-3.85-4.38h0Z"/>
      <path class="cls-15" d="M132.15,330.82h-24.72c-2.7,0-3.57,1.16-3.85,4.38l-2.65,30.31c-.26,3,.48,4.38,3.08,4.38h28.14v-39.06h0Z"/>
      <polygon class="cls-15" points="94.29 287.21 170.02 287.21 170.02 295.72 94.29 295.72 94.29 287.21 94.29 287.21"/>
      <path class="cls-7" d="M80.9,284.47h16.64c3.84,0,6.99,3.15,6.99,6.99h0c0,3.85-3.15,6.99-6.99,6.99h-16.64c-3.84,0-6.99-3.15-6.99-6.99h0c0-3.85,3.15-6.99,6.99-6.99h0Z"/>
      <path class="cls-18" d="M81.37,286.2h15.71c2.9,0,5.27,2.37,5.27,5.26h0c0,2.9-2.37,5.27-5.27,5.27h-15.71c-2.9,0-5.27-2.37-5.27-5.27h0c0-2.9,2.37-5.27,5.27-5.27h0Z"/>
      <path class="cls-26" d="M81.37,286.2h7.85v10.54h-7.85c-2.9,0-5.27-2.37-5.27-5.27h0c0-2.9,2.37-5.27,5.27-5.27h0Z"/>
      <path class="cls-7" d="M183.41,284.47h-16.64c-3.84,0-6.99,3.15-6.99,6.99h0c0,3.85,3.15,6.99,6.99,6.99h16.64c3.84,0,6.99-3.15,6.99-6.99h0c0-3.85-3.15-6.99-6.99-6.99h0Z"/>
      <path class="cls-18" d="M182.95,286.2h-15.71c-2.9,0-5.27,2.37-5.27,5.26h0c0,2.9,2.37,5.27,5.27,5.27h15.71c2.9,0,5.27-2.37,5.27-5.27h0c0-2.9-2.37-5.27-5.27-5.27h0Z"/>
      <path class="cls-26" d="M182.95,286.2h-7.85v10.54h7.85c2.9,0,5.27-2.37,5.27-5.27h0c0-2.9-2.37-5.27-5.27-5.27h0Z"/>
      <polygon class="cls-23" points="128.79 306.77 128.79 285.81 135.52 285.81 135.52 306.77 128.79 306.77 128.79 306.77"/>
      <path class="cls-12" d="M117.42,283.01h29.46c2.31,0,4.2,1.89,4.2,4.2v8.51c0,2.31-1.89,4.2-4.2,4.2h-29.46c-2.31,0-4.2-1.89-4.2-4.2v-8.51c0-2.31,1.89-4.2,4.2-4.2h0Z"/>
      <path class="cls-19" d="M115.45,261.66h33.42c1.42,0,2.71-1.16,2.87-2.58l1.4-12.65c.44-3.97.04-4.49-4.39-5.05-10.4-1.3-22.76-1.3-33.17,0-4.43.55-4.83,1.07-4.39,5.05l1.4,12.65c.16,1.42,1.44,2.58,2.87,2.58h0Z"/>
      <path class="cls-19" d="M117.64,304.36h29.02c3.23,0,5.86,2.64,5.86,5.86v6.57c0,3.22-2.64,5.86-5.86,5.86h-29.02c-3.23,0-5.87-2.64-5.87-5.86v-6.57c0-3.22,2.63-5.86,5.87-5.86h0Z"/>
      <path class="cls-14" d="M118.13,305.84h28.04c2.55,0,4.64,2.09,4.64,4.64v6.07c0,2.55-2.09,4.64-4.64,4.64h-28.04c-2.55,0-4.64-2.08-4.64-4.64v-6.07c0-2.55,2.08-4.64,4.64-4.64h0Z"/>
      <path class="cls-2" d="M118.69,307.73h26.93c1.55,0,2.82,1.22,2.9,2.74,0,0,.03,5.42,0,6.07-.09,1.52-1.36,2.74-2.9,2.74h-26.93c-1.54,0-2.82-1.22-2.9-2.74,0,0,0-6.07,0-6.07.09-1.53,1.36-2.74,2.9-2.74h0Z"/>
      <path class="cls-20" d="M117.55,259.32h29.21c1.24,0,2.37-1.02,2.5-2.26l1.22-11.06c.38-3.47.04-3.93-3.84-4.41-9.09-1.13-19.9-1.13-28.99,0-3.87.48-4.22.94-3.84,4.41l1.22,11.06c.14,1.24,1.26,2.26,2.5,2.26h0Z"/>
      <path class="cls-1" d="M119.62,257.14h25.07c1.07,0,2.03-.78,2.15-1.73l1.05-8.47c.33-2.66.03-3.01-3.29-3.38-7.8-.87-17.08-.87-24.88,0-3.33.37-3.63.72-3.29,3.38l1.05,8.47c.12.95,1.08,1.73,2.15,1.73h0Z"/>
      <path class="cls-4" d="M153.48,86.74C179.98,61.54,180.27,2.32,132.15,0c-48.11,2.32-47.83,61.54-21.33,86.74h42.66Z"/>
      <path class="cls-9" d="M153.48,86.74c3.44-3.27,6.44-7.12,8.95-11.35,7.72-47.04-68.28-47.04-60.55,0,2.51,4.22,5.5,8.07,8.95,11.35h42.66Z"/>
      <path class="cls-5" d="M147.05,100.56c18.5-13.65,18.7-45.72-14.89-46.97-33.6,1.26-33.4,33.33-14.89,46.97h29.79Z"/>
      <path class="cls-27" d="M168.07,32.04c-4.34-14.97-15.73-26.65-35.92-27.66-20.19,1.01-31.58,12.69-35.92,27.66,5.64-12.36,17.19-21.49,35.92-22.37,18.73.88,30.28,10.02,35.92,22.37h0Z"/>
      <polygon class="cls-4" points="209.96 201.86 183.33 198.54 182.4 207.92 209.04 211.23 209.96 201.86 209.96 201.86"/>
      <path class="cls-17" d="M209.96,201.86c-.68-.09-1.43,1.95-1.69,4.53-.26,2.59.09,4.76.76,4.84.68.09,1.44-1.95,1.69-4.54.25-2.59-.09-4.76-.77-4.84h0Z"/>
      <path class="cls-21" d="M202.71,194.24l6.09,3.72c.63.73.84,1.78.82,2.28-.05,1.11-.15,2.03-.28,3.46-.1,1.13-.49,1.29-1.32,1.92-1.26.97-1.13,1.32-4.12.66-4.22-.93-5.23-1.67-9.51-1.19-6.64-.17-7.84-.97-13.49-4.15.06-1.4.4-2.23,1.45-3.69,1.35-1.86,2.54-3.06,4.68-4.73,1.39-1.08,3.79-1.15,5.97-1.21,3.65-.1,6.48,1.2,9.72,2.93h0Z"/>
      <path class="cls-11" d="M178.74,133.86l18.44-43.96,3.13.14c17.7,22.41,26.84,35.89,40.8,60.76,5.29,9.42,10.73,26.01,2.1,34.93-9.73,9.49-21.95,19.48-33.53,28.09-12.69.51-16.68-15.17-10.78-22.88l18.36-16.37c-4.4-11.35-22.54-17.01-38.53-40.7h0Z"/>
      <path class="cls-21" d="M195.55,211.83c-3.03-.37-9.38-1.17-12.41-1.54l2.46-3.42,10.88,1.25c1.63.07,1.95,1.14,1.35,2.36l-.27.54c-.39.8-.55.98-2.01.81h0Z"/>
      <path class="cls-32" d="M178.74,133.86l18.44-43.96,3.13.14c6.81,11.73,11.32,19.56,6.83,42.42-2.24,11.4-4.23,16.27,1.13,21.58,4.82,4.78,11.9,11.88,9,20.53-4.4-11.35-22.54-17.01-38.53-40.7h0Z"/>
      <path class="cls-11" d="M185.88,214.97c1.99-8.25-.83-14.8.53-24.07,5.97-40.49,21.17-83.8,13.91-100.86-16.18-13.58-26.41-16.29-44.34-19.11-3.59-10.37-44.04-10.37-47.63,0-17.94,2.82-28.16,5.53-44.34,19.11-7.26,17.06,7.94,60.38,13.91,100.86,1.35,9.27-1.46,15.82.53,24.07,12.07-15.12,96.53-15.03,107.45,0h0Z"/>
    </g>
  </g>
</svg>