<!DOCTYPE svg PUBLIC "-//W3C//DTD SVG 1.1//EN" "http://www.w3.org/Graphics/SVG/1.1/DTD/svg11.dtd">
<!-- Uploaded to: SVG Repo, www.svgrepo.com, Transformed by: SVG Repo Mixer Tools -->
<svg version="1.1" id="_x32_" xmlns="http://www.w3.org/2000/svg" xmlns:xlink="http://www.w3.org/1999/xlink" viewBox="0 0 512.00 512.00" xml:space="preserve" width="256px" height="256px" fill="#000000" stroke="#000000" stroke-width="1.536">
<g id="SVGRepo_bgCarrier" stroke-width="0">
<path transform="translate(0, 0), scale(32)" fill="#7ccc6c" d="M9.166.33a2.25 2.25 0 00-2.332 0l-5.25 3.182A2.25 2.25 0 00.5 5.436v5.128a2.25 2.25 0 001.084 1.924l5.25 3.182a2.25 2.25 0 002.332 0l5.25-3.182a2.25 2.25 0 001.084-1.924V5.436a2.25 2.25 0 00-1.084-1.924L9.166.33z" strokewidth="0"/>
</g>
<g id="SVGRepo_tracerCarrier" stroke-linecap="round" stroke-linejoin="round"/>
<g id="SVGRepo_iconCarrier"> <style type="text/css"> .st0{fill:#000000;} </style> <g> <path class="st0" d="M417.975,226.338c-5.966,0-11.764,0.618-17.404,1.684l-33.048-100.841 c-5.781-17.644-22.258-29.577-40.822-29.577h-45.506v24.414h45.506c8.038-0.008,15.147,5.155,17.636,12.768l6.028,18.433h-60.684 c-31.084,0-54.424,15.542-54.424,15.542v45.358h135.064l7.064,21.54c-31.579,15.163-53.42,47.345-53.435,84.704 c0.016,51.936,42.09,94.018,94.026,94.033c51.92-0.015,94.01-42.097,94.025-94.033 C511.985,268.435,469.895,226.353,417.975,226.338z M461.456,363.844c-11.175,11.144-26.462,18.007-43.48,18.007 c-17.034,0-32.29-6.862-43.466-18.007c-11.144-11.176-18.008-26.447-18.008-43.481c0-17.026,6.863-32.29,18.008-43.465 c3.88-3.88,8.409-7.01,13.185-9.754l11.114,33.928c-4.962,4.931-8.037,11.748-8.037,19.29c0,15.032,12.18,27.22,27.204,27.22 c15.024,0,27.204-12.188,27.204-27.22c0-13.633-10.062-24.809-23.14-26.787l-11.128-33.974c2.35-0.278,4.637-0.711,7.064-0.711 c17.018,0,32.305,6.855,43.48,18.008c11.144,11.175,17.977,26.439,18.008,43.465C479.432,337.397,472.6,352.668,461.456,363.844z"/> <path class="st0" d="M94.01,226.338C42.074,226.353,0.016,268.435,0,320.363c0.016,51.936,42.074,94.018,94.01,94.033 c51.936-0.015,94.01-42.097,94.026-94.033C188.02,268.435,145.946,226.353,94.01,226.338z M137.491,363.844 c-11.176,11.144-26.447,18.007-43.481,18.007c-17.034,0-32.29-6.862-43.466-18.007c-11.16-11.176-18.008-26.447-18.008-43.481 c0-17.026,6.848-32.29,18.008-43.465C61.72,265.745,76.976,258.89,94.01,258.89c17.034,0,32.306,6.855,43.481,18.008 c11.144,11.175,17.992,26.439,18.008,43.465C155.483,337.397,148.636,352.668,137.491,363.844z"/> <path class="st0" d="M94.01,293.167c-15.024,0-27.204,12.172-27.204,27.196c0,15.032,12.18,27.22,27.204,27.22 c15.025,0,27.22-12.188,27.22-27.22C121.23,305.339,109.035,293.167,94.01,293.167z"/> <path class="st0" d="M439.074,207.55v-65.855c-27.854,0-45.583,18.997-45.583,18.997v27.854 C393.491,188.546,411.22,207.55,439.074,207.55z"/> <rect x="450.868" y="141.68" class="st0" width="13.525" height="65.847"/> <path class="st0" d="M70.5,214.119H220.17v-42.762h-45.52c-12.212,0-24.345-1.932-35.954-5.742l-16.261-5.34 c-11.592-3.81-23.742-5.758-35.953-5.758H70.5c-8.47,0-15.348,6.886-15.348,15.372v28.858 C55.151,207.233,62.029,214.119,70.5,214.119z"/> <path class="st0" d="M343.302,232.111v-1.352H167.03c26.029,21.161,42.708,53.435,42.708,89.636c0,3.246,1.112,9.761,10.433,9.761 h69.928c8.888,0,12.118-6.515,12.118-9.761C302.217,284.998,318.199,253.272,343.302,232.111z"/> </g> </g>
</svg>