<?xml version="1.0" encoding="UTF-8"?>
<svg id="Layer_2" data-name="Layer 2" xmlns="http://www.w3.org/2000/svg" viewBox="0 0 408.43 295.25">
  <defs>
    <style>
      .cls-1 {
        fill: #bf303a;
      }

      .cls-2 {
        fill: #3b3b3b;
      }

      .cls-3 {
        fill: #474747;
      }

      .cls-4 {
        fill: #4f4f4f;
      }

      .cls-5 {
        opacity: .75;
      }

      .cls-6 {
        fill: #454545;
      }

      .cls-7 {
        fill: #333;
      }

      .cls-8 {
        fill: #07a4ba;
      }

      .cls-9 {
        fill: #545454;
      }

      .cls-10 {
        opacity: .3;
      }

      .cls-11 {
        fill: #4d4d4d;
      }

      .cls-12 {
        fill: #fff;
      }

      .cls-13 {
        fill: #131313;
      }

      .cls-14 {
        fill: #3d3d3d;
      }

      .cls-15 {
        fill: #ccc;
      }

      .cls-16 {
        fill: none;
      }

      .cls-17 {
        fill: #068c9e;
      }

      .cls-18 {
        fill: #4d4d4d;
      }

      .cls-19 {
        fill: #404040;
      }

      .cls-20 {
        fill: #424242;
      }

      .cls-21 {
        fill: #c7c7c7;
      }

      .cls-22 {
        fill: #454545;
      }

      .cls-23 {
        opacity: .15;
      }

      .cls-24 {
        fill: #b3b3b3;
      }

      .cls-25 {
        fill: #0693a6;
      }

      .cls-26 {
        fill: #383838;
      }

      .cls-27 {
        fill: #474747;
      }

      .cls-28 {
        fill: #079db3;
      }

      .cls-29 {
        fill: #63aab6;
      }

      .cls-30 {
        fill: #cc333e;
      }

      .cls-31 {
        fill: #cc333d;
      }

      .cls-32 {
        fill: #4f4f4f;
      }

      .cls-33 {
        fill: #c7c7c7;
      }

      .cls-34 {
        fill: #4f9da1;
      }

      .cls-35 {
        fill: #068ea1;
      }

      .cls-36 {
        fill: #545454;
      }

      .cls-37 {
        fill: #057c8c;
      }

      .cls-38 {
        fill: #058394;
      }

      .cls-39 {
        opacity: .1;
      }

      .cls-40 {
        fill: #e6e6e6;
      }

      .cls-41 {
        fill: #b02c35;
      }

      .cls-42 {
        fill: #0798ad;
      }

      .cls-43 {
        fill: #d4d4d4;
      }
    </style>
  </defs>
  <g id="Layer_1-2" data-name="Layer 1">
    <g>
      <path class="cls-13" d="M399.11,295.25H9.32c-3.09,0-5.59-2.5-5.59-5.59h0c0-3.09,2.5-5.59,5.59-5.59h389.79c3.09,0,5.59,2.5,5.59,5.59h0c0,3.09-2.5,5.59-5.59,5.59Z"/>
      <g>
        <g>
          <path class="cls-22" d="M349.06,129.04h50.95c3.92,0,7.1,3.18,7.1,7.1v138.32c0,6.35-5.16,11.51-11.51,11.51h-44.54c-5.03,0-9.11-4.08-9.11-9.11v-140.72c0-3.92,3.18-7.1,7.1-7.1Z" transform="translate(749.07 415.02) rotate(180)"/>
          <g>
            <rect class="cls-19" x="355" y="155.51" width="2.72" height="130.34"/>
            <rect class="cls-19" x="367.12" y="155.51" width="2.72" height="130.34"/>
            <rect class="cls-19" x="379.23" y="155.51" width="2.72" height="130.34"/>
            <rect class="cls-19" x="391.35" y="155.51" width="2.72" height="130.34"/>
          </g>
        </g>
        <g>
          <path class="cls-22" d="M10.43,129.04h44.54c6.35,0,11.51,5.16,11.51,11.51v138.32c0,3.92-3.18,7.1-7.1,7.1H8.42c-3.92,0-7.1-3.18-7.1-7.1v-140.72c0-5.03,4.08-9.11,9.11-9.11Z"/>
          <g>
            <rect class="cls-19" x="50.71" y="155.51" width="2.72" height="130.34" transform="translate(104.14 441.36) rotate(180)"/>
            <rect class="cls-19" x="38.6" y="155.51" width="2.72" height="130.34" transform="translate(79.91 441.36) rotate(180)"/>
            <rect class="cls-19" x="26.48" y="155.51" width="2.72" height="130.34" transform="translate(55.68 441.36) rotate(180)"/>
            <rect class="cls-19" x="14.37" y="155.51" width="2.72" height="130.34" transform="translate(31.45 441.36) rotate(180)"/>
          </g>
        </g>
        <path class="cls-33" d="M180.96,54.03h46.42c.79,0,1.27-.87.85-1.53l-1.45-2.31c-1.18-1.88-3.25-3.03-5.47-3.03h-34.28c-2.22,0-4.29,1.14-5.47,3.03l-1.45,2.31c-.42.67.06,1.53.85,1.53Z"/>
        <path class="cls-4" d="M179.47,53.85c-.3-.54-.28-1.2.05-1.72l1.45-2.31c1.32-2.1,3.58-3.35,6.06-3.35h34.28c2.48,0,4.74,1.25,6.06,3.35l1.45,2.31c.33.52.34,1.18.05,1.72-.3.54-.87.87-1.48.87h-46.42c-.62,0-1.18-.33-1.48-.87ZM187.03,47.84c-2,0-3.83,1.01-4.89,2.71l-1.45,2.31c-.08.14-.04.26,0,.32.03.06.11.16.27.16h46.42c.16,0,.24-.1.27-.16.03-.06.08-.18,0-.32l-1.45-2.31c-1.06-1.69-2.89-2.71-4.89-2.71h-34.28Z"/>
        <g>
          <rect class="cls-4" x="217.78" y="53.45" width="5.03" height="5.03" transform="translate(440.59 111.94) rotate(180)"/>
          <rect class="cls-4" x="185.52" y="53.45" width="5.03" height="5.03"/>
        </g>
        <rect class="cls-4" x="198.28" y="54.03" width="11.77" height="3.81" transform="translate(408.34 111.88) rotate(180)"/>
        <g class="cls-23">
          <path class="cls-12" d="M276.08,16.44c5.28.52,10.53,1.29,15.75,2.29,9.06,1.72,18.12,3.45,27.19,5.17,2.1.4,4.03,1.45,5.52,2.99,3.05,3.15,6.56,7.45,9.62,13.04,5.07,9.27,6.63,17.88,7.16,23.17-2.06-.17-4.12-.33-6.19-.49l-63.41-46.58c1.46.14,2.93.27,4.37.41Z"/>
        </g>
        <g class="cls-23">
          <path class="cls-12" d="M111.21,19.76l51.59,37.92c-4.56.15-9.15.31-13.75.49l-49.29-36.23c3.82-.73,7.64-1.45,11.45-2.18Z"/>
        </g>
        <g class="cls-23">
          <path class="cls-12" d="M74.28,39.93c.3-.55.6-1.08.91-1.6l30.37,22.02c-4.45.27-8.88.56-13.28.86l-20.93-15.12c.82-2,1.78-4.06,2.93-6.16Z"/>
        </g>
        <g class="cls-23">
          <path class="cls-12" d="M132.35,16.44c7.05-.7,14.28-1.3,21.69-1.79,3.15-.21,6.27-.39,9.36-.55l58.24,42.96c-5.85-.11-11.66-.21-17.42-.27-10.7.11-21.54.32-32.53.62l-52.87-39.09c4.48-.8,8.99-1.43,13.53-1.88Z"/>
        </g>
        <g class="cls-23">
          <path class="cls-12" d="M253.51,14.6l63.55,46.68c-5.24-.36-10.51-.7-15.82-1.03l-63.27-46.47c5.1.21,10.29.48,15.55.82Z"/>
        </g>
        <g class="cls-10">
          <path d="M186.63,27.48c.35-1.93,2.12-3.28,4.09-3.28h12.05v-5.53h2.9v5.53h12.05c1.96,0,3.74,1.35,4.09,3.28.05.29.08.6.07.91-.08,2.32-2.08,4.12-4.4,4.12h-26.5c-2.32,0-4.32-1.8-4.4-4.12-.01-.31.01-.62.07-.91Z"/>
        </g>
        <g class="cls-10">
          <path d="M267.51,39.21h14.49c6.38,0,12.07,3.83,14.19,9.56l1.14,3.08c4.61,12.45,6.96,25.55,6.96,38.75v22.69h-59.1v-22.55c0-13.06,2.31-26.03,6.82-38.37l1.3-3.56c2.1-5.75,7.8-9.61,14.21-9.61Z"/>
        </g>
        <g class="cls-10">
          <path d="M140.93,39.21h-14.49c-6.38,0-12.07,3.83-14.19,9.56l-1.14,3.08c-4.61,12.45-6.96,25.55-6.96,38.75v22.69h59.1v-22.55c0-13.06-2.3-26.03-6.82-38.37l-1.3-3.56c-2.1-5.75-7.8-9.61-14.21-9.61Z"/>
        </g>
        <g class="cls-5">
          <path class="cls-29" d="M67.12,63.1c.53-5.29,2.09-13.9,7.16-23.17,3.06-5.59,6.57-9.89,9.62-13.04,1.49-1.54,3.41-2.58,5.52-2.99,9.06-1.72,18.12-3.45,27.19-5.17,5.21-.99,10.47-1.76,15.75-2.29,7.05-.7,14.28-1.3,21.69-1.79,17.61-1.16,34.37-1.56,50.18-1.42,15.8-.15,32.56.25,50.18,1.42,7.41.49,14.64,1.09,21.69,1.79,5.28.52,10.53,1.29,15.75,2.29,9.06,1.72,18.12,3.45,27.19,5.17,2.1.4,4.03,1.45,5.52,2.99,3.05,3.15,6.56,7.45,9.62,13.04,5.07,9.27,6.63,17.88,7.16,23.17-17.07-1.39-34.51-2.59-52.31-3.56-29.16-1.59-57.44-2.46-84.78-2.75-27.35.29-55.63,1.16-84.78,2.75-17.81.97-35.25,2.16-52.31,3.56Z"/>
        </g>
        <g class="cls-23">
          <path class="cls-12" d="M276.08,16.44c5.28.52,10.53,1.29,15.75,2.29,9.06,1.72,18.12,3.45,27.19,5.17,2.1.4,4.03,1.45,5.52,2.99,3.05,3.15,6.56,7.45,9.62,13.04,5.07,9.27,6.63,17.88,7.16,23.17-2.06-.17-4.12-.33-6.19-.49l-63.41-46.58c1.46.14,2.93.27,4.37.41Z"/>
        </g>
        <g class="cls-23">
          <path class="cls-12" d="M111.21,19.76l51.59,37.92c-4.56.15-9.15.31-13.75.49l-49.29-36.23c3.82-.73,7.64-1.45,11.45-2.18Z"/>
        </g>
        <g class="cls-23">
          <path class="cls-12" d="M74.28,39.93c.3-.55.6-1.08.91-1.6l30.37,22.02c-4.45.27-8.88.56-13.28.86l-20.93-15.12c.82-2,1.78-4.06,2.93-6.16Z"/>
        </g>
        <g class="cls-23">
          <path class="cls-12" d="M132.35,16.44c7.05-.7,14.28-1.3,21.69-1.79,3.15-.21,6.27-.39,9.36-.55l58.24,42.96c-5.85-.11-11.66-.21-17.42-.27-10.7.11-21.54.32-32.53.62l-52.87-39.09c4.48-.8,8.99-1.43,13.53-1.88Z"/>
        </g>
        <g class="cls-23">
          <path class="cls-12" d="M253.51,14.6l63.55,46.68c-5.24-.36-10.51-.7-15.82-1.03l-63.27-46.47c5.1.21,10.29.48,15.55.82Z"/>
        </g>
        <path class="cls-29" d="M389.66,97.04l1.72-1.69c3.11-3.05,5.17-7.02,5.83-11.32.14-.9.25-1.83.32-2.81.09-1.22.13-2.38.11-3.47-.02-1.48-.9-2.83-2.25-3.43-2.36-1.05-5.08-2.07-8.16-2.93-4.27-1.19-8.19-1.76-11.55-2.01-2.14-.16-4.27.41-6,1.67-.77.57-1.58,1.23-2.39,2.02-2.25,2.18-3.61,4.42-4.4,5.99,8.96,5.21,17.82,12.76,26.77,17.97Z"/>
        <path class="cls-38" d="M389.07,98.05c-4.53-2.63-9.08-5.89-13.48-9.05-4.36-3.12-8.86-6.35-13.29-8.93l-.95-.55.5-.98c1.19-2.35,2.74-4.47,4.63-6.3.78-.76,1.63-1.48,2.52-2.12,1.92-1.4,4.33-2.08,6.78-1.9,3.98.29,7.94.98,11.77,2.05,2.83.79,5.63,1.79,8.32,2.99,1.76.78,2.92,2.54,2.95,4.48.02,1.19-.02,2.39-.11,3.58-.07.96-.19,1.94-.33,2.89-.68,4.49-2.87,8.75-6.16,11.98l-2.35,2.31-.77-.45ZM370.37,72c-.8.58-1.56,1.23-2.27,1.91-1.44,1.4-2.66,2.98-3.65,4.72,4.2,2.52,8.42,5.54,12.51,8.47,4.11,2.94,8.34,5.98,12.53,8.47l1.08-1.06c2.93-2.88,4.88-6.67,5.49-10.67.14-.9.24-1.82.31-2.72.09-1.11.12-2.25.11-3.36-.01-1.03-.63-1.96-1.56-2.38-2.58-1.15-5.27-2.11-7.99-2.87-3.68-1.03-7.49-1.69-11.32-1.97-.2-.02-.41-.02-.61-.02-1.68,0-3.3.51-4.62,1.47Z"/>
        <path class="cls-29" d="M18.77,97.04l-1.72-1.69c-3.11-3.05-5.17-7.02-5.83-11.32-.14-.9-.25-1.83-.32-2.81-.09-1.22-.13-2.38-.11-3.47.02-1.48.9-2.83,2.25-3.43,2.36-1.05,5.08-2.07,8.16-2.93,4.27-1.19,8.19-1.76,11.55-2.01,2.14-.16,4.27.41,6,1.67.77.57,1.58,1.23,2.39,2.02,2.25,2.18,3.61,4.42,4.4,5.99-8.96,5.21-17.82,12.76-26.77,17.97Z"/>
        <path class="cls-38" d="M18.59,98.5l-2.35-2.31c-3.29-3.23-5.48-7.49-6.16-11.98-.15-.96-.26-1.93-.33-2.89-.09-1.19-.13-2.39-.11-3.58.03-1.94,1.18-3.7,2.95-4.48,2.69-1.19,5.49-2.2,8.32-2.99,3.83-1.07,7.79-1.76,11.77-2.05,2.45-.18,4.86.49,6.78,1.9.89.65,1.73,1.36,2.52,2.12,1.88,1.83,3.44,3.95,4.63,6.3l.5.98-.95.55c-4.43,2.58-8.94,5.81-13.29,8.93-4.4,3.15-8.95,6.41-13.48,9.05l-.77.45ZM33.44,70.52c-.2,0-.4,0-.61.02-3.83.28-7.63.94-11.32,1.97-2.72.76-5.41,1.72-7.99,2.87-.93.41-1.54,1.35-1.56,2.38-.02,1.12.02,2.25.11,3.36.07.9.18,1.82.31,2.72.61,4,2.56,7.78,5.49,10.67l1.08,1.06c4.18-2.5,8.42-5.53,12.53-8.47,4.09-2.93,8.3-5.95,12.51-8.47-.99-1.74-2.22-3.32-3.65-4.72-.71-.69-1.47-1.33-2.27-1.91-1.32-.96-2.94-1.47-4.62-1.47Z"/>
        <path class="cls-25" d="M0,162.94l1.09,38.11c.12,4.04.53,8.07,1.25,12.05l5.86,32.66c.31,1.73,1.94,2.89,3.68,2.61l34.89-5.54c4.98,5.83,13.8,9.52,21.29,11.11l3.4.72c2.37.5,4.79.76,7.22.76h251.07c2.43,0,4.85-.25,7.22-.76l3.4-.72c7.5-1.59,16.32-5.28,21.29-11.11l34.89,5.54c1.73.28,3.37-.89,3.68-2.61l5.86-32.66c.71-3.98,1.13-8.01,1.25-12.05l1.09-38.11-1.47-30.72c-.09-1.96-.61-3.88-1.51-5.62-1.81-3.49-3.62-6.98-5.43-10.48-.2-.38-.34-.78-.44-1.19-.9-3.68-2.11-7.73-3.74-12.03-1.63-4.3-3.42-8.15-5.21-11.55-1.22-2.32-3.11-4.23-5.4-5.5-6.45-3.59-12.9-7.18-19.35-10.77-1.01-.56-1.74-1.5-2.06-2.61-1.86-6.59-4.69-14.48-9.1-22.96-4.31-8.28-9.01-14.98-13.18-20.16-2.63-3.27-6.71-7.58-12.59-11.4-3.77-2.45-7.36-4.11-10.38-5.24-.41-.15-.86-.18-1.28-.07-.5.12-.63.14-1.27.26-.21.04-.43.05-.65.02-5.53-.82-11.24-1.56-17.11-2.2-10.69-1.16-20.94-1.89-30.68-2.27-1.31-.05-2.62.09-3.89.42-.13.03-.27.07-.4.1-1.43.37-2.92.5-4.39.39-4.97-.37-10.01-.7-15.1-.99-13.1-.75-25.86-1.19-38.26-1.37v-.04c-.45,0-.89.01-1.34.02-.45,0-.89-.01-1.34-.02v.04c-12.4.18-25.16.62-38.26,1.37-5.09.29-10.12.62-15.1.99-1.48.11-2.96-.02-4.39-.39-.13-.03-.27-.07-.4-.1-1.27-.33-2.58-.47-3.89-.42-9.74.38-19.99,1.1-30.68,2.27-5.88.64-11.58,1.38-17.11,2.2-.21.03-.43.03-.65-.02-.64-.12-.77-.14-1.27-.26-.42-.11-.87-.08-1.28.07-3.02,1.13-6.61,2.79-10.38,5.24-5.88,3.82-9.96,8.12-12.59,11.4-4.17,5.17-8.87,11.87-13.18,20.16-4.41,8.48-7.24,16.37-9.1,22.96-.31,1.11-1.05,2.05-2.06,2.61-6.45,3.59-12.9,7.18-19.35,10.77-2.29,1.28-4.18,3.18-5.4,5.5-1.79,3.39-3.58,7.25-5.21,11.55-1.63,4.3-2.84,8.35-3.74,12.03-.1.41-.25.81-.44,1.19-1.81,3.49-3.62,6.98-5.43,10.48-.9,1.74-1.42,3.66-1.51,5.62l-1.47,30.72ZM67.12,63.1c.53-5.29,2.09-13.9,7.16-23.17,3.06-5.59,6.57-9.89,9.62-13.04,1.49-1.54,3.41-2.58,5.52-2.99,9.06-1.72,18.12-3.45,27.19-5.17,5.21-.99,10.47-1.76,15.75-2.29,7.05-.7,14.28-1.3,21.69-1.79,17.61-1.16,34.37-1.56,50.18-1.42,15.8-.15,32.56.25,50.18,1.42,7.41.49,14.64,1.09,21.69,1.79,5.28.52,10.53,1.29,15.75,2.29,9.06,1.72,18.12,3.45,27.19,5.17,2.1.4,4.03,1.45,5.52,2.99,3.05,3.15,6.56,7.45,9.62,13.04,5.07,9.27,6.63,17.88,7.16,23.17-17.07-1.39-34.51-2.59-52.31-3.56-29.16-1.59-57.44-2.46-84.78-2.75-27.35.29-55.63,1.16-84.78,2.75-17.81.97-35.25,2.16-52.31,3.56Z"/>
        <path class="cls-8" d="M317.18,23.55c-8.45-1.61-16.9-3.22-25.35-4.82-5.21-.99-10.47-1.76-15.75-2.29-7.05-.7-14.28-1.3-21.69-1.79-17.61-1.16-34.37-1.56-50.18-1.42-15.8-.15-32.56.25-50.18,1.42-7.41.49-14.64,1.09-21.69,1.79-5.28.52-10.53,1.29-15.75,2.29-8.71,1.66-17.42,3.31-26.13,4.97l.87-4.51,1.7-6.27s0,0,0,0c5.53-.82,11.24-1.56,17.11-2.2,10.69-1.16,20.94-1.89,30.68-2.27,1.31-.05,2.62.09,3.89.42.13.03.27.07.4.1,1.43.37,2.92.5,4.39.39,4.97-.37,10.01-.7,15.1-.99,13.1-.75,25.86-1.19,38.26-1.37v-.04c.45,0,.89.01,1.34.02.45,0,.89-.01,1.34-.02v.04c12.4.18,25.16.62,38.26,1.37,5.09.29,10.12.62,15.1.99,1.48.11,2.96-.02,4.39-.39.13-.03.27-.07.4-.1,1.27-.33,2.58-.47,3.89-.42,9.74.38,19.99,1.1,30.68,2.27,5.83.63,11.5,1.37,16.99,2.18l1.03,2.13.89,8.52Z"/>
        <path class="cls-42" d="M75.49,198.36c-3.08-9.45-14.23-13.56-22.64-8.28-.06.04-.12.07-.18.11-5.88,3.76-10.71,9.09-16.94,12.24-6.23,3.14-14.93,3.3-19.12-2.27-2.63-3.5-4.65-29.78-3.55-47.71.28-4.61,2.11-18.12,4.26-30.44-.54.41-1.02.9-1.42,1.47L.86,144.9l-.86,18.04,1.09,38.11c.12,4.04.53,8.07,1.25,12.05l5.86,32.66c.31,1.73,1.94,2.89,3.68,2.61l34.89-5.54c4.98,5.83,13.8,9.52,21.29,11.11l3.4.72c2.37.5,4.79.76,7.22.76h15.41l-18.6-57.06Z"/>
        <path class="cls-28" d="M17.76,119.49c1.56-8.64,3.23-16.32,4.56-19.36.02-.04.04-.09.06-.13,3.02-6.83,9.04-11.88,16.28-13.72,2.9-.74,5.94-1.43,9.12-2.06,7.55-1.49,14.55-2.31,20.78-2.71-.79-2.75-1.52-6.27-1.73-10.39-.16-3.02,0-5.73.28-8,.53-5.29,2.09-13.9,7.16-23.17,3.06-5.59,6.57-9.89,9.62-13.04.78-.81,1.68-1.4,1.68-1.4.43-.29.81-.5,1.06-.62.35-1.8.99-4.12,2.19-6.65,1.06-2.24,2.26-4.02,3.31-5.35-.14-.02-.35-.06-.61-.12-.21-.05-.34-.08-.39-.09-.42-.11-.87-.08-1.28.07-3.02,1.13-6.61,2.79-10.38,5.24-5.88,3.82-9.96,8.12-12.59,11.4-4.17,5.17-8.87,11.87-13.18,20.16-4.41,8.48-7.24,16.37-9.1,22.96-.31,1.11-1.05,2.05-2.06,2.61-6.45,3.59-12.9,7.18-19.35,10.77-2.29,1.28-4.18,3.18-5.4,5.5-1.79,3.39-3.58,7.25-5.21,11.54-1.63,4.3-2.84,8.35-3.74,12.03-.01.06-.04.11-.05.17-.05.17-.1.35-.17.51-.07.17-.14.34-.23.51-1.81,3.49-3.62,6.98-5.43,10.48-.19.37-.36.75-.52,1.14-.23.56-.42,1.14-.57,1.73-.1.39-.18.78-.25,1.18-.05.28-.09.56-.11.84-.02.24-.04.49-.05.73l-.43,9.04,13.26-18.89c.89-1.27,2.09-2.25,3.46-2.87Z"/>
        <path class="cls-38" d="M336.2,81.05c-38.97-4.86-83.28-8.2-132.02-8.2s-93.05,2.94-132.02,7.8l-.53-2.29c-.29-1.24.54-2.46,1.8-2.65,37.53-5.66,81.53-9.42,130.75-9.42s95.04,4.33,133.07,10.18c-.35,1.53-.7,3.05-1.06,4.58Z"/>
        <path class="cls-25" d="M294.26,19.19c-2.99-.57-13.13-2.19-15.7-2.48-.5-.31-1-.62-1.52-.93-5.42-3.21-10.62-5.23-15.04-6.53.44-.07.87-.15,1.3-.27.13-.03.27-.07.4-.1.94-.24,1.89-.38,2.86-.42,3.81.23,8.26.97,12.96,2.76,3.02,1.15,12.61,6.63,14.74,7.98Z"/>
        <path class="cls-36" d="M321.79,24.86c-.87-.45-1.8-.77-2.77-.96-.84-.16-1.69-.32-2.53-.48-.27-1.6-.71-3.43-1.43-5.4-.81-2.21-1.77-4.06-2.68-5.53,1.01.14,2.01.28,3.01.43.21.03.43.03.65-.02.1-.02.19-.04.27-.05,1.22,1.56,2.58,3.64,3.71,6.24.91,2.11,1.45,4.08,1.79,5.76Z"/>
        <path class="cls-42" d="M332.94,198.36c3.08-9.45,14.23-13.56,22.64-8.28.06.04.12.07.18.11,5.88,3.76,10.71,9.09,16.94,12.24,6.23,3.14,14.93,3.3,19.12-2.27,2.63-3.5,4.65-29.78,3.55-47.71-.28-4.61-2.11-18.12-4.26-30.44.54.41,1.02.9,1.42,1.47l15.03,21.42.86,18.04-1.09,38.11c-.12,4.04-.53,8.07-1.25,12.05l-5.86,32.66c-.31,1.73-1.94,2.89-3.68,2.61l-34.89-5.54c-4.98,5.83-13.8,9.52-21.29,11.11l-3.4.72c-2.37.5-4.79.76-7.22.76h-15.41l18.6-57.06Z"/>
        <path class="cls-25" d="M114.17,19.19c2.99-.57,13.13-2.19,15.7-2.48.5-.31,1-.62,1.52-.93,5.42-3.21,10.62-5.23,15.04-6.53-.44-.07-.87-.15-1.3-.27-.13-.03-.27-.07-.4-.1-.94-.24-1.89-.38-2.86-.42-3.81.23-8.26.97-12.96,2.76-3.02,1.15-12.61,6.63-14.74,7.98Z"/>
        <path class="cls-36" d="M86.64,24.86c.87-.45,1.8-.77,2.77-.96.84-.16,1.69-.32,2.53-.48.27-1.6.71-3.43,1.43-5.4.81-2.21,1.77-4.06,2.68-5.53-1.01.14-2.01.28-3.01.43-.21.03-.43.03-.65-.02-.1-.02-.19-.04-.27-.05-1.22,1.56-2.58,3.64-3.71,6.24-.91,2.11-1.45,4.08-1.79,5.76Z"/>
        <path class="cls-14" d="M90.03,181.18l110.19.4h119.34c12.77,0,23.74,5.96,28.82,17.68l18.89,44.47-5.61-.89c-4.98,5.83-13.8,9.52-21.29,11.11h0c-4.64.98-9.36,1.48-14.1,1.48H82.16c-4.74,0-9.47-.5-14.1-1.48h0c-7.5-1.59-16.32-5.28-21.29-11.11l-5.06.8,19.59-45.14c5.08-11.71,15.96-17.31,28.73-17.31Z"/>
        <path class="cls-26" d="M148.42,192.33v42.13h114.34v-42.13h-114.34ZM152.54,200.88c0-2.91,2.36-5.27,5.27-5.27h92.82c2.91,0,5.27,2.36,5.27,5.27v32.19h-103.35v-32.19Z"/>
        <path class="cls-2" d="M134.24,235.54h-13.03v-10.75c0-11.5-9.32-20.81-20.81-20.81s-20.81,9.32-20.81,20.81v5.39c0,3.48-1.12,6.86-3.2,9.65l-5.01,6.72-1.73,2.46,26.96,2.81h42.88v-11.58l-5.25-4.7Z"/>
        <polygon class="cls-6" points="147.44 250.14 134.24 250.14 134.24 235.54 147.44 244.04 147.44 250.14"/>
        <path class="cls-28" d="M390.67,119.49c-1.56-8.64-3.23-16.32-4.56-19.36-.02-.04-.04-.09-.06-.13-3.02-6.83-9.04-11.88-16.28-13.72-2.9-.74-5.94-1.43-9.12-2.06-7.55-1.49-14.55-2.31-20.78-2.71.79-2.75,1.52-6.27,1.73-10.39.16-3.02,0-5.73-.28-8-.53-5.29-2.09-13.9-7.16-23.17-3.06-5.59-6.57-9.89-9.62-13.04-.78-.81-1.68-1.4-1.68-1.4-.43-.29-.81-.5-1.06-.62-.35-1.8-.99-4.12-2.19-6.65-1.06-2.24-2.26-4.02-3.31-5.35.14-.02.35-.06.61-.12.21-.05.34-.08.39-.09.42-.11.87-.08,1.28.07,3.02,1.13,6.61,2.79,10.38,5.24,5.88,3.82,9.96,8.12,12.59,11.4,4.17,5.17,8.87,11.87,13.18,20.16,4.41,8.48,7.24,16.37,9.1,22.96.31,1.11,1.05,2.05,2.06,2.61,6.45,3.59,12.9,7.18,19.35,10.77,2.29,1.28,4.18,3.18,5.4,5.5,1.79,3.39,3.58,7.25,5.21,11.54,1.63,4.3,2.84,8.35,3.74,12.03.01.06.04.11.05.17.05.17.1.35.17.51.07.17.14.34.23.51,1.81,3.49,3.62,6.98,5.43,10.48.19.37.36.75.52,1.14.23.56.42,1.14.57,1.73.1.39.18.78.25,1.18.05.28.09.56.11.84.02.24.04.49.05.73l.43,9.04-13.26-18.89c-.89-1.27-2.09-2.25-3.46-2.87Z"/>
        <path class="cls-6" d="M286.17,222.75c0-12.17,9.95-22.02,22.15-21.86,12.02.16,21.57,10.17,21.57,22.19v1.68c0,2.01-.59,3.99-1.76,5.63-.29.4-.58.79-.9,1.17.53-.77,1-1.58,1.41-2.42v-4.08c0-11.31-8.96-20.77-20.27-20.95-11.55-.19-20.97,9.11-20.97,20.62v5.48c.31.55.65,1.08,1.02,1.6,0-.01-.02-.02-.03-.03-1.47-1.74-2.24-3.97-2.24-6.26v-2.75Z"/>
        <path class="cls-2" d="M274.19,235.54h13.03v-10.75c0-11.5,9.32-20.81,20.81-20.81s20.81,9.32,20.81,20.81v5.39c0,3.48,1.12,6.86,3.2,9.65l5.01,6.72,1.73,2.46-26.96,2.81h-42.88v-11.58l5.25-4.7Z"/>
        <polygon class="cls-6" points="260.99 250.14 274.19 250.14 274.19 235.54 261.22 243.77 260.99 250.14"/>
        <rect class="cls-6" x="144.87" y="235.31" width="118.77" height="20.12" transform="translate(408.5 490.74) rotate(180)"/>
        <path class="cls-11" d="M94.11,188.46l106.26.39h115.08c12.31,0,22.89,5.75,27.79,17.05l16.76,38.67c-.67.63-17.25-33.77-17.25-33.77-4.89-11.26-15.42-16.99-27.69-16.99h-114.67l-105.88-.39c-12.27,0-22.72,5.38-27.61,16.63,0,0-17.25,35.6-17.88,35.04l17.39-39.95c4.9-11.3,15.39-16.69,27.7-16.69Z"/>
        <g>
          <path class="cls-28" d="M303.93,141.78l16.46-25.37,9.55-16.05,51.99-2.04q4.08,13.97,4.69,28.22c.62,14.61-6.42,28.07-21.04,28.07h-161.35v-8.95h89.91l9.79-3.88Z"/>
          <path class="cls-28" d="M21.82,126.54q.6-14.25,4.69-28.22l51.99,2.04,9.55,16.05,16.46,25.37,9.79,3.88h89.91v8.95H42.86c-14.62,0-21.66-13.47-21.04-28.07Z"/>
        </g>
        <path class="cls-27" d="M46.2,238.05l-2.23.35,17.32-39.91c5.08-11.71,15.96-17.31,28.73-17.31l110.19.4h119.34c12.77,0,23.74,5.96,28.82,17.68l16.67,39.23-2.83-.45c-.48.56-.27,2.63,0,4.88l-.56-.09c-.51.6-1.07,1.18-1.66,1.74l-16.76-38.67c-4.9-11.3-15.48-17.05-27.79-17.05h-115.08l-106.26-.39c-12.31,0-22.8,5.4-27.7,16.69l-17.39,39.95c-.81-.72-1.57-1.47-2.26-2.27l-.48.08c.25-2.31.39-4.31-.08-4.87Z"/>
        <path class="cls-38" d="M322.48,112.76l16.54-18.39,1.62-12.68c.98-3.44,1.56-6.98,1.75-10.54.14-2.71.04-5.46-.29-8.17l-.04-.31-1.86.85c.29,2.5.37,5.03.24,7.53-.18,3.43-.75,6.86-1.7,10.17l-.03.14-1.55,12.15-16.13,17.93,1.45,1.3Z"/>
        <path class="cls-34" d="M74.28,39.93c3.06-5.59,6.57-9.89,9.62-13.04,1.49-1.54,3.41-2.58,5.52-2.99,9.06-1.72,18.12-3.45,27.19-5.17,5.34-1.02,10.72-1.79,16.13-2.32,3.03-.3,6.09-.57,9.19-.84l-.35-.44c21.16-1.68,41.1-2.82,59.65-2.61,17.88-.2,37.06.85,57.38,2.44,5.98.43,11.84.93,17.58,1.5,5.25.52,10.47,1.29,15.65,2.28,9.06,1.72,18.12,3.45,27.19,5.17,2.1.4,4.03,1.45,5.52,2.98,3.05,3.15,6.56,7.45,9.62,13.04,5.07,9.27,6.63,17.88,7.16,23.17-1.24-.1-2.49-.2-3.74-.3-.73-5.22-2.46-12.55-6.71-20.35-2.99-5.5-6.42-9.73-9.4-12.83-1.46-1.51-3.34-2.54-5.39-2.94-8.86-1.7-17.72-3.39-26.58-5.09-5.24-1-10.51-1.77-15.82-2.29-3.03-.3-6.1-.58-9.19-.84l-.09.11c-1.65-.14-3.29-.27-4.93-.4-3.26-.26-6.53.22-9.59,1.39l-4.32,1.66c-1.9.73-3.93,1.06-5.96.97-6.18-.26-12.5-.46-18.95-.57-6.24-.11-32.61-.11-38.84,0-6.45.12-12.77.31-18.95.57-2.03.09-4.06-.24-5.96-.97l-3.67-1.41c-3.07-1.18-6.37-1.66-9.65-1.38-3.39.28-6.74.59-10.04.92-5.15.51-10.28,1.27-15.37,2.25-8.86,1.7-17.72,3.39-26.58,5.09-2.06.39-3.94,1.42-5.39,2.94-2.98,3.1-6.41,7.34-9.4,12.83-4.27,7.84-5.99,15.2-6.71,20.42-.98.08-1.97.16-2.96.24.53-5.29,2.09-13.9,7.16-23.17Z"/>
        <path class="cls-25" d="M207.97,6.29h-7.51v3.91c.25.14,1.61.89,3.76.89s3.51-.75,3.76-.89v-3.91Z"/>
        <path class="cls-8" d="M207.97,6.29l-1.31-6.29h-4.89l-1.31,6.29c.25.14,1.65.9,3.83.89,2.09-.02,3.42-.73,3.69-.89Z"/>
        <path class="cls-42" d="M291.37,144.38H117.06c-4.55,0-8.92-1.84-12.08-5.12-.13-.14-.29-.32-.48-.54l22.58-45.65c4.81-9.72,14.72-15.87,25.56-15.87h103.13c10.85,0,20.75,6.15,25.56,15.87l22.58,45.65c-.19.22-.35.41-.48.54-3.16,3.28-7.52,5.12-12.08,5.12Z"/>
        <path class="cls-35" d="M259.45,94.13h22.42l22.05,44.58c-.19.22-.35.41-.48.54-.2.21-4.17,3.05-4.38,3.25-7.92-12.01-39.62-48.38-39.62-48.38Z"/>
        <path class="cls-35" d="M148.98,94.13h-22.42l-22.05,44.58c.19.22.35.41.48.54.2.21,4.17,3.05,4.38,3.25,7.92-12.01,39.62-48.38,39.62-48.38Z"/>
        <path class="cls-38" d="M407.57,144.9l-.17-3.64-13.26-18.89c-1.6-2.28-4.23-3.65-7.02-3.65h-16.46v1.95h16.46c2.16,0,4.18,1.05,5.42,2.82l15.03,21.42Z"/>
        <path class="cls-15" d="M114.11,146.32h182.08c1.77-.98,3.87-2.33,6.04-4.17,2.14-1.81-197.86-1.36-194.85.56,2.42,1.55,4.71,2.72,6.74,3.6Z"/>
        <path class="cls-37" d="M86.12,111.12c2.68,5.67,16.32,25.49,18.86,28.13,3.16,3.28,7.52,5.12,12.08,5.12h174.3c4.55,0,8.92-1.84,12.08-5.12,2.54-2.64,16.19-22.47,18.86-28.13l.98.98c-2.43,5.8-5.83,12.62-10.63,19.8-1.7,2.55-3.42,5.14-5.13,7.57-3.58,5.1-9.44,8.12-15.67,8.12H116.57c-6.23,0-12.09-3.01-15.67-8.12-1.71-2.43-3.43-5.01-5.13-7.57-4.79-7.18-8.19-14-10.63-19.8l.98-.98Z"/>
        <path class="cls-8" d="M204.22,72.31h0c49.21.14,93.18,2.94,133.76,7.65-.11.41.88,1.79.88,1.79-40.36-4.34-84.99-6.98-133.28-6.98-.45,0-.91,0-1.36,0h0c-.45,0-.9,0-1.36,0-48.29,0-92.93,2.64-133.28,6.98l-.03-.27s.89-1.09.78-1.5c40.58-4.71,84.68-7.53,133.89-7.67Z"/>
        <path class="cls-37" d="M345.22,117.88c.97.17,1.85.65,2.54,1.36,7.97,8.31,18.72,11.16,26.63,7.47,1.83-.85,3.35-1.98,4.6-3.2,2.8-2.72,4.6-6.3,5.33-10.14.17-.88.31-1.86.39-2.9.2,2.41-.03,4.67-.39,6.53-.75,3.84-2.58,7.42-5.43,10.14-1.27,1.21-2.82,2.34-4.69,3.2-8.07,3.69-19.03.84-27.17-7.47-.69-.71-1.6-1.19-2.59-1.36l-23.48-8.44c.7.48,1.51.82,2.37.98l21.91,3.83Z"/>
        <path class="cls-38" d="M86.02,112.76l-16.54-18.39-1.62-12.68c-.98-3.44-1.56-6.98-1.75-10.54-.14-2.71-.04-5.46.29-8.17l.04-.31,1.86.85c-.29,2.5-.37,5.03-.24,7.53.18,3.43.75,6.86,1.7,10.17l.03.14,1.55,12.15,16.13,17.93-1.45,1.3Z"/>
        <path class="cls-18" d="M66.34,63.02c.84-8.31,3.28-16.2,7.25-23.47,2.63-4.81,5.91-9.25,9.74-13.21,1.61-1.67,3.67-2.78,5.93-3.21l27.19-5.17c5.31-1.01,10.63-1.78,15.82-2.3,7.19-.71,14.5-1.31,21.72-1.79,16.63-1.1,33.53-1.57,50.22-1.42,16.7-.16,33.61.32,50.23,1.42,7.21.48,14.52,1.08,21.72,1.79,5.18.51,10.5,1.29,15.82,2.3l27.19,5.17c2.27.43,4.32,1.54,5.93,3.21,3.83,3.96,7.11,8.4,9.74,13.21,3.98,7.26,6.42,15.16,7.25,23.47l.09.93-.93-.08c-17.34-1.41-34.93-2.61-52.29-3.55-28.07-1.53-56.58-2.45-84.73-2.75-28.17.3-56.68,1.22-84.75,2.75-17.36.94-34.95,2.14-52.29,3.55l-.93.08.09-.93ZM204.21,14.02c-16.67-.16-33.53.32-50.12,1.41-7.2.48-14.49,1.08-21.67,1.79-5.14.51-10.41,1.27-15.68,2.28l-27.19,5.17c-1.95.37-3.71,1.33-5.1,2.76-3.73,3.86-6.93,8.19-9.49,12.87-3.73,6.81-6.07,14.18-6.97,21.94,17.05-1.38,34.33-2.55,51.39-3.48,28.09-1.53,56.63-2.45,84.83-2.75,28.19.3,56.72,1.22,84.82,2.75,17.06.93,34.35,2.1,51.39,3.48-.9-7.76-3.24-15.13-6.97-21.94-2.57-4.69-5.76-9.02-9.49-12.87-1.39-1.44-3.15-2.39-5.1-2.76l-27.19-5.17c-5.26-1-10.54-1.77-15.68-2.28-7.18-.71-14.47-1.31-21.67-1.79-14.53-.96-29.27-1.44-43.92-1.44-2.07,0-4.15,0-6.21.03Z"/>
        <path class="cls-3" d="M325.77,72.38c-2.46-9.7-4.92-19.39-7.38-29.09-.49-1.94.05-4,1.44-5.44.01-.01.02-.02.03-.04.48-.49,1.3-.38,1.62.23,3.37,6.57,7.35,15.3,10.45,23.19,1.88,4.76,3.51,9.38,4.94,13.81.67,2.08,1.23,4.18,1.7,6.3-4.08-.52-8.22-1.01-12.42-1.49.36-2.47.24-5.01-.39-7.47Z"/>
        <path class="cls-3" d="M71.55,75.04c1.43-4.43,3.07-9.04,4.94-13.81,3.11-7.89,7.09-16.61,10.45-23.19.31-.61,1.14-.72,1.62-.23.01.01.02.02.03.04,1.39,1.44,1.93,3.5,1.44,5.44-2.46,9.7-4.92,19.39-7.38,29.09-.6,2.35-.73,4.77-.43,7.14-4.15.46-8.25.95-12.29,1.44.45-1.99.99-3.97,1.62-5.92Z"/>
        <path class="cls-20" d="M319.83,37.85s.02-.02.03-.04c.14-.15.32-.24.51-.28-.63,1.31-.79,2.82-.42,4.27,2.69,10.59,5.37,21.17,8.06,31.76.55,2.16.73,4.38.58,6.57-.81-.09-1.62-.19-2.44-.29.36-2.47.24-5.01-.39-7.47-2.46-9.7-4.92-19.39-7.38-29.09-.49-1.94.05-4,1.44-5.44Z"/>
        <path class="cls-19" d="M87,47.63c.21-.84.43-1.68.64-2.52.65-.03,1.31-.07,1.96-.1,38.21-2,75.52-2.93,113.88-2.93h.75c38.04.01,76.57,1.03,114.62,3.01.65.03,1.31.07,1.96.1.21.84.43,1.68.64,2.52.43,1.7.86,3.4,1.3,5.11-.65-.04-1.31-.07-1.96-.1-38.67-2.06-77.86-3.11-116.56-3.13h-.74c-38.45,0-77.38,1.03-115.82,3.05-.65.03-1.31.07-1.96.1.43-1.7.86-3.41,1.3-5.11Z"/>
        <path class="cls-20" d="M88.6,37.85s-.02-.02-.03-.04c-.14-.15-.32-.24-.51-.28.63,1.31.79,2.82.42,4.27-2.69,10.59-5.37,21.17-8.06,31.76-.55,2.16-.75,4.04-.6,6.23.81-.09,1.59-.18,2.41-.27-.29-2.5-.19-4.68.43-7.14,2.46-9.7,4.92-19.39,7.38-29.09.49-1.94-.05-4-1.44-5.44Z"/>
        <path class="cls-32" d="M93.14,48.04c.21-.81.41-1.62.62-2.43-.63.03-1.26.07-1.89.1-.21.81-.41,1.62-.62,2.43.63-.03,1.26-.07,1.89-.1Z"/>
        <path class="cls-9" d="M87.64,45.11c.65-.03,1.31-.07,1.96-.1,38.21-2,75.52-2.93,113.88-2.93h.75c38.04.01,76.57,1.03,114.62,3.01.65.03,1.31.07,1.96.1.21.84.43,1.68.64,2.52-.65-.03-1.31-.07-1.96-.1-38.26-2.01-77-3.03-115.26-3.05h-.75c-38.58,0-76.09.94-114.52,2.96-.65.03-1.31.07-1.96.1.21-.84.43-1.68.64-2.52Z"/>
        <path class="cls-20" d="M87,47.63c.65-.03,1.31-.07,1.96-.1,38.43-2.02,75.94-2.96,114.52-2.96h.75c38.26.01,77,1.04,115.26,3.05.65.03,1.31.07,1.96.1.43,1.7.86,3.4,1.3,5.11-.65-.04-1.31-.07-1.96-.1-38.67-2.06-77.86-3.11-116.56-3.13h-.74c-38.45,0-77.38,1.03-115.82,3.05-.65.03-1.31.07-1.96.1.43-1.7.86-3.41,1.3-5.11Z"/>
        <path class="cls-16" d="M315.08,197.07c0,.26-.21.46-.46.46h-13.88c-.26,0-.46-.21-.46-.46v-3.18s0-.05,0-.08h14.79s.01,0,.02,0c0,.03,0,.05,0,.08v3.17Z"/>
        <path class="cls-26" d="M307.75,241.59c-8.96,0-16.72-4.58-20.53-11.26v-5.53c0-11.5,9.32-20.81,20.81-20.81s20.81,9.32,20.81,20.81v4.46c-3.56,7.26-11.66,12.33-21.1,12.33Z"/>
        <rect class="cls-26" x="147.44" y="220.32" width="113.55" height="14.99" transform="translate(408.43 455.63) rotate(180)"/>
        <circle class="cls-15" cx="307.75" cy="223.09" r="15.96" transform="translate(-24.95 39.27) rotate(-7.02)"/>
        <circle class="cls-26" cx="307.75" cy="223.09" r="12.5"/>
        <circle class="cls-7" cx="307.75" cy="223.09" r="8.39"/>
        <path class="cls-6" d="M122.26,222.75c0-12.17-9.95-22.02-22.15-21.86-12.02.16-21.57,10.17-21.57,22.19v1.68c0,2.01.59,3.99,1.76,5.63.29.4.58.79.9,1.17-.53-.77-1-1.58-1.41-2.42v-4.08c0-11.31,8.96-20.77,20.27-20.95,11.55-.19,20.97,9.11,20.97,20.62v5.48c-.31.55-.65,1.08-1.02,1.6,0-.01.02-.02.03-.03,1.47-1.74,2.24-3.97,2.24-6.26v-2.75Z"/>
        <path class="cls-26" d="M100.68,241.59c8.96,0,16.72-4.58,20.53-11.26v-5.53c0-11.5-9.32-20.81-20.81-20.81s-20.81,9.32-20.81,20.81v4.46c3.56,7.26,11.66,12.33,21.1,12.33Z"/>
        <circle class="cls-15" cx="100.68" cy="223.09" r="15.96" transform="translate(-143.96 230.74) rotate(-67.5)"/>
        <circle class="cls-26" cx="100.68" cy="223.09" r="12.5"/>
        <circle class="cls-7" cx="100.68" cy="223.09" r="8.39"/>
        <path class="cls-15" d="M158.51,220.32c-.33,0-.5,0-.98,0l1.66-4.04c1.29-3.14,4.34-5.19,7.74-5.19h75.48c3.42,0,6.5,2.09,7.77,5.27l1.58,3.96h-93.24Z"/>
        <path class="cls-35" d="M81.15,170.2c-.87,0-1.35,0-2.62,0l4.44-2.7c3.44-2.1,11.62-3.48,20.71-3.48h202.05c9.17,0,17.4,1.4,20.79,3.53l4.22,2.65H81.15Z"/>
        <path class="cls-11" d="M281.54,189.48l-1.74,4.22h-5.08c-1.65,0-3.18.83-4.09,2.21-1.58,2.41-3.3,5.21-5.27,8.38-1.15,1.84-1.76,3.97-1.76,6.14v30.96c0,1.35-1.09,2.43-2.44,2.43h0c-1.34,0-2.43-1.09-2.43-2.43v-37.23h.04v-6.91c0-1.96-1.59-3.56-3.56-3.56h-11.23v-4.22h37.55Z"/>
        <path class="cls-11" d="M126.89,189.48l1.74,4.22h5.08c1.65,0,3.18.83,4.09,2.21,1.58,2.41,3.3,5.21,5.27,8.38,1.15,1.84,1.76,3.97,1.76,6.14v30.96c0,1.35,1.09,2.43,2.44,2.43h0c1.34,0,2.43-1.09,2.43-2.43v-37.23h-.04v-6.91c0-1.96,1.59-3.56,3.56-3.56h11.23v-4.22h-37.55Z"/>
        <path class="cls-31" d="M227.44,211.08l-13.83,10.25-6.63,4.92c-1.33.98-3.34.98-4.67,0l-6.63-4.92-13.83-10.25h45.6Z"/>
        <g class="cls-23">
          <path class="cls-12" d="M157.53,220.32l1.66-4.04c1.29-3.14,4.34-5.19,7.74-5.19h75.48c3.42,0,6.5,2.09,7.77,5.27l1.58,3.96h-2.59l-.74-1.85c-1.22-3.06-4.18-5.07-7.47-5.07h-72.58c-3.26,0-6.2,1.97-7.44,4.99l-.79,1.93h-1.64c-.33,0-.59,0-.98,0Z"/>
        </g>
        <path class="cls-16" d="M202.53,225.94l-16.92-12.54h38.05l-16.92,12.54c-1.18.87-3.03.87-4.21,0Z"/>
        <polygon class="cls-40" points="228.09 211.08 224.97 213.4 223.66 213.4 226.25 211.47 183.02 211.47 185.61 213.4 184.3 213.4 181.18 211.08 228.09 211.08"/>
        <g class="cls-39">
          <path d="M171.97,220.32c1.03-2,3.1-3.27,5.37-3.27h54.64c2.28,0,4.34,1.28,5.37,3.27h-22.4l-9.01,6.51h-2.95l-8.64-6.51h-22.39Z"/>
        </g>
        <path class="cls-40" d="M202.53,225.94c1.18.87,3.03.87,4.21,0l16.92-12.54h1.31l-17.77,13.17c-.73.54-1.65.81-2.57.81s-1.84-.27-2.57-.81l-17.77-13.17h1.31l16.92,12.54Z"/>
        <path class="cls-2" d="M46.76,235.31c4.98,5.83,13.8,9.52,21.29,11.11h0c4.64.98,9.36,1.48,14.1,1.48h244.11c4.74,0,9.47-.5,14.1-1.48,7.5-1.59,16.32-5.28,21.29-11.11l2.18.35,3.43,8.07-5.61-.89c-4.98,5.83-13.8,9.52-21.29,11.11-4.64.98-9.36,1.48-14.1,1.48H82.16c-4.74,0-9.47-.5-14.1-1.48h0c-7.5-1.59-16.32-5.28-21.29-11.11l-5.06.8,3.51-8.08,1.55-.24Z"/>
        <path class="cls-37" d="M315.94,185.22H92.49c-12.3,0-23.42,7.16-28.32,18.24l-17.41,39.38-7.56,1.2,19.59-45.14c5.08-11.71,16.64-19.29,29.4-19.29h232.04c12.77,0,24.32,7.58,29.4,19.29l19.59,45.14-7.56-1.2-17.41-39.38c-4.9-11.07-16.02-18.24-28.32-18.24Z"/>
        <path class="cls-16" d="M83.9,26.89c1.49-1.54,3.41-2.58,5.52-2.99,9.06-1.72,18.12-3.45,27.19-5.17,5.21-.99,10.47-1.76,15.75-2.29,7.05-.7,14.28-1.3,21.69-1.79,17.61-1.16,34.37-1.56,50.18-1.42,15.8-.15,32.56.25,50.18,1.42,7.41.49,14.64,1.09,21.69,1.79,5.28.52,10.53,1.29,15.75,2.29,9.06,1.72,18.12,3.45,27.19,5.17,2.1.4,4.03,1.45,5.52,2.99,3.05,3.15,6.56,7.45,9.62,13.04,5.07,9.27,6.63,17.88,7.16,23.17-17.07-1.39-34.51-2.59-52.31-3.56-29.16-1.59-57.44-2.46-84.78-2.75-27.35.29-55.63,1.16-84.78,2.75-17.81.97-35.25,2.16-52.31,3.56.53-5.29,2.09-13.9,7.16-23.17,3.06-5.59,6.57-9.89,9.62-13.04Z"/>
        <path class="cls-25" d="M391.12,122.01c-.15-.85-.3-1.69-.45-2.52,1.37.62,2.58,1.61,3.46,2.87l13.26,18.89.11,2.27.07,1.38-15.03-21.42c-.4-.57-.88-1.06-1.42-1.47Z"/>
        <path class="cls-38" d="M.86,144.9l.17-3.64,13.26-18.89c1.6-2.28,4.23-3.65,7.02-3.65h16.46v1.95h-16.46c-2.16,0-4.18,1.05-5.42,2.82L.86,144.9Z"/>
        <path class="cls-25" d="M17.32,122.01c.15-.85.3-1.69.45-2.52-1.37.62-2.58,1.61-3.46,2.87l-13.26,18.89-.11,2.27-.07,1.38,15.03-21.42c.4-.57.88-1.06,1.42-1.47Z"/>
        <path class="cls-24" d="M323.32,114.05l21.9,3.83c.97.17,1.85.65,2.53,1.36,7.97,8.31,18.72,11.16,26.63,7.47,1.83-.85,3.35-1.98,4.6-3.2,2.8-2.72,4.6-6.3,5.33-10.14.76-4,.95-9.81-2.38-15.05-.66-1.03-1.38-1.93-2.12-2.71-1.75-1.85-4.19-2.88-6.73-2.88h-54.88c-3.67,0-6.08,3.83-4.49,7.14l5.19,10.83c.85,1.77,2.49,3.02,4.42,3.35Z"/>
        <path class="cls-38" d="M276.2,100.52h-142.84c-3.32,0-6.21-1.85-7.7-4.58l.96-1.94c.41-.84.87-1.65,1.35-2.43l2.08-1.51h147.67l2.89,1.83c.41.69.8,1.39,1.16,2.11l1.43,2.9c-1.47,2.23-3.98,3.62-7,3.62Z"/>
        <path class="cls-17" d="M127.09,93.06c4.81-9.72,14.72-15.87,25.56-15.87h103.13c10.85,0,20.75,6.15,25.56,15.87l1.22,2.47H125.87l1.22-2.47Z"/>
        <path class="cls-38" d="M127.26,92.64c4.92-9.95,14.88-16.13,25.98-16.13h101.97c11.1,0,21.05,6.18,25.98,16.13l1.77,3.57H125.49l1.77-3.57ZM279.78,93.33c-4.66-9.41-14.07-15.26-24.58-15.26h-101.97c-10.5,0-19.92,5.85-24.58,15.26l-.65,1.32h152.43l-.65-1.32Z"/>
        <path class="cls-16" d="M374.57,109.2c0,4.16-3.38,7.55-7.55,7.55s-7.55-3.38-7.55-7.55c0-2.97,1.73-5.54,4.24-6.77h3.19v-.77s.08,0,.12,0c4.16,0,7.55,3.38,7.55,7.55Z"/>
        <path class="cls-43" d="M314.34,102.44h47.2c-1.97,1.6-3.24,4.03-3.24,6.77,0,4.81,3.91,8.72,8.72,8.72s8.72-3.91,8.72-8.72-3.91-8.72-8.72-8.72h-52.68v1.95ZM367.02,101.66c4.16,0,7.55,3.38,7.55,7.55s-3.38,7.55-7.55,7.55-7.55-3.38-7.55-7.55,3.38-7.55,7.55-7.55ZM364.21,100.96s.05-.02.07-.03c-.02,0-.05.02-.07.03ZM364.73,100.8s.06-.01.09-.02c-.03,0-.06.01-.09.02Z"/>
        <path class="cls-41" d="M357.97,114.77c1.88,3.08,5.27,5.14,9.15,5.14,6.01,0,10.86-4.95,10.71-10.99-.15-5.84-5.1-10.43-10.95-10.43h-53.61c-.47-2.91,1.76-5.77,4.92-5.77h54.88c2.54,0,4.98,1.03,6.73,2.88.74.78,1.46,1.68,2.12,2.71,3.33,5.25,3.14,11.06,2.38,15.05-.73,3.84-2.52,7.42-5.33,10.14-1.25,1.21-2.77,2.34-4.6,3.2-7.91,3.69-18.66.84-26.63-7.47-.68-.71-1.57-1.19-2.53-1.36l-21.9-3.83c-1.77-.31-3.29-1.39-4.19-2.92h32.31c2.66,0,5.15,1.37,6.54,3.65Z"/>
        <path class="cls-16" d="M372.26,118.6c1.09-1.81,2.05-3.82,2.81-6.06.9-2.65,1.43-5.37,1.61-8.1.69,1.35,1.1,2.86,1.14,4.48.11,4.17-2.17,7.82-5.56,9.68Z"/>
        <g class="cls-23">
          <path d="M319.13,111.12h32.31c2.66,0,5.15,1.37,6.54,3.65,1.88,3.08,5.27,5.14,9.15,5.14,6.01,0,10.86-4.95,10.71-10.99-.04-1.36-.33-2.65-.84-3.83.84,1.52,1.34,3.24,1.39,5.08.17,6.42-4.99,11.68-11.38,11.68-4.12,0-7.73-2.19-9.72-5.47-1.47-2.42-4.12-3.88-6.95-3.88h-30.07c-.43-.4-.82-.87-1.12-1.39Z"/>
        </g>
        <circle class="cls-43" cx="367.02" cy="109.2" r="5.64" transform="translate(125.68 406.5) rotate(-67.5)"/>
        <path class="cls-21" d="M354.42,106.69c0-1.72-1.4-3.12-3.12-3.12s-3.12,1.4-3.12,3.12,1.4,3.12,3.12,3.12,3.12-1.4,3.12-3.12Z"/>
        <path class="cls-43" d="M353.51,106.69c0-1.22-.99-2.21-2.21-2.21s-2.21.99-2.21,2.21.99,2.21,2.21,2.21,2.21-.99,2.21-2.21Z"/>
        <path class="cls-21" d="M345.62,106.69c0-1.72-1.4-3.12-3.12-3.12s-3.12,1.4-3.12,3.12,1.4,3.12,3.12,3.12,3.12-1.4,3.12-3.12Z"/>
        <path class="cls-43" d="M344.71,106.69c0-1.22-.99-2.21-2.21-2.21s-2.21.99-2.21,2.21.99,2.21,2.21,2.21,2.21-.99,2.21-2.21Z"/>
        <path class="cls-21" d="M336.82,106.69c0-1.72-1.4-3.12-3.12-3.12s-3.12,1.4-3.12,3.12,1.4,3.12,3.12,3.12,3.12-1.4,3.12-3.12Z"/>
        <path class="cls-43" d="M335.91,106.69c0-1.22-.99-2.21-2.21-2.21s-2.21.99-2.21,2.21.99,2.21,2.21,2.21,2.21-.99,2.21-2.21Z"/>
        <path class="cls-21" d="M328.02,106.69c0-1.72-1.4-3.12-3.12-3.12s-3.12,1.4-3.12,3.12,1.4,3.12,3.12,3.12,3.12-1.4,3.12-3.12Z"/>
        <path class="cls-43" d="M327.11,106.69c0-1.22-.99-2.21-2.21-2.21s-2.21.99-2.21,2.21.99,2.21,2.21,2.21,2.21-.99,2.21-2.21Z"/>
        <path class="cls-1" d="M381.93,102.04c-.66-1.03-1.38-1.93-2.12-2.71-1.75-1.85-4.19-2.88-6.73-2.88l-59.74.18c.49-2.15,2.38-3.89,4.86-3.89h54.88c2.54,0,4.98,1.03,6.73,2.88.74.78,1.46,1.68,2.12,2.71,1.95,3.07,2.69,6.34,2.82,9.32-.03.68-.08,1.34-.15,1.96-.31-2.48-1.1-5.09-2.67-7.57Z"/>
        <path class="cls-30" d="M346.96,117.66c7.97,8.31,19.51,10.34,27.42,6.66,1.83-.85,3.35-1.98,4.6-3.2,2.8-2.72,4.6-6.3,5.33-10.14.19-.98.34-2.07.41-3.23.15,2.3-.07,4.44-.41,6.23-.73,3.84-2.52,7.42-5.33,10.14-1.25,1.21-2.77,2.34-4.6,3.2-7.91,3.69-18.66.84-26.63-7.47-.68-.71-1.57-1.19-2.53-1.36v-.6c.97.17,1.06-.92,1.74-.21Z"/>
        <path class="cls-18" d="M347.19,119.78c-.58-.6-1.3-.99-2.11-1.13l-21.9-3.83c-2.17-.38-4.04-1.79-4.99-3.78l-5.19-10.83c-.86-1.8-.74-3.88.32-5.56,1.06-1.69,2.88-2.69,4.88-2.69h54.88c2.76,0,5.42,1.14,7.3,3.12.83.87,1.57,1.82,2.21,2.83,3.47,5.47,3.27,11.51,2.49,15.62-.79,4.15-2.71,7.8-5.55,10.55-1.45,1.4-3.07,2.53-4.81,3.34-2.41,1.12-5.05,1.67-7.78,1.67-6.71,0-13.97-3.29-19.74-9.31ZM318.2,93.51c-1.45,0-2.78.73-3.56,1.96-.77,1.23-.86,2.75-.23,4.06l5.19,10.83c.74,1.54,2.18,2.63,3.86,2.92l21.9,3.83c1.13.2,2.16.75,2.96,1.59,7.65,7.98,17.99,10.92,25.74,7.31,1.59-.74,3.07-1.77,4.39-3.05,2.61-2.53,4.37-5.9,5.1-9.73.73-3.83.93-9.45-2.27-14.49-.58-.92-1.27-1.79-2.02-2.59-1.59-1.68-3.83-2.64-6.17-2.64h-54.88Z"/>
        <path class="cls-37" d="M63.21,117.88c-.97.17-1.85.65-2.54,1.36-7.97,8.31-18.72,11.16-26.63,7.47-1.83-.85-3.35-1.98-4.6-3.2-2.8-2.72-4.6-6.3-5.33-10.14-.17-.88-.31-1.86-.39-2.9-.2,2.41.03,4.67.39,6.53.75,3.84,2.58,7.42,5.43,10.14,1.27,1.21,2.82,2.34,4.69,3.2,8.07,3.69,19.03.84,27.17-7.47.69-.71,1.6-1.19,2.59-1.36l23.48-8.44c-.7.48-1.51.82-2.37.98l-21.91,3.83Z"/>
        <path class="cls-24" d="M85.12,114.05l-21.9,3.83c-.97.17-1.85.65-2.53,1.36-7.97,8.31-18.72,11.16-26.63,7.47-1.83-.85-3.35-1.98-4.6-3.2-2.8-2.72-4.6-6.3-5.33-10.14-.76-4-.95-9.81,2.38-15.05.66-1.03,1.38-1.93,2.12-2.71,1.75-1.85,4.19-2.88,6.73-2.88h54.88c3.67,0,6.08,3.83,4.49,7.14l-5.19,10.83c-.85,1.77-2.49,3.02-4.42,3.35Z"/>
        <path class="cls-16" d="M33.86,109.2c0,4.16,3.38,7.55,7.55,7.55s7.55-3.38,7.55-7.55c0-2.97-1.73-5.54-4.24-6.77h-3.19v-.77s-.08,0-.12,0c-4.16,0-7.55,3.38-7.55,7.55Z"/>
        <path class="cls-43" d="M94.09,100.49h-52.68c-4.81,0-8.72,3.91-8.72,8.72s3.91,8.72,8.72,8.72,8.72-3.91,8.72-8.72c0-2.73-1.27-5.17-3.24-6.77h47.2v-1.95ZM48.96,109.2c0,4.16-3.38,7.55-7.55,7.55s-7.55-3.38-7.55-7.55,3.38-7.55,7.55-7.55,7.55,3.38,7.55,7.55ZM44.15,100.94s.05.02.07.03c-.02,0-.05-.02-.07-.03ZM43.61,100.78s.06.01.09.02c-.03,0-.06-.01-.09-.02Z"/>
        <path class="cls-41" d="M50.46,114.77c-1.88,3.08-5.27,5.14-9.15,5.14-6.01,0-10.86-4.95-10.71-10.99.15-5.84,5.1-10.43,10.95-10.43h53.61c.47-2.91-1.76-5.77-4.92-5.77h-54.88c-2.54,0-4.98,1.03-6.73,2.88-.74.78-1.46,1.68-2.12,2.71-3.33,5.25-3.14,11.06-2.38,15.05.73,3.84,2.52,7.42,5.33,10.14,1.25,1.21,2.77,2.34,4.6,3.2,7.91,3.69,18.66.84,26.63-7.47.68-.71,1.57-1.19,2.53-1.36l21.9-3.83c1.77-.31,3.29-1.39,4.19-2.92h-32.31c-2.66,0-5.15,1.37-6.54,3.65Z"/>
        <path class="cls-16" d="M36.17,118.6c-1.09-1.81-2.05-3.82-2.81-6.06-.9-2.65-1.43-5.37-1.61-8.1-.69,1.35-1.1,2.86-1.14,4.48-.11,4.17,2.17,7.82,5.56,9.68Z"/>
        <g class="cls-23">
          <path d="M89.3,111.12h-32.31c-2.66,0-5.15,1.37-6.54,3.65-1.88,3.08-5.27,5.14-9.15,5.14-6.01,0-10.86-4.95-10.71-10.99.04-1.36.33-2.65.84-3.83-.84,1.52-1.34,3.24-1.39,5.08-.17,6.42,4.99,11.68,11.38,11.68,4.12,0,7.73-2.19,9.72-5.47,1.47-2.42,4.12-3.88,6.95-3.88h30.07c.43-.4.82-.87,1.12-1.39Z"/>
        </g>
        <path class="cls-43" d="M35.77,109.2c0-3.11,2.52-5.64,5.64-5.64s5.64,2.52,5.64,5.64-2.52,5.64-5.64,5.64-5.64-2.52-5.64-5.64Z"/>
        <path class="cls-21" d="M54.01,106.69c0-1.72,1.4-3.12,3.12-3.12s3.12,1.4,3.12,3.12-1.4,3.12-3.12,3.12-3.12-1.4-3.12-3.12Z"/>
        <path class="cls-43" d="M54.92,106.69c0-1.22.99-2.21,2.21-2.21s2.21.99,2.21,2.21-.99,2.21-2.21,2.21-2.21-.99-2.21-2.21Z"/>
        <path class="cls-21" d="M62.81,106.69c0-1.72,1.4-3.12,3.12-3.12s3.12,1.4,3.12,3.12-1.4,3.12-3.12,3.12-3.12-1.4-3.12-3.12Z"/>
        <path class="cls-43" d="M63.72,106.69c0-1.22.99-2.21,2.21-2.21s2.21.99,2.21,2.21-.99,2.21-2.21,2.21-2.21-.99-2.21-2.21Z"/>
        <path class="cls-21" d="M71.61,106.69c0-1.72,1.4-3.12,3.12-3.12s3.12,1.4,3.12,3.12-1.4,3.12-3.12,3.12-3.12-1.4-3.12-3.12Z"/>
        <path class="cls-43" d="M72.52,106.69c0-1.22.99-2.21,2.21-2.21s2.21.99,2.21,2.21-.99,2.21-2.21,2.21-2.21-.99-2.21-2.21Z"/>
        <path class="cls-21" d="M80.41,106.69c0-1.72,1.4-3.12,3.12-3.12s3.12,1.4,3.12,3.12-1.4,3.12-3.12,3.12-3.12-1.4-3.12-3.12Z"/>
        <path class="cls-43" d="M81.32,106.69c0-1.22.99-2.21,2.21-2.21s2.21.99,2.21,2.21-.99,2.21-2.21,2.21-2.21-.99-2.21-2.21Z"/>
        <path class="cls-1" d="M26.5,102.04c.66-1.03,1.38-1.93,2.12-2.71,1.75-1.85,4.19-2.88,6.73-2.88l59.74.18c-.49-2.15-2.38-3.89-4.86-3.89h-54.88c-2.54,0-4.98,1.03-6.73,2.88-.74.78-1.46,1.68-2.12,2.71-1.95,3.07-2.69,6.34-2.82,9.32.03.68.08,1.34.15,1.96.31-2.48,1.1-5.09,2.67-7.57Z"/>
        <path class="cls-30" d="M61.47,117.66c-7.97,8.31-19.51,10.34-27.42,6.66-1.83-.85-3.35-1.98-4.6-3.2-2.8-2.72-4.6-6.3-5.33-10.14-.19-.98-.34-2.07-.41-3.23-.15,2.3.07,4.44.41,6.23.73,3.84,2.52,7.42,5.33,10.14,1.25,1.21,2.77,2.34,4.6,3.2,7.91,3.69,18.66.84,26.63-7.47.68-.71,1.57-1.19,2.53-1.36v-.6c-.97.17-1.06-.92-1.74-.21Z"/>
        <path class="cls-18" d="M41.5,129.08c-2.73,0-5.37-.54-7.78-1.67-1.75-.81-3.37-1.94-4.81-3.34-2.84-2.76-4.76-6.41-5.55-10.55-.78-4.11-.99-10.15,2.49-15.62.64-1,1.38-1.96,2.21-2.83,1.88-1.99,4.54-3.12,7.3-3.12h54.88c1.99,0,3.82,1.01,4.88,2.69,1.06,1.69,1.18,3.76.32,5.56l-5.19,10.83c-.95,1.99-2.82,3.4-4.99,3.78l-21.9,3.83c-.8.14-1.53.53-2.11,1.13-5.77,6.02-13.03,9.31-19.74,9.31ZM35.35,93.51c-2.33,0-4.58.96-6.17,2.64-.76.8-1.44,1.67-2.02,2.59-3.2,5.04-3,10.66-2.27,14.49.73,3.83,2.49,7.19,5.1,9.73,1.32,1.28,2.8,2.31,4.39,3.05,7.74,3.61,18.08.67,25.74-7.31.81-.84,1.83-1.39,2.96-1.59l21.9-3.83c1.68-.29,3.12-1.39,3.86-2.92l5.19-10.83c.63-1.31.54-2.83-.23-4.06-.77-1.23-2.1-1.96-3.56-1.96h-54.88Z"/>
      </g>
    </g>
  </g>
</svg>