<?xml version="1.0" encoding="UTF-8"?>
<svg id="Layer_2" data-name="Layer 2" xmlns="http://www.w3.org/2000/svg" viewBox="0 0 401.27 376.87">
  <defs>
    <style>
      .cls-1 {
        fill: #3b3b3b;
      }

      .cls-2 {
        opacity: .75;
      }

      .cls-3 {
        fill: #454545;
      }

      .cls-4 {
        fill: #333;
      }

      .cls-5 {
        opacity: .3;
      }

      .cls-6 {
        fill: #4d4d4d;
      }

      .cls-7 {
        fill: #fff;
      }

      .cls-8 {
        fill: #131313;
      }

      .cls-9 {
        opacity: .25;
      }

      .cls-10 {
        fill: #3d3d3d;
      }

      .cls-11 {
        fill: #68b3bf;
      }

      .cls-12 {
        fill: #303030;
      }

      .cls-13 {
        fill: none;
      }

      .cls-14 {
        fill: #363636;
      }

      .cls-15 {
        fill: #454545;
      }

      .cls-16 {
        opacity: .15;
      }

      .cls-17 {
        fill: #666;
      }

      .cls-18 {
        opacity: .2;
      }

      .cls-19 {
        fill: #383838;
      }

      .cls-20 {
        fill: #404040;
      }

      .cls-21 {
        fill: #63aab6;
      }

      .cls-22 {
        fill: #595959;
      }

      .cls-23 {
        fill: #ab1f2c;
      }

      .cls-24 {
        fill: #e6e6e6;
      }

      .cls-25 {
        fill: #bfbfbf;
      }
    </style>
  </defs>
  <g id="Layer_1-2" data-name="Layer 1">
    <g>
      <path class="cls-8" d="M395.53,376.87H5.74c-3.09,0-5.59-2.5-5.59-5.59H.15c0-3.09,2.5-5.59,5.59-5.59h389.79c3.09,0,5.59,2.5,5.59,5.59h0c0,3.09-2.5,5.59-5.59,5.59Z"/>
      <g>
        <g class="cls-5">
          <path d="M211.86,56.01h-10.56v-6.27h-1.65v6.27h-10.56c-2,0-3.63,1.62-3.63,3.63s1.62,3.63,3.63,3.63h22.76c2,0,3.63-1.62,3.63-3.63s-1.62-3.63-3.63-3.63Z"/>
        </g>
        <g class="cls-5">
          <path d="M143.62,88.74h-.2v-11.99c0-2.46-2-4.46-4.46-4.46h-26.64c-2.46,0-4.46,2-4.46,4.46v11.99h-.2c-6.92,0-12.53,5.61-12.53,12.53v19.91h61.03v-19.91c0-6.92-5.61-12.53-12.53-12.53Z"/>
        </g>
        <g class="cls-5">
          <path d="M257.61,88.74h.2v-11.99c0-2.46,2-4.46,4.46-4.46h26.64c2.46,0,4.46,2,4.46,4.46v11.99h.2c6.92,0,12.53,5.61,12.53,12.53v19.91h-61.03v-19.91c0-6.92,5.61-12.53,12.53-12.53Z"/>
        </g>
        <g class="cls-2">
          <path class="cls-21" d="M325.01,92.12l-13.23-32.6c-1.36-4.1-4.7-6.79-8.43-6.79H97.92c-3.73,0-7.08,2.7-8.43,6.79l-13.23,32.6c-1.25,3.76,1.11,7.82,4.53,7.82h239.69c3.43,0,5.78-4.06,4.53-7.82Z"/>
        </g>
        <g class="cls-16">
          <path class="cls-7" d="M188.61,45.9c-4.53.06-9.04.13-13.52.22l-99.17,72.8c-.04.21.92-.81.88-.6,4.58-.34,4.94,1.65,9.58,1.33l102.23-73.76Z"/>
        </g>
        <path class="cls-14" d="M41.04,94.67c-7.88.04-15.76.07-23.64.11-4.85.02-9.46,2.05-12.75,5.61h0c-2.98,3.23-4.64,7.46-4.64,11.86h0c0,6.49,4.5,12.1,10.83,13.55,2.08.48,4.25.91,6.51,1.3,7.72,1.31,14.69,1.69,20.59,1.63,3.52-3.41,5.75-5.58,9.28-8.99.22-4.79.18-10.14-.31-15.93-.13-1.5-.28-2.95-.45-4.37-.33-2.73-2.66-4.77-5.41-4.76Z"/>
        <path class="cls-11" d="M37.24,98.39c-6.16.03-12.32.05-18.47.08-3.79.02-7.4,1.61-9.97,4.39h0c-2.33,2.52-3.63,5.83-3.63,9.27h0c0,5.04,3.46,9.44,8.37,10.57,1.65.38,3.38.73,5.18,1.03,6.03,1.02,11.48,1.32,16.09,1.27,3.05-3.38,5.06-5.94,7.25-9.23.17-3.75.14-5.72-.24-10.24-.1-1.16-.22-2.29-.35-3.39-.26-2.14-2.07-3.75-4.23-3.74Z"/>
        <path class="cls-14" d="M360.23,94.67c7.88.04,15.76.07,23.64.11,4.85.02,9.46,2.05,12.75,5.61h0c2.98,3.23,4.64,7.46,4.64,11.86h0c0,6.49-4.5,12.1-10.83,13.55-2.08.48-4.25.91-6.51,1.3-7.72,1.31-14.69,1.69-20.59,1.63-3.52-3.41-5.75-5.58-9.28-8.99-.22-4.79-.18-10.14.31-15.93.13-1.5.28-2.95.45-4.37.33-2.73,2.66-4.77,5.41-4.76Z"/>
        <path class="cls-11" d="M364.03,98.39c6.16.03,12.32.05,18.47.08,3.79.02,7.4,1.61,9.97,4.39h0c2.33,2.52,3.63,5.83,3.63,9.27h0c0,5.04-3.46,9.44-8.37,10.57-1.65.38-3.38.73-5.18,1.03-6.03,1.02-11.48,1.32-16.09,1.27-3.05-3.38-5.06-5.94-7.25-9.23-.17-3.75-.14-5.72.24-10.24.1-1.16.22-2.29.35-3.39.26-2.14,2.07-3.75,4.23-3.74Z"/>
        <path class="cls-12" d="M15.49,210.56l-1.71,3.59,2.62,73.51s5.73.86,5.73,0v-77.1h-6.64Z"/>
        <path class="cls-12" d="M385.78,210.56l1.71,3.59-2.62,73.51s-5.73.86-5.73,0v-77.1h6.64Z"/>
        <path class="cls-19" d="M23.5,239.69h41.21c3.92,0,7.1,3.18,7.1,7.1v114.86c0,6.35-5.16,11.51-11.51,11.51H25.51c-5.03,0-9.11-4.08-9.11-9.11v-117.26c0-3.92,3.18-7.1,7.1-7.1Z" transform="translate(88.22 612.85) rotate(180)"/>
        <g>
          <rect class="cls-4" x="27.5" y="262.2" width="2.31" height="110.86"/>
          <rect class="cls-4" x="37.8" y="262.2" width="2.31" height="110.86"/>
          <rect class="cls-4" x="48.11" y="262.2" width="2.31" height="110.86"/>
          <rect class="cls-4" x="58.41" y="262.2" width="2.31" height="110.86"/>
        </g>
        <path class="cls-12" d="M19.78,239.69h56.54v46.69c0,7.38-5.99,13.38-13.38,13.38h-29.78c-7.38,0-13.38-5.99-13.38-13.38v-46.69h0Z"/>
        <path class="cls-19" d="M338.56,239.69h34.8c6.35,0,11.51,5.16,11.51,11.51v114.86c0,3.92-3.18,7.1-7.1,7.1h-41.21c-3.92,0-7.1-3.18-7.1-7.1v-117.26c0-5.03,4.08-9.11,9.11-9.11Z"/>
        <g>
          <rect class="cls-4" x="371.46" y="262.2" width="2.31" height="110.86" transform="translate(745.23 635.25) rotate(180)"/>
          <rect class="cls-4" x="361.16" y="262.2" width="2.31" height="110.86" transform="translate(724.62 635.25) rotate(180)"/>
          <rect class="cls-4" x="350.85" y="262.2" width="2.31" height="110.86" transform="translate(704.01 635.25) rotate(180)"/>
          <rect class="cls-4" x="340.55" y="262.2" width="2.31" height="110.86" transform="translate(683.41 635.25) rotate(180)"/>
        </g>
        <path class="cls-12" d="M338.33,239.69h29.78c7.38,0,13.38,5.99,13.38,13.38v46.69h-56.54v-46.69c0-7.38,5.99-13.38,13.38-13.38Z" transform="translate(706.45 539.45) rotate(180)"/>
        <path class="cls-19" d="M383.22,167.38l-7.83-5.75c-.06-5.03-.8-13.74-5.14-23.45-3.3-7.4-7.56-12.84-11.02-16.5-1.99-2.11-3.65-4.51-4.9-7.12-12.65-26.28-23.96-52.55-36.54-78.83-1.92-4.01-5.8-6.71-10.23-7.1-15.43-1.37-31.41-2.49-47.93-3.31-20.18-1-40.34-1.46-59-1.5h0c-.16,0-.32,0-.48,0-.09,0-.18,0-.27,0h0c-18.64.04-38.07.5-58.25,1.5-16.52.82-32.5,1.94-47.93,3.31-4.42.39-8.31,3.09-10.23,7.1-12.58,26.28-23.89,52.55-36.54,78.83-1.26,2.61-2.91,5.01-4.9,7.12-3.46,3.66-7.71,9.11-11.02,16.5-4.34,9.71-5.08,18.42-5.14,23.45l-7.83,5.75c-2.68,1.97-4.27,5.1-4.27,8.43v38.34c.78,2.18,1.56,4.36,2.33,6.54,1.08,3.02,1.64,6.2,1.65,9.4.02,10.29,1.56,23.69,7.58,37.86.02.04.04.09.06.13,3.01,7.06,10,11.59,17.68,11.59h315.11c7.68,0,14.66-4.54,17.68-11.59.02-.04.04-.09.06-.13,6.03-14.18,7.56-27.57,7.58-37.86,0-3.21.57-6.38,1.65-9.4.78-2.18,1.56-4.36,2.33-6.54v-38.34c0-3.33-1.59-6.46-4.27-8.43ZM331.4,105.01c-1.86,1.9-4.41,2.97-7.07,2.97H76.94c-3.47,0-6.76-1.82-8.57-4.93-1.61-2.76-1.71-6.15-.45-9.09l18.16-42.29c.5-1.16,1.21-2.21,2.1-3.1,1.86-1.86,4.39-2.91,7.02-2.91h210.86c2.63,0,5.16,1.05,7.02,2.91.89.89,1.6,1.94,2.1,3.1l18.25,42.49c1.59,3.7.78,7.98-2.03,10.85Z"/>
        <g class="cls-16">
          <path class="cls-7" d="M115.98,48.28l-39.13,28.74c-5.07,15.01-9.04,29.39-12.15,42.9l100.16-73.57c-16.69.43-32.99,1.08-48.88,1.93Z"/>
        </g>
        <g class="cls-16">
          <path class="cls-7" d="M201.48,119.03c4.78-.36,9.61-.71,14.47-1.04l91.47-67.19c-.96-2.56-1.94-5.09-2.92-7.56l-103.19,75.79c.06,0,.11,0,.17,0Z"/>
        </g>
        <g class="cls-16">
          <path class="cls-7" d="M325.17,65.67l-66.97,49.19h13.22l56.2-41.28c-.78-2.61-1.6-5.25-2.45-7.91Z"/>
        </g>
        <g class="cls-16">
          <path class="cls-7" d="M202.63,111.61l99.51-73.09c-1.13-1.41-2.62-2.44-4.29-2.97-4.57-.21-9.18-.4-13.81-.57-7.61-.12-15.22-.24-22.83-.37l-106.12,77.95c15.55-.49,31.4-.82,47.54-.94Z"/>
        </g>
        <path class="cls-12" d="M200.75,275.35H58.41v12.69l80.69,3.35c7.94.33,15.75,2.09,23.06,5.2,4.06,1.73,8.56,3.4,13.46,4.9,1.38.42,2.88.83,4.45,1.21,14.92,3.69,30.58,3.33,45.29-1.13.09-.03.19-.06.28-.09,4.9-1.5,9.4-3.17,13.46-4.9,7.31-3.11,15.12-4.87,23.06-5.2l80.69-3.35v-12.69h-142.11Z"/>
        <path class="cls-14" d="M354.33,114.55c-12.65-26.28-23.96-52.55-36.54-78.83-1.92-4.01-5.8-6.71-10.23-7.1-15.43-1.37-31.41-2.49-47.93-3.31-20.18-1-40.34-1.46-59-1.5h0c-.16,0-.32,0-.48,0-.09,0-.18,0-.27,0h0c-18.64.04-38.07.5-58.25,1.5-16.52.82-32.5,1.94-47.93,3.31-4.42.39-8.31,3.09-10.23,7.1-12.58,26.28-23.89,52.55-36.54,78.83-.26.53-.53,1.05-.82,1.57h309.03c-.29-.51-.57-1.03-.82-1.57ZM331.4,105.01c-1.86,1.9-4.41,2.97-7.07,2.97H76.94c-3.47,0-6.76-1.82-8.57-4.93-1.61-2.76-1.71-6.15-.45-9.09l18.16-42.29c.5-1.16,1.21-2.21,2.1-3.1,1.86-1.86,4.39-2.91,7.02-2.91h210.86c2.63,0,5.16,1.05,7.02,2.91.89.89,1.6,1.94,2.1,3.1l18.25,42.49c1.59,3.7.78,7.98-2.03,10.85Z"/>
        <path class="cls-20" d="M115.9,48.62c28.59-1.17,56.87-1.11,84.73-1.64,28.15.53,57.6.46,86.5,1.64,9.73.4,19.42.83,29.07,1.3l-.53-17.3c-2.09-2.26-4.96-3.71-8.11-3.99-15.43-1.37-31.41-2.49-47.93-3.31-20.18-1-40.34-1.46-59-1.5h0c-.16,0-.32,0-.48,0-.09,0-.18,0-.27,0h0c-18.64.04-38.07.5-58.25,1.5-16.52.82-32.5,1.94-47.93,3.31-2.82.25-5.41,1.44-7.42,3.3l.55,17.99c9.64-.47,19.33-.9,29.07-1.3Z"/>
        <path class="cls-24" d="M227.42,42.25c-.32-.61-.73-1.15-1.21-1.61-.29-.27-.6-.51-.93-.72-.11-.07-.22-.13-.34-.19-.81-.43-1.71-.66-2.65-.66h-43.32c-1.47,0-2.86.58-3.92,1.58-.1.09-.19.18-.28.28-.36.39-.67.83-.93,1.32l-4.31,8.32-1.12,2.16h64.45l-1.61-3.1-3.83-7.38Z"/>
        <rect class="cls-10" x="62.66" y="185.72" width="275.94" height="43.69"/>
        <rect class="cls-3" x="62.66" y="185.72" width="275.97" height="4.69"/>
        <rect class="cls-14" x="62.66" y="224.72" width="275.97" height="4.69"/>
        <path class="cls-22" d="M290.83,279.68l58.16,17.28c1.68.5,3.47-.34,4.16-1.95l2.46-5.7c.82-1.9-.21-4.1-2.19-4.69l-16.69-4.94h-45.9Z"/>
        <path class="cls-23" d="M191.25,44.32h18.79c.93,0,1.78-.53,2.22-1.38l2.3-4.43h-27.83l2.3,4.43c.44.85,1.3,1.38,2.22,1.38Z"/>
        <polygon class="cls-13" points="232.86 52.73 232.86 52.73 231.25 49.62 232.86 52.73"/>
        <path class="cls-13" d="M178.97,39.06c-1.47,0-2.86.58-3.92,1.58,1.06-1,2.45-1.58,3.92-1.58h0Z"/>
        <path class="cls-13" d="M225.28,39.92c.33.21.65.45.93.72-.29-.27-.6-.51-.93-.72Z"/>
        <polygon class="cls-13" points="168.41 52.73 168.41 52.73 169.53 50.56 168.41 52.73"/>
        <path class="cls-6" d="M174.77,40.92c-.36.39-.67.83-.93,1.32l-4.31,8.32,4.31-8.32c.25-.49.57-.93.93-1.32Z"/>
        <path class="cls-6" d="M222.29,39.06h0c.94,0,1.84.23,2.65.66-.81-.43-1.71-.66-2.65-.66Z"/>
        <path class="cls-6" d="M231.25,49.62l-3.83-7.38c-.32-.61-.73-1.15-1.21-1.61.48.45.89.99,1.21,1.61l3.83,7.38Z"/>
        <path class="cls-4" d="M169.53,50.56l4.31-8.32c.25-.49.57-.93.93-1.32.09-.1.18-.19.28-.28,1.06-1,2.45-1.58,3.92-1.58h43.32c.94,0,1.84.23,2.65.66.12.06.23.13.34.19.33.21.65.45.93.72.48.45.89.99,1.21,1.61l3.83,7.38,1.61,3.1h2.81l-6.62-12.27c-1.08-2-3.17-3.25-5.44-3.25h-45.95c-2.27,0-4.36,1.25-5.44,3.25l-6.62,12.27h2.81l1.12-2.16Z"/>
        <path class="cls-13" d="M315.19,51.67c-.5-1.16-1.21-2.21-2.1-3.1-1.86-1.86-4.39-2.91-7.02-2.91H95.2c-2.63,0-5.16,1.05-7.02,2.91-.89.89-1.6,1.94-2.1,3.1l-18.16,42.29c-1.26,2.94-1.17,6.33.45,9.09,1.82,3.11,5.1,4.93,8.57,4.93h247.39c2.66,0,5.21-1.07,7.07-2.97,2.82-2.87,3.62-7.16,2.03-10.85l-18.25-42.49Z"/>
        <path class="cls-13" d="M315.19,51.67c-.5-1.16-1.21-2.21-2.1-3.1-1.86-1.86-4.39-2.91-7.02-2.91H95.2c-2.63,0-5.16,1.05-7.02,2.91-.89.89-1.6,1.94-2.1,3.1l-18.16,42.29c-1.26,2.94-1.17,6.33.45,9.09,1.82,3.11,5.1,4.93,8.57,4.93h247.39c2.66,0,5.21-1.07,7.07-2.97,2.82-2.87,3.62-7.16,2.03-10.85l-18.25-42.49Z"/>
        <rect class="cls-4" x="59.96" y="122.33" width="2.68" height="21.66"/>
        <rect class="cls-4" x="59.96" y="218.58" width="2.68" height="21.8"/>
        <rect class="cls-4" x="338.6" y="218.58" width="2.68" height="21.7"/>
        <path class="cls-4" d="M45.7,136.57h16.97v86.09h-16.97c-6.5,0-11.78-5.28-11.78-11.78v-62.52c0-6.5,5.28-11.78,11.78-11.78Z"/>
        <path class="cls-23" d="M46.53,140.74h16.13v77.74h-16.13c-4.96,0-8.98-4.02-8.98-8.98v-59.78c0-4.96,4.02-8.98,8.98-8.98Z"/>
        <path class="cls-25" d="M37.55,212.5c0,3.3,2.68,5.98,5.98,5.98h19.13v-28.07h-25.11v22.09Z"/>
        <g class="cls-9">
          <path class="cls-24" d="M52.35,160.02h10.31v41.56h-10.31c-3.17,0-5.74-2.57-5.74-5.74v-30.08c0-3.17,2.57-5.74,5.74-5.74Z"/>
        </g>
        <path class="cls-24" d="M53.58,164.87h9.08v31.86h-9.08c-1.78,0-3.22-1.44-3.22-3.22v-25.42c0-1.78,1.44-3.22,3.22-3.22Z"/>
        <g class="cls-18">
          <path d="M44.37,140.75c-3.42,0-5.93,2.28-6.69,5.46.98-.47,2.28-.8,3.44-.8h14.63c1.62,0,2.93,1.31,2.93,2.93v63.79c0,1.23-1,2.23-2.23,2.23h-15.92c-1.08,0-1.95-.36-2.88-.77.1.54.35,1.51,1.08,2.48.23.31.98,1.25,2.34,1.87,1.09.5,2.07.56,2.63.55h18.96v-77.74h-18.3Z"/>
        </g>
        <rect class="cls-4" x="338.63" y="122.33" width="2.68" height="21.66"/>
        <path class="cls-13" d="M315.19,51.67c-.5-1.16-1.21-2.21-2.1-3.1-1.86-1.86-4.39-2.91-7.02-2.91H95.2c-2.63,0-5.16,1.05-7.02,2.91-.89.89-1.6,1.94-2.1,3.1l-18.16,42.29c-1.26,2.94-1.17,6.33.45,9.09,1.82,3.11,5.1,4.93,8.57,4.93h247.39c2.66,0,5.21-1.07,7.07-2.97,2.82-2.87,3.62-7.16,2.03-10.85l-18.25-42.49Z"/>
        <path class="cls-20" d="M171.66,279.68c0-2.81-31.67-5.09-34.48-5.09H49.71c-6.59,0-12.44-4.27-14.41-10.56-2.61-8.31-6.6-24.78-8.46-64.02-.56-11.76-.94-25.69-.85-41.49-.07,1.14-.11,2.19-.12,3.1l-7.83,5.75c-2.68,1.97-4.27,5.1-4.27,8.43v38.34c.78,2.18,1.56,4.36,2.33,6.54,1.08,3.02,1.64,6.2,1.65,9.4.02,10.29,1.56,23.69,7.58,37.87l.06.13c3,7.03,9.91,11.59,17.55,11.59"/>
        <path class="cls-20" d="M351.56,274.6c6.59,0,12.44-4.27,14.41-10.56,2.61-8.31,6.6-24.78,8.46-64.02.56-11.76.94-25.69.85-41.49.07,1.14.11,2.19.12,3.1l7.83,5.75c2.68,1.97,4.27,5.1,4.27,8.43v38.34c-.78,2.18-1.56,4.36-2.33,6.54-1.08,3.02-1.64,6.2-1.65,9.4-.02,10.29-1.56,23.69-7.58,37.87l-.06.13c-3,7.03-9.91,11.59-17.55,11.59h-102.21,2.36c0-2.81,1.05-5.09,3.85-5.09h89.24Z"/>
        <path class="cls-4" d="M359.23,121.67c-1.59-1.68-2.95-3.55-4.08-5.55H46.12c-1.13,2.01-2.5,3.88-4.08,5.55-.45.47-.91.98-1.38,1.51h319.95c-.47-.53-.93-1.04-1.38-1.51Z"/>
        <path class="cls-20" d="M351.68,279.66c6.6,0,12.45-5.18,14.42-12.81,1.19-4.59,2.66-11.23,4.09-21.58-7.2-.04-14.4-.08-21.6-.12H52.7c-7.2.04-14.4.08-21.6.12,1.43,10.36,2.9,17,4.09,21.58,1.97,7.63,7.82,12.81,14.42,12.81h302.07Z"/>
        <rect class="cls-15" x="62.66" y="229.41" width="275.97" height="4.5"/>
        <path class="cls-6" d="M302.03,239.79h36.58v-10.38H62.66v10.38h36.42c5.65,0,10.88,2.39,14.58,6.35h173.8c3.7-3.96,8.93-6.35,14.58-6.35Z"/>
        <path class="cls-14" d="M367.16,259.08c-1.99,7.52-7.87,12.62-14.51,12.62H48.65c-6.64,0-12.53-5.1-14.51-12.62-.86-3.27-1.88-7.61-2.92-13.61-.4,0,.4,0,0,0,1.44,10.21,1.72,16.75,2.92,21.27,1.99,7.52,8.49,12.93,15.13,12.93l303.41-.03c6.64,0,12.5-5.39,14.49-12.91,1.19-4.52,1.48-11.06,2.92-21.27-.4,0,.4,0,0,0-1.04,6.01-2.05,10.34-2.92,13.61Z"/>
        <path class="cls-1" d="M200.96,229.41H62.66v11.29h36.42c8.85,0,16.65,4.79,19.19,13.26l7.72,25.72h148.83l8.07-25.91c2.61-8.38,10.36-13.07,19.13-13.07h36.58v-11.29h-137.65Z"/>
        <path class="cls-19" d="M293.03,240.7c-8.85,0-16.65,4.79-19.19,13.26l-3.24,10.78c-.89,2.95-3.61,4.98-6.69,4.98h-126.55c-3.08,0-5.8-2.02-6.69-4.98l-3.24-10.78c-2.54-8.47-10.35-13.26-19.19-13.26h-9.15c8.85,0,16.65,4.79,19.19,13.26l7.72,25.72h9.15l-1.61-5.36h134.18l-1.61,5.36h9.15l7.72-25.72c2.55-8.47,10.35-13.26,19.19-13.26h-9.15Z"/>
        <rect class="cls-3" x="147.77" y="240.7" width="105.77" height="21.88" rx="4.68" ry="4.68"/>
        <path class="cls-13" d="M117.16,246.46l10.2,27.87h146.12l10.46-28.02c.61-1.63,1.66-3.02,2.97-4.05H114.03c1.4,1.05,2.5,2.49,3.13,4.2Z"/>
        <path class="cls-22" d="M52.79,259.58c0-1.02.83-1.85,1.85-1.85s1.85.83,1.85,1.85-.83,1.85-1.85,1.85-1.85-.83-1.85-1.85Z"/>
        <circle class="cls-22" cx="346.63" cy="259.58" r="1.85"/>
        <path class="cls-3" d="M370.97,240.28h-78.31c-3.89,0-7.37,2.4-8.72,6.03l-10.46,28.02H127.36l-10.2-27.87c-1.34-3.65-4.83-6.08-8.74-6.08H30.31l.9,5.36h60.52c7.88,0,15.06,4.55,18.42,11.67l10.63,22.51h159.5l10.82-22.63c3.38-7.07,10.51-11.57,18.35-11.58l60.64-.08.89-5.36Z"/>
        <rect class="cls-24" x="194.4" y="267.56" width="12.47" height="12.47" rx="1.91" ry="1.91"/>
        <rect class="cls-12" x="195.71" y="268.87" width="9.86" height="9.86" rx="1.91" ry="1.91"/>
        <path class="cls-17" d="M353.42,284.63l-16.02-4.74h0l-.67-.2h-45.9l3.62,1.08c5.29.82,11.94,1.31,19.17,1.31.05,0,.11,0,.16,0,11.07-.01,22.09,1.52,32.71,4.67l9.07,2.69.05-.12c.82-1.9-.2-4.1-2.19-4.69Z"/>
        <path class="cls-4" d="M350.42,136.57h16.97v86.09h-16.97c-6.5,0-11.78-5.28-11.78-11.78v-62.52c0-6.5,5.28-11.78,11.78-11.78Z" transform="translate(706.02 359.23) rotate(180)"/>
        <path class="cls-23" d="M347.62,140.74h16.13v77.74h-16.13c-4.96,0-8.98-4.02-8.98-8.98v-59.78c0-4.96,4.02-8.98,8.98-8.98Z" transform="translate(702.38 359.23) rotate(180)"/>
        <path class="cls-25" d="M363.75,212.45c0,3.34-2.7,6.04-6.04,6.04h-19.07v-28.07h25.11v22.04Z"/>
        <g class="cls-9">
          <path class="cls-24" d="M344.38,160.02h10.31v41.56h-10.31c-3.17,0-5.74-2.57-5.74-5.74v-30.08c0-3.17,2.57-5.74,5.74-5.74Z" transform="translate(693.32 361.6) rotate(180)"/>
        </g>
        <path class="cls-24" d="M341.86,164.87h9.08v31.86h-9.08c-1.78,0-3.22-1.44-3.22-3.22v-25.42c0-1.78,1.44-3.22,3.22-3.22Z" transform="translate(689.58 361.6) rotate(180)"/>
        <g class="cls-18">
          <path d="M357.72,140.75c3.42,0,5.61,2.38,6.01,5.5-.98-.47-2.38-.84-3.54-.84h-14.63c-1.62,0-2.93,1.31-2.93,2.93v63.79c0,1.23,1,2.23,2.23,2.23h15.8c1.08,0,2.05-.32,2.97-.72-.59,2.81-2.96,4.86-6.15,4.86h-18.85v-77.74h19.08Z"/>
        </g>
        <g>
          <path class="cls-4" d="M200.63,25.95h0c2.62,0,4.75,2.13,4.75,4.75v1.99h-9.49v-1.99c0-2.62,2.13-4.75,4.75-4.75Z"/>
          <path class="cls-4" d="M200.46,28.74c-.4,0-.72-.32-.72-.72V.72c0-.4.32-.72.72-.72s.72.32.72.72v27.3c0,.4-.32.72-.72.72Z"/>
        </g>
        <path class="cls-4" d="M333.44,94.16l-18.25-42.49c-.5-1.16-1.21-2.21-2.1-3.1-1.86-1.86-4.39-2.91-7.02-2.91H95.2c-2.63,0-5.16,1.05-7.02,2.91-.89.89-1.6,1.94-2.1,3.1l-18.16,42.29c-1.26,2.94-1.17,6.33.45,9.09,1.82,3.11,5.1,4.93,8.57,4.93h247.39c2.66,0,5.21-1.07,7.07-2.97,2.82-2.87,3.62-7.16,2.03-10.85ZM320.48,99.95H80.79c-3.43,0-5.78-4.06-4.53-7.82l13.23-32.6c1.36-4.1,4.7-6.79,8.43-6.79h205.43c3.73,0,7.08,2.7,8.43,6.79l13.23,32.6c1.25,3.76-1.11,7.82-4.53,7.82Z"/>
        <path class="cls-13" d="M315.19,51.67c-.5-1.16-1.21-2.21-2.1-3.1-1.86-1.86-4.39-2.91-7.02-2.91H95.2c-2.63,0-5.16,1.05-7.02,2.91-.89.89-1.6,1.94-2.1,3.1l-18.16,42.29c-1.26,2.94-1.17,6.33.45,9.09,1.82,3.11,5.1,4.93,8.57,4.93h247.39c2.66,0,5.21-1.07,7.07-2.97,2.82-2.87,3.62-7.16,2.03-10.85l-18.25-42.49Z"/>
        <path class="cls-14" d="M213.35,154.68h-25.42c-4.94,0-8.95-4-8.95-8.95h43.31c0,4.94-4,8.95-8.95,8.95Z"/>
        <path class="cls-3" d="M213.35,152.99h-25.42c-4.36,0-7.99-3.13-8.78-7.26h-.16c0,4.94,4,8.95,8.95,8.95h25.42c4.94,0,8.95-4,8.95-8.95h-.16c-.79,4.13-4.42,7.26-8.78,7.26Z"/>
        <path class="cls-4" d="M186.56,149.13h28.15c3.04,0,5.76-1.38,7.58-3.53h-43.31c1.82,2.16,4.54,3.53,7.58,3.53Z"/>
        <rect class="cls-14" x="178.98" y="138.29" width="43.31" height="8.95" rx="2.33" ry="2.33"/>
        <path class="cls-10" d="M192.76,140.74h15.74c2.96,0,5.36,2.4,5.36,5.36v1.14h-26.46v-1.14c0-2.96,2.4-5.36,5.36-5.36Z"/>
        <circle class="cls-4" cx="217.87" cy="143.61" r="1.25"/>
      </g>
    </g>
  </g>
</svg>