<?xml version="1.0" encoding="UTF-8"?>
<svg id="Layer_2" data-name="Layer 2" xmlns="http://www.w3.org/2000/svg" viewBox="0 0 442.91 340">
  <defs>
    <style>
      .cls-1 {
        opacity: .03;
      }

      .cls-2 {
        fill: #bf303a;
      }

      .cls-3 {
        opacity: .75;
      }

      .cls-4 {
        opacity: .05;
      }

      .cls-5 {
        fill: #b02d36;
      }

      .cls-6 {
        fill: #d9d9d9;
      }

      .cls-7 {
        opacity: .3;
      }

      .cls-8 {
        fill: #fff;
      }

      .cls-9 {
        fill: #383838;
      }

      .cls-10 {
        fill: #131313;
      }

      .cls-11 {
        fill: #68b3bf;
      }

      .cls-12 {
        fill: #c7323b;
      }

      .cls-13 {
        fill: none;
      }

      .cls-14 {
        fill: #d43540;
      }

      .cls-15 {
        fill: #7d262d;
      }

      .cls-16 {
        fill: #404040;
      }

      .cls-17 {
        fill: #3b3b3b;
      }

      .cls-18 {
        fill: #bfbfbf;
      }

      .cls-19 {
        fill: #454545;
      }

      .cls-20 {
        fill: #8c2a32;
      }

      .cls-21 {
        opacity: .15;
      }

      .cls-22 {
        fill: #d93642;
      }

      .cls-23 {
        fill: #b82e37;
      }

      .cls-24 {
        fill: #ad2c34;
      }

      .cls-25 {
        fill: #333;
      }

      .cls-26 {
        fill: #404040;
      }

      .cls-27 {
        fill: #63aab6;
      }

      .cls-28 {
        fill: #cc333d;
      }

      .cls-29 {
        fill: #d63541;
      }

      .cls-30 {
        fill: #bf3039;
      }

      .cls-31 {
        opacity: .1;
      }
    </style>
  </defs>
  <g id="Layer_1-2" data-name="Layer 1">
    <g>
      <path class="cls-10" d="M436.74,340H6.17c-3.41,0-6.17-2.76-6.17-6.17h0c0-3.41,2.76-6.17,6.17-6.17h430.57c3.41,0,6.17,2.76,6.17,6.17h0c0,3.41-2.76,6.17-6.17,6.17Z"/>
      <g>
        <path class="cls-28" d="M44.41,73.31c-7.96.04-15.92.07-23.88.11-4.89.02-9.56,2.08-12.88,5.67h0c-3.01,3.26-4.69,7.54-4.69,11.98h0c0,6.56,4.55,12.22,10.94,13.69,2.1.48,4.29.92,6.58,1.31,7.8,1.32,14.84,1.7,20.8,1.65,3.56-3.45,5.81-5.63,9.37-9.08.22-4.84.18-10.24-.32-16.09-.13-1.51-.28-2.98-.45-4.42-.33-2.76-2.69-4.82-5.47-4.81Z"/>
        <path class="cls-11" d="M40.57,77.07c-6.22.03-12.44.06-18.66.08-3.82.02-7.47,1.62-10.07,4.43h0c-2.36,2.55-3.66,5.89-3.66,9.36h0c0,5.09,3.5,9.53,8.46,10.67,1.67.38,3.41.74,5.23,1.05,6.09,1.03,11.59,1.33,16.25,1.29,3.08-3.41,5.11-6,7.32-9.33.17-3.78.14-5.77-.25-10.34-.1-1.17-.22-2.31-.35-3.43-.26-2.16-2.1-3.79-4.28-3.78Z"/>
        <path class="cls-28" d="M398.5,73.31c7.96.04,15.92.07,23.88.11,4.89.02,9.56,2.08,12.88,5.67h0c3.01,3.26,4.69,7.54,4.69,11.98h0c0,6.56-4.55,12.22-10.94,13.69-2.1.48-4.29.92-6.58,1.31-7.8,1.32-14.84,1.7-20.8,1.65-3.56-3.45-5.81-5.63-9.37-9.08-.22-4.84-.18-10.24.32-16.09.13-1.51.28-2.98.45-4.42.33-2.76,2.69-4.82,5.47-4.81Z"/>
        <path class="cls-11" d="M402.34,77.07c6.22.03,12.44.06,18.66.08,3.82.02,7.47,1.62,10.07,4.43h0c2.36,2.55,3.66,5.89,3.66,9.36h0c0,5.09-3.5,9.53-8.46,10.67-1.67.38-3.41.74-5.23,1.05-6.09,1.03-11.59,1.33-16.25,1.29-3.08-3.41-5.11-6-7.32-9.33-.17-3.78-.14-5.77.25-10.34.1-1.17.22-2.31.35-3.43.26-2.16,2.1-3.79,4.28-3.78Z"/>
        <rect class="cls-25" x="78.95" y="276.29" width="284.15" height="9.89"/>
        <g>
          <path class="cls-19" d="M31.03,192.19h43.07c4.33,0,7.85,3.52,7.85,7.85v120.98c0,7.02-5.7,12.71-12.71,12.71h-35.99c-5.55,0-10.06-4.51-10.06-10.06v-123.64c0-4.33,3.52-7.85,7.85-7.85Z" transform="translate(105.13 525.93) rotate(180)"/>
          <g>
            <rect class="cls-16" x="34.95" y="216.07" width="2.45" height="117.56"/>
            <rect class="cls-16" x="45.87" y="216.07" width="2.45" height="117.56"/>
            <rect class="cls-16" x="56.8" y="216.07" width="2.45" height="117.56"/>
            <rect class="cls-16" x="67.73" y="216.07" width="2.45" height="117.56"/>
          </g>
        </g>
        <g>
          <path class="cls-19" d="M371.02,192.19h35.99c7.02,0,12.71,5.7,12.71,12.71v120.98c0,4.33-3.52,7.85-7.85,7.85h-43.07c-4.33,0-7.85-3.52-7.85-7.85v-123.64c0-5.55,4.51-10.06,10.06-10.06Z"/>
          <g>
            <rect class="cls-16" x="405.51" y="216.07" width="2.45" height="117.56" transform="translate(813.47 549.69) rotate(180)"/>
            <rect class="cls-16" x="394.58" y="216.07" width="2.45" height="117.56" transform="translate(791.61 549.69) rotate(180)"/>
            <rect class="cls-16" x="383.66" y="216.07" width="2.45" height="117.56" transform="translate(769.76 549.69) rotate(180)"/>
            <rect class="cls-16" x="372.73" y="216.07" width="2.45" height="117.56" transform="translate(747.91 549.69) rotate(180)"/>
          </g>
        </g>
        <g class="cls-7">
          <path d="M183.75,18.02l4.39,5.2c2.29,2.71,5.66,4.28,9.2,4.28h10.86c-1.53.51-2.63,1.95-2.63,3.65,0,2.13,1.72,3.85,3.85,3.85h24.14c2.13,0,3.85-1.72,3.85-3.85,0-1.7-1.1-3.14-2.63-3.65h9.39c3,0,5.9-1.12,8.12-3.15l6.94-6.33h-75.48Z"/>
        </g>
        <g class="cls-7">
          <path d="M277.51,66.65h.24v-14.01c0-2.88,2.33-5.22,5.22-5.22h31.14c2.88,0,5.22,2.33,5.22,5.22v14.01h.24c8.09,0,14.65,6.56,14.65,14.65v23.27h-71.34v-23.27c0-8.09,6.56-14.65,14.65-14.65Z"/>
        </g>
        <g class="cls-7">
          <path d="M165.79,66.65h-.24v-14.01c0-2.88-2.33-5.22-5.22-5.22h-31.14c-2.88,0-5.22,2.33-5.22,5.22v14.01h-.24c-8.09,0-14.65,6.56-14.65,14.65v23.27h71.34v-23.27c0-8.09-6.56-14.65-14.65-14.65Z"/>
        </g>
        <g class="cls-3">
          <path class="cls-27" d="M345.17,34.41c-.59-2.7-2.85-4.72-5.61-5.01-35.43-3.74-75.73-7.04-118.45-7.04s-83.09,3.3-118.52,7.04c-2.76.29-5.02,2.31-5.61,5.01-3.25,14.77-5.49,29.55-8.74,44.32-.57,2.61,1.54,5.04,4.21,4.84,19.32-1.43,39.31-2.54,59.95-3.28,22.62-.81,44.52-1.1,65.62-.97v.05c1.02-.01,2.05-.02,3.08-.03,1.03,0,2.06.02,3.08.03v-.05c21.11-.13,43,.16,65.62.97,20.64.73,40.63,1.85,59.95,3.28,2.68.2,4.79-2.23,4.21-4.84-3.25-14.77-5.56-29.55-8.8-44.32Z"/>
        </g>
        <g class="cls-21">
          <path class="cls-8" d="M113.91,16.73l-43.24,31.76c-5.6,16.59-9.99,32.48-13.42,47.4L167.92,14.6c-18.44.48-36.45,1.2-54.01,2.13Z"/>
        </g>
        <g class="cls-21">
          <path class="cls-8" d="M226.44,94.91c5.29-.4,10.62-.78,15.98-1.15l93.18-68.49c-1.07-2.83-2.14-5.62-3.23-8.35l-106.12,78c.06,0,.13,0,.19,0Z"/>
        </g>
        <g class="cls-21">
          <path class="cls-8" d="M351.37,48.67l-57.43,41.64h14.6l45.53-32.9c-.87-2.89-1.77-5.8-2.71-8.74Z"/>
        </g>
        <g class="cls-21">
          <path class="cls-8" d="M214.93,96.49L323.93,15.89c-1.25-1.56-27.43-10.94-35.84-11.08l-125.7,92.72c17.18-.55,34.7-.9,52.53-1.04Z"/>
        </g>
        <g class="cls-21">
          <path class="cls-8" d="M199.67,14.1c-5.01.06-9.99.15-14.94.25L60.64,105.49c-.05.23-.1.47-.15.7,5.06-.38,10.16-.74,15.29-1.1L199.67,14.1Z"/>
        </g>
        <path class="cls-19" d="M364.56,83.37c-3.5-19.2-6.99-38.39-10.49-57.59-.64-3.51-3.07-6.13-6.04-6.51-38.16-4.86-80.56-8.04-126.58-8.04s-88.42,3.18-126.58,8.04c-2.97.38-5.4,3-6.04,6.51-3.5,19.2-6.99,38.39-10.49,57.59-.62,3.39,1.66,6.55,4.54,6.29,20.8-1.85,42.34-3.3,64.57-4.26,24.37-1.05,47.95-1.42,70.68-1.26v.06c1.1-.01,2.21-.02,3.32-.03,1.11.01,2.22.02,3.32.03v-.06c22.73-.17,46.31.21,70.68,1.26,22.23.95,43.76,2.41,64.57,4.26,2.88.26,5.16-2.9,4.54-6.29ZM349.76,83.58c-19.32-1.43-39.31-2.54-59.95-3.28-22.62-.81-44.52-1.1-65.62-.97v.05c-1.02-.01-2.05-.02-3.08-.03-1.03,0-2.06.02-3.08.03v-.05c-21.11-.13-43,.16-65.62.97-20.64.73-40.63,1.85-59.95,3.28-2.68.2-4.79-2.23-4.21-4.84,3.25-14.77,5.49-29.55,8.74-44.32.59-2.7,2.85-4.72,5.61-5.01,35.43-3.74,75.8-7.04,118.52-7.04s83.02,3.3,118.45,7.04c2.76.29,5.02,2.31,5.61,5.01,3.25,14.77,5.56,29.55,8.8,44.32.57,2.61-1.54,5.04-4.21,4.84Z"/>
        <path class="cls-28" d="M420.11,146.37l-1.29-6.3c-2.58-12.61-8.58-24.27-17.34-33.7l-.4-.43c-5.86-6.3-10.41-13.7-13.38-21.78l-6.78-18.42c-5.59-15.19-12.6-29.82-20.95-43.69-.93-1.54-1.86-3.08-2.78-4.63-3.19-5.31-8.11-9.41-13.97-11.4-.2-.07-.4-.13-.61-.2C324.13,0,221.45,0,221.45,0c0,0-102.68,0-121.16,5.83-.2.06-.41.13-.61.2-5.86,2-10.78,6.1-13.97,11.4-.92,1.54-1.85,3.07-2.77,4.61-8.35,13.88-15.37,28.51-20.96,43.71l-6.78,18.42c-2.97,8.07-7.52,15.48-13.38,21.78l-.4.43c-8.76,9.43-14.76,21.08-17.34,33.69l-1.29,6.3c-1.93,9.43-2.5,19.09-1.69,28.68l6.41,76.19c.53,6.31,2.84,12.34,6.69,17.37,0,.01.02.02.03.04.03.04.07.09.1.13,4.34,5.62,11.08,8.86,18.18,8.86h337.9c7.1,0,13.83-3.24,18.18-8.86.03-.04.07-.09.1-.13.03-.04.07-.09.1-.13,3.83-5.03,6.1-11.08,6.63-17.38l6.4-76.08c.81-9.59.24-19.25-1.69-28.68ZM355.48,88.48c-20.12-1.64-40.95-2.93-62.45-3.78-23.57-.93-46.37-1.26-68.36-1.12v.05c-1.07-.01-2.14-.02-3.21-.03-1.07,0-2.14.02-3.21.03v-.05c-21.99-.15-44.79.19-68.36,1.12-21.5.85-42.33,2.13-62.45,3.78-2.79.23-4.99-2.57-4.39-5.58,3.38-17.02,6.76-34.05,10.14-51.07.62-3.11,2.97-5.44,5.84-5.77,36.91-4.31,77.92-7.13,122.43-7.13s85.52,2.82,122.43,7.13c2.87.34,5.23,2.66,5.84,5.77,3.38,17.02,6.76,34.04,10.14,51.07.6,3.01-1.6,5.8-4.39,5.58Z"/>
        <path class="cls-22" d="M401.08,105.94c-5.86-6.3-10.41-13.7-13.38-21.78l-6.78-18.42c-5.59-15.19-12.6-29.82-20.95-43.69-.93-1.54-1.86-3.08-2.78-4.63-3.19-5.31-8.11-9.41-13.97-11.4-.2-.07-.4-.13-.61-.2C324.13,0,221.45,0,221.45,0c0,0-102.68,0-121.16,5.83-.2.06-.41.13-.61.2-5.86,2-10.78,6.1-13.97,11.4-.92,1.54-1.85,3.07-2.77,4.61-8.35,13.88-15.37,28.51-20.96,43.71l-6.78,18.42c-2.97,8.07-7.52,15.48-13.38,21.78l-.4.43c-.91.98-1.79,1.98-2.64,3.01,2.94,2.81,5.89,5.62,8.83,8.43h347.67l8.83-8.43c-.85-1.03-1.73-2.03-2.64-3.01l-.4-.43ZM355.48,88.48c-20.12-1.64-40.95-2.93-62.45-3.78-23.57-.93-46.37-1.26-68.36-1.12v.05c-1.07-.01-2.14-.02-3.21-.03-1.07,0-2.14.02-3.21.03v-.05c-21.99-.15-44.79.19-68.36,1.12-21.5.85-42.33,2.13-62.45,3.78-2.79.23-4.99-2.57-4.39-5.58,3.38-17.02,6.76-34.05,10.14-51.07.62-3.11,2.97-5.44,5.84-5.77,36.91-4.31,77.92-7.13,122.43-7.13s85.52,2.82,122.43,7.13c2.87.34,5.23,2.66,5.84,5.77,3.38,17.02,6.76,34.04,10.14,51.07.6,3.01-1.6,5.8-4.39,5.58Z"/>
        <path class="cls-14" d="M227.35,127.55H67.06l-25.34,21,1.36,16.97c1,12.44,7.5,23.95,18,31.33.25.17.5.35.75.52,14.32,9.71,29.18,9.98,34.39,9.84h250.47c5.21.14,20.07-.13,34.39-9.84.25-.17.5-.35.75-.52,10.5-7.38,17-18.88,18-31.33l1.36-16.97-25.34-21h-148.5Z"/>
        <rect x="99.92" y="127.77" width="114.26" height=".59"/>
        <path class="cls-22" d="M352.35,124.21H90.56l-2.41,7.7,1.91,39.49c.33,6.73,2.81,13.18,7.09,18.39h0c5.95,7.25,14.84,11.45,24.23,11.45h200.16c9.38,0,18.27-4.2,24.23-11.45h0c4.28-5.21,6.76-11.65,7.09-18.39l1.91-39.49-2.41-7.7Z"/>
        <path class="cls-12" d="M284.07,173.69h-125.24c-3.99,0-7.86,1.44-10.87,4.07-.87.76-1.59,1.43-1.83,1.78h150.63c-.24-.35-.95-1.02-1.83-1.78-3.01-2.62-6.87-4.07-10.87-4.07Z"/>
        <path class="cls-30" d="M361.82,101.53c-37.7-8.15-101.85-9.2-140.36-9.2s-102.66,1.05-140.36,9.2c-11.19,2.42-23.96,9.2-33.47,16.29l52.3,10.24h243.07l52.3-10.24c-9.51-7.09-22.28-13.87-33.47-16.29Z"/>
        <path class="cls-28" d="M97.15,189.79h0c5.95,7.25,14.84,11.45,24.23,11.45h200.16c9.38,0,18.27-4.2,24.23-11.45h0c.89-1.08,1.69-2.22,2.42-3.4H94.72c.73,1.18,1.54,2.32,2.42,3.4Z"/>
        <path class="cls-13" d="M85.16,94.91l.82-9.61h-.18c-.53,2.98-1.09,5.9-1.63,8.74-.45,2.38-.92,4.83-1.38,7.34l9.82,76.57c.77,6.02,3.68,11.5,8.18,15.43l.12.1c1.49,1.29,3.11,2.45,4.81,3.46,3.76,2.23,8.09,3.4,12.53,3.4h206.42c4.44,0,8.78-1.18,12.53-3.4,1.7-1.01,3.32-2.17,4.81-3.46l.12-.1c4.51-3.93,7.41-9.41,8.19-15.43l9.82-76.57c-.46-2.51-.93-4.97-1.38-7.35-.54-2.84-1.1-5.76-1.63-8.74h-.05l-1.02,7.03-270.88,2.59Z"/>
        <path class="cls-13" d="M79.21,116.74c-9.53,0-19.09.59-28.54,1.75-.77.1-1.46.56-1.83,1.25-2.46,4.55-4.23,9.42-5.24,14.47-1.05,5.27-1.27,10.67-.65,16.04.09.75.51,1.4,1.16,1.79.66.39,1.44.44,2.14.15,4.78-1.97,8.6-3.97,12.29-5.91,3.73-1.96,7.58-3.98,12.44-5.98.48-.2.99-.3,1.52-.31l13.41-.21-2.95-23.01c-1.25-.02-2.5-.03-3.75-.03Z"/>
        <path class="cls-13" d="M127.21,134l.15-.07c3.44-1.67,6.82-3.55,10.04-5.6.69-.44,1.11-1.2,1.11-2.03,0-1.1-.74-2.06-1.8-2.33-16.18-4.13-32.81-6.52-49.44-7.1-.83-.03-1.67-.05-2.5-.07l2.94,22.95,16.21-.25c8.09-.15,16.14-2.05,23.29-5.51Z"/>
        <g class="cls-4">
          <path d="M414.61,198.24c-6.72-.13-12.82,3.89-15.38,10.1-2.09,5.08-4.43,10.34-7.05,15.74-1.1,2.27-.9,6.76-3.33,6.65-13.56-.61-319.9.46-334.14,2.02-2.42.27-2.89-6.4-3.99-8.67-2.62-5.4-4.95-10.66-7.05-15.74-2.56-6.22-8.66-10.23-15.38-10.1-1.74.03-3.49.07-5.22.13l4.44,52.86h0c.13,1.58.38,3.14.73,4.67.18.77.38,1.52.61,2.27.34,1.12.75,2.23,1.21,3.31.46,1.08.98,2.14,1.55,3.17.08.14.16.28.24.42.09.15.18.3.27.46.07.12.15.25.23.37.13.2.25.41.38.61.04.05.07.11.1.16.03.04.05.08.08.12.17.25.34.51.52.76.03.04.06.09.09.14.2.28.4.56.61.83.02.03.04.06.07.09,0,0,0,0,0,0,0,.01.02.02.03.04.03.04.07.09.1.13,0,0,0,0,0,0,.2.26.4.51.61.76.06.08.13.15.19.22.15.18.31.35.47.52.07.08.14.15.21.23.18.19.37.38.56.57.04.04.08.08.13.13.23.22.46.44.7.65.07.06.14.12.21.18.18.15.35.3.53.45.08.07.17.14.26.21.18.14.37.29.56.43.07.05.14.11.21.16.25.18.51.36.77.53.07.05.14.09.21.13.2.13.4.26.6.38.04.03.09.05.13.08.04.03.09.05.13.07.32.19.65.38.98.55.03.02.06.03.09.05.31.16.63.31.95.46.05.02.1.05.15.07.03.02.07.03.1.04.33.15.67.29,1.01.42.03.01.05.02.08.03.08.03.16.06.24.09.11.04.22.08.33.12h0c.42.15.84.29,1.27.41.42.12.84.23,1.26.33.21.05.43.09.64.14.43.09.86.16,1.29.22.65.09,1.31.16,1.97.2.44.03.88.04,1.33.04h20.45v-15.71c3.84-.79,7.77-1.19,11.73-1.19h273.53c3.96,0,7.89.41,11.73,1.19v15.71h20.45c.44,0,.89-.01,1.33-.04.66-.04,1.32-.1,1.97-.2.43-.06.86-.14,1.29-.22.21-.04.43-.09.64-.14.42-.1.85-.21,1.26-.33.43-.12.85-.27,1.27-.42h0c.11-.04.22-.08.33-.12.08-.03.16-.06.24-.09.03-.01.05-.02.08-.03.34-.13.68-.27,1.01-.42.03-.02.07-.03.1-.04.05-.02.1-.05.15-.07.32-.15.64-.3.95-.46.03-.02.06-.03.09-.05.33-.17.66-.36.98-.55.04-.03.09-.05.13-.07.04-.03.09-.05.13-.08.2-.12.4-.25.6-.38.07-.04.14-.09.21-.13.26-.17.52-.35.77-.53.07-.05.14-.11.21-.16.19-.14.37-.28.56-.42.09-.07.17-.14.26-.21.18-.15.36-.29.53-.45.07-.06.14-.12.21-.18.24-.21.47-.43.7-.65.04-.04.08-.08.13-.13.19-.18.37-.37.55-.56.07-.08.14-.15.21-.23.16-.17.31-.34.46-.52.06-.07.13-.15.19-.22.21-.25.41-.5.61-.76h0s.03-.04.04-.06c.02-.02.04-.05.06-.07,0,0,0,0,0,0,0-.01.02-.02.02-.03,0,0,0,0,0,0,.02-.03.05-.06.07-.09.21-.27.41-.55.61-.83.03-.04.06-.09.09-.14.18-.25.35-.5.52-.76.03-.04.05-.08.08-.12.04-.05.07-.11.1-.16.13-.2.26-.4.38-.61.08-.12.15-.25.23-.37.09-.15.18-.3.27-.46.08-.14.17-.28.24-.42.57-1.03,1.09-2.09,1.55-3.17.46-1.08.86-2.19,1.21-3.31.23-.75.43-1.51.61-2.27.35-1.53.6-3.09.73-4.67h0l4.44-52.86c-1.73-.05-3.49-.09-5.22-.13Z"/>
        </g>
        <path class="cls-13" d="M87.43,88.48c20.12-1.64,40.95-2.93,62.45-3.78,23.57-.93,46.37-1.26,68.36-1.12v.05c1.07-.01,2.14-.02,3.21-.03,1.07,0,2.14.02,3.21.03v-.05c21.99-.15,44.79.19,68.36,1.12,21.5.85,42.33,2.13,62.45,3.78,2.79.23,4.99-2.57,4.39-5.58-3.38-17.02-6.76-34.05-10.14-51.07-.62-3.11-2.97-5.44-5.84-5.77-36.91-4.31-77.92-7.13-122.43-7.13s-85.52,2.82-122.43,7.13c-2.87.34-5.23,2.66-5.84,5.77-3.38,17.02-6.76,34.04-10.14,51.07-.6,3.01,1.6,5.8,4.39,5.58Z"/>
        <path class="cls-22" d="M221.45,97.89c40.78,0,108.7,1.11,148.62,9.74,8.04,1.74,16.85,5.6,24.83,10.26l.38-.07c-9.51-7.09-22.28-13.87-33.47-16.29-37.7-8.15-101.85-9.2-140.36-9.2s-102.66,1.05-140.36,9.2c-11.19,2.42-23.96,9.2-33.47,16.29l.38.07c7.98-4.65,16.8-8.52,24.83-10.26,39.92-8.63,107.84-9.74,148.62-9.74Z"/>
        <path class="cls-24" d="M82.95,102.68c-.11-.86-.09-1.73.07-2.59.38-2.06.77-4.08,1.14-6.05.54-2.84.6-3.03,1.14-6.01-.23-.12-.51-.3-.79-.55-.35-.31-.59-.63-.76-.87-.11.62-.27,1.53-.48,2.64-.26,1.4-.47,2.44-.86,4.46-.32,1.66-.87,4.63-1.19,6.33-.16.86-.19,1.74-.07,2.61l1.58,12.34c.6,0,1.2.02,1.8.04l-1.58-12.34Z"/>
        <path class="cls-13" d="M349.73,31.83c-.62-3.11-2.97-5.44-5.84-5.77-36.91-4.31-77.92-7.13-122.43-7.13s-85.52,2.82-122.43,7.13c-2.87.34-5.23,2.66-5.84,5.77-3.38,17.02-6.76,34.04-10.14,51.07-.6,3.01,1.6,5.8,4.39,5.58,20.12-1.64,40.95-2.93,62.45-3.78,23.57-.93,46.37-1.26,68.36-1.12v.05c1.07-.01,2.14-.02,3.21-.03,1.07,0,2.14.02,3.21.03v-.05c21.99-.15,44.79.19,68.36,1.12,21.5.85,42.33,2.13,62.45,3.78,2.79.23,4.99-2.57,4.39-5.58-3.38-17.02-6.76-34.05-10.14-51.07Z"/>
        <path class="cls-13" d="M349.73,31.83c-.62-3.11-2.97-5.44-5.84-5.77-36.91-4.31-77.92-7.13-122.43-7.13s-85.52,2.82-122.43,7.13c-2.87.34-5.23,2.66-5.84,5.77-3.38,17.02-6.76,34.04-10.14,51.07-.6,3.01,1.6,5.8,4.39,5.58,20.12-1.64,40.95-2.93,62.45-3.78,23.57-.93,46.37-1.26,68.36-1.12v.05c1.07-.01,2.14-.02,3.21-.03,1.07,0,2.14.02,3.21.03v-.05c21.99-.15,44.79.19,68.36,1.12,21.5.85,42.33,2.13,62.45,3.78,2.79.23,4.99-2.57,4.39-5.58-3.38-17.02-6.76-34.05-10.14-51.07Z"/>
        <path class="cls-2" d="M47.28,277.03c-.42-.1-.85-.21-1.26-.33.42.12.84.23,1.26.33Z"/>
        <path class="cls-2" d="M32.83,266.67c-.43-.66-.84-1.33-1.22-2.02.38.69.79,1.36,1.22,2.02Z"/>
        <path class="cls-2" d="M42.97,275.58c-.79-.36-1.56-.76-2.3-1.2.74.44,1.51.84,2.3,1.2Z"/>
        <path class="cls-2" d="M52.51,277.62h0c-.44,0-.89-.01-1.33-.04.44.03.88.04,1.33.04Z"/>
        <path class="cls-2" d="M49.21,277.39c-.43-.06-.86-.14-1.29-.22.43.09.86.16,1.29.22Z"/>
        <path class="cls-2" d="M34.33,268.77s-.07-.09-.1-.13c.03.04.07.09.1.13,1.76,2.28,3.92,4.17,6.34,5.61-2.42-1.44-4.58-3.33-6.34-5.61Z"/>
        <path class="cls-2" d="M32.83,266.67c.43.66.89,1.3,1.37,1.93,0,.01.02.02.03.04,0-.01-.02-.02-.03-.04-.48-.63-.94-1.27-1.37-1.93Z"/>
        <path class="cls-28" d="M44.17,276.08c-.4-.16-.8-.32-1.2-.5.39.18.79.34,1.2.5Z"/>
        <path class="cls-28" d="M27.52,251.23h0c.13,1.58.38,3.14.73,4.67-.35-1.53-.6-3.09-.73-4.67h0Z"/>
        <path class="cls-28" d="M30.06,261.48c-.46-1.08-.86-2.19-1.21-3.31.34,1.12.75,2.23,1.21,3.31Z"/>
        <path class="cls-28" d="M28.85,258.17c-.23-.75-.43-1.51-.61-2.27.18.77.38,1.52.61,2.27Z"/>
        <polygon class="cls-24" points="421.97 160.58 421.84 158.68 396.9 151.35 396.4 153.06 421.97 160.58"/>
        <g class="cls-31">
          <path d="M137.17,125.83c-16.16-4.16-32.77-6.57-49.37-7.15-.92-.03-1.85-.06-2.77-.08h0c-.6-.01-1.19-.03-1.79-.04h0c-10.66-.16-21.4.42-31.99,1.74-1.33.17-2.51.98-3.15,2.17-2.53,4.71-4.33,9.75-5.37,14.97-1.08,5.45-1.31,11.04-.67,16.59.15,1.31.88,2.45,2.01,3.12.65.39,1.38.58,2.11.58.53,0,1.07-.11,1.58-.32,4.82-2,8.64-4.02,12.33-5.98,3.66-1.94,7.44-3.94,12.18-5.91.28-.11.57-.17.86-.18l14.57-.23h.7s15.87-.26,15.87-.26c8.27-.15,16.51-2.12,23.82-5.68l.15-.07c3.47-1.7,6.87-3.61,10.13-5.69,1.2-.77,1.92-2.09,1.92-3.53,0-1.92-1.28-3.58-3.12-4.05Z"/>
        </g>
        <g class="cls-31">
          <path d="M305.73,125.83c16.16-4.16,32.77-6.57,49.37-7.15.92-.03,1.85-.06,2.77-.08h0c.6-.01,1.19-.03,1.79-.04h0c10.66-.16,21.4.42,31.99,1.74,1.33.17,2.51.98,3.15,2.17,2.53,4.71,4.33,9.75,5.37,14.97,1.08,5.45,1.31,11.04.67,16.59-.15,1.31-.88,2.45-2.01,3.12-.65.39-1.38.58-2.11.58-.53,0-1.07-.11-1.58-.32-4.82-2-8.64-4.02-12.33-5.98-3.66-1.94-7.44-3.94-12.18-5.91-.28-.11-.57-.17-.86-.18l-14.57-.23h-.7s-15.87-.26-15.87-.26c-8.27-.15-16.51-2.12-23.82-5.68l-.15-.07c-3.47-1.7-6.87-3.61-10.13-5.69-1.2-.77-1.92-2.09-1.92-3.53,0-1.92,1.28-3.58,3.12-4.05Z"/>
        </g>
        <polygon class="cls-24" points="20.93 160.58 21.07 158.68 46 151.35 46.51 153.06 20.93 160.58"/>
        <rect class="cls-5" x="130.77" y="128.06" width="193.16" height="3.85"/>
        <g>
          <path class="cls-20" d="M139.4,126.31h0c0-1.5-1.02-2.82-2.47-3.19-13.48-3.44-30.26-6.45-49.63-7.12-13.71-.48-26.07.3-36.73,1.62-1.06.13-1.99.77-2.5,1.71-1.92,3.54-4.08,8.51-5.33,14.72-1.27,6.38-1.16,12.01-.67,16.32.25,2.17,2.51,3.49,4.53,2.66,9.64-3.96,15.08-7.93,24.73-11.89.38-.16.78-.24,1.19-.25l31.42-.49c8.2-.15,16.28-2.03,23.66-5.6.05-.02.1-.05.15-.07,3.79-1.84,7.17-3.77,10.13-5.64.95-.6,1.52-1.65,1.52-2.78Z"/>
          <g class="cls-4">
            <path class="cls-8" d="M72.51,140.89l31.42-.49c8.2-.15,16.28-2.03,23.66-5.6.05-.02.1-.05.15-.07,3.79-1.84,7.17-3.77,10.13-5.64.95-.6,1.52-1.65,1.52-2.78,0-.48-.11-.95-.3-1.36h-54.42c-3.54,0-6.89,1.56-9.17,4.27-4.83,5.76-11.67,14.15-13.32,16.18,2.76-1.42,5.68-2.84,9.13-4.26.38-.16.78-.24,1.19-.25Z"/>
          </g>
          <path class="cls-18" d="M87.86,128.06c-4.38,0-8.52,2.01-11.23,5.44l-6.13,7.77v.21c.27-.12.54-.23.82-.34.38-.16.78-.24,1.19-.25l31.42-.49c8.2-.15,16.28-2.03,23.66-5.6.05-.02.1-.05.15-.07,3.79-1.84,7.17-3.77,10.13-5.64.42-.26.76-.62,1.01-1.03h-51.02Z"/>
          <path class="cls-15" d="M46.16,138.29c1.24-6.21,3.41-11.18,5.33-14.72.51-.94,1.44-1.58,2.5-1.71,10.66-1.32,23.02-2.1,36.73-1.62,18.87.66,47.66,3.25,46.21,2.87-13.48-3.44-30.26-6.45-49.63-7.12-13.71-.48-26.07.3-36.73,1.62-1.06.13-1.99.77-2.5,1.71-1.92,3.54-4.08,8.51-5.33,14.72-1.27,6.38-1.16,12.01-.67,16.32.2,1.73,1.67,2.92,3.29,2.91-.37-4.11-.35-9.24.8-14.98Z"/>
          <path class="cls-6" d="M127.6,134.8s.1-.05.15-.07c1.04-.51,2.05-1.02,3.03-1.54h-33.71c-4.38,0-8.52,2.01-11.23,5.44l-1.63,2.07,19.73-.31c8.2-.15,16.28-2.03,23.66-5.6Z"/>
          <path class="cls-26" d="M45.33,154.17c-.74,0-1.47-.2-2.12-.59-1.14-.67-1.88-1.81-2.03-3.12-.64-5.56-.41-11.14.68-16.59,1.04-5.23,2.87-10.27,5.42-14.97.65-1.19,1.84-2.01,3.18-2.17,12.2-1.51,24.61-2.05,36.87-1.62,16.76.59,33.52,2.99,49.82,7.15,1.85.47,3.14,2.14,3.14,4.05,0,1.44-.72,2.76-1.94,3.53-3.28,2.08-6.72,4-10.22,5.69l-.15.07c-7.38,3.57-15.69,5.53-24.03,5.68l-31.42.49c-.3,0-.59.07-.87.18-4.78,1.97-8.6,3.97-12.29,5.91-3.73,1.96-7.58,3.98-12.44,5.98-.52.21-1.06.32-1.6.32ZM79.21,116.74c-9.53,0-19.09.59-28.54,1.75-.77.1-1.46.56-1.83,1.25-2.46,4.55-4.23,9.42-5.24,14.47-1.05,5.27-1.27,10.67-.65,16.04.09.75.51,1.4,1.16,1.79.66.39,1.44.44,2.14.15,4.78-1.97,8.6-3.97,12.29-5.91,3.73-1.96,7.58-3.98,12.44-5.98.48-.2.99-.3,1.52-.31l31.42-.49c8.09-.15,16.14-2.05,23.29-5.51l.15-.07c3.44-1.67,6.82-3.55,10.04-5.6.69-.44,1.11-1.2,1.11-2.03,0-1.1-.74-2.06-1.8-2.33-16.18-4.13-32.81-6.52-49.44-7.1-2.68-.09-5.37-.14-8.06-.14Z"/>
          <g class="cls-1">
            <path class="cls-8" d="M67.06,127.55c1.17-1.4.16-3.51-1.66-3.43-1.94.09-3.72.21-4.9.37-1.35.18-2.64.39-3.88.63-1,.19-1.87.79-2.41,1.65-1.23,1.95-2.58,4.52-3.6,7.69-1.17,3.64-1.54,6.92-1.61,9.45-.02.8.82,1.33,1.54.98l.07-.03c3.51-3.37,13.67-14.08,16.12-16.91.11-.13.21-.27.32-.4Z"/>
          </g>
          <path class="cls-26" d="M87.7,139.76l-2.94-22.95-.23-1.79c-.6-.01-1.2-.03-1.8-.04l.23,1.79,2.95,23.01.23,1.78,1.79-.03-.23-1.78Z"/>
        </g>
        <path class="cls-24" d="M360.49,93.7c-.59-3.06-.77-3.88-1.34-7.1-.17.25-.41.57-.77.89-.28.24-.55.42-.78.54.1.56.25,1.41.45,2.45.2,1.04.35,1.78.69,3.55.37,1.94.75,3.94,1.13,5.97.17.91.19,1.85.08,2.77l-9.64,75.18c-.77,6.02-3.68,11.5-8.19,15.43l-.12.1c-1.49,1.29-3.11,2.45-4.81,3.46-3.76,2.23-8.09,3.4-12.53,3.4H118.25c-4.44,0-8.78-1.18-12.53-3.4-1.7-1.01-3.32-2.17-4.81-3.46l-.12-.1c-4.51-3.93-7.41-9.41-8.18-15.43l-4.67-36.41-1.79.03,4.7,36.61c.83,6.45,3.95,12.33,8.78,16.54l.12.11c1.57,1.36,3.27,2.58,5.06,3.65,4.03,2.39,8.68,3.65,13.44,3.65h206.42c4.76,0,9.41-1.26,13.44-3.65,1.79-1.06,3.49-2.29,5.06-3.64l.12-.11c4.83-4.22,7.95-10.1,8.78-16.55l9.66-75.34c.12-.91.09-1.83-.07-2.73-.31-1.75-.86-4.76-1.17-6.41Z"/>
        <g>
          <path class="cls-20" d="M303.51,126.31h0c0-1.5,1.02-2.82,2.47-3.19,13.48-3.44,30.26-6.45,49.63-7.12,13.71-.48,26.07.3,36.73,1.62,1.06.13,1.99.77,2.5,1.71,1.92,3.54,4.08,8.51,5.33,14.72,1.27,6.38,1.16,12.01.67,16.32-.25,2.17-2.51,3.49-4.53,2.66-9.64-3.96-15.08-7.93-24.73-11.89-.38-.16-.78-.24-1.19-.25l-31.42-.49c-8.2-.15-16.28-2.03-23.66-5.6-.05-.02-.1-.05-.15-.07-3.79-1.84-7.17-3.77-10.13-5.64-.95-.6-1.52-1.65-1.52-2.78Z"/>
          <g class="cls-4">
            <path class="cls-8" d="M370.39,140.89l-31.42-.49c-8.2-.15-16.28-2.03-23.66-5.6-.05-.02-.1-.05-.15-.07-3.79-1.84-7.17-3.77-10.13-5.64-.95-.6-1.52-1.65-1.52-2.78,0-.48.11-.95.3-1.36h54.42c3.54,0,6.89,1.56,9.17,4.27,4.83,5.76,11.67,14.15,13.32,16.18-2.76-1.42-5.68-2.84-9.13-4.26-.38-.16-.78-.24-1.19-.25Z"/>
          </g>
          <path class="cls-18" d="M355.04,128.06c4.38,0,8.52,2.01,11.23,5.44l6.13,7.77v.21c-.27-.12-.54-.23-.82-.34-.38-.16-.78-.24-1.19-.25l-31.42-.49c-8.2-.15-16.28-2.03-23.66-5.6-.05-.02-.1-.05-.15-.07-3.79-1.84-7.17-3.77-10.13-5.64-.42-.26-.76-.62-1.01-1.03h51.02Z"/>
          <path class="cls-15" d="M396.75,138.29c-1.24-6.21-3.41-11.18-5.33-14.72-.51-.94-1.44-1.58-2.5-1.71-10.66-1.32-23.02-2.1-36.73-1.62-18.87.66-47.66,3.25-46.21,2.87,13.48-3.44,30.26-6.45,49.63-7.12,13.71-.48,26.07.3,36.73,1.62,1.06.13,1.99.77,2.5,1.71,1.92,3.54,4.08,8.51,5.33,14.72,1.27,6.38,1.16,12.01.67,16.32-.2,1.73-1.67,2.92-3.29,2.91.37-4.11.35-9.24-.8-14.98Z"/>
          <path class="cls-6" d="M315.31,134.8s-.1-.05-.15-.07c-1.04-.51-2.05-1.02-3.03-1.54h33.71c4.38,0,8.52,2.01,11.23,5.44l1.63,2.07-19.73-.31c-8.2-.15-16.28-2.03-23.66-5.6Z"/>
          <path class="cls-26" d="M395.97,153.85c-4.86-2-8.71-4.02-12.44-5.98-3.69-1.94-7.5-3.94-12.29-5.91-.28-.11-.57-.17-.87-.18l-31.42-.49c-8.35-.15-16.66-2.12-24.03-5.68l-.15-.07c-3.5-1.7-6.94-3.61-10.22-5.69-1.21-.77-1.94-2.09-1.94-3.53,0-1.92,1.29-3.58,3.14-4.05,16.3-4.16,33.06-6.57,49.82-7.15,12.27-.43,24.67.12,36.87,1.62,1.34.17,2.53.98,3.18,2.17,2.55,4.71,4.37,9.75,5.42,14.97,1.09,5.45,1.32,11.04.68,16.59-.15,1.31-.89,2.45-2.03,3.12-.66.39-1.39.59-2.12.59-.54,0-1.08-.11-1.6-.32ZM355.64,116.88c-16.63.58-33.26,2.97-49.44,7.1-1.06.27-1.8,1.23-1.8,2.33,0,.83.41,1.59,1.11,2.03,3.23,2.04,6.61,3.93,10.04,5.6l.15.07c7.15,3.46,15.2,5.36,23.29,5.51l31.42.49c.52,0,1.03.11,1.52.31,4.86,2,8.71,4.02,12.44,5.98,3.69,1.94,7.5,3.94,12.29,5.91.7.29,1.48.23,2.14-.15.65-.38,1.08-1.04,1.16-1.79.62-5.37.4-10.77-.65-16.04-1.01-5.05-2.77-9.92-5.24-14.47-.37-.69-1.06-1.16-1.83-1.25-9.44-1.17-19.01-1.75-28.54-1.75-2.69,0-5.38.05-8.06.14Z"/>
          <g class="cls-1">
            <path class="cls-8" d="M375.85,127.55c-1.17-1.4-.16-3.51,1.66-3.43,1.94.09,3.72.21,4.9.37,1.35.18,2.64.39,3.88.63,1,.19,1.87.79,2.41,1.65,1.23,1.95,2.58,4.52,3.6,7.69,1.17,3.64,1.54,6.92,1.61,9.45.02.8-.82,1.33-1.54.98l-.07-.03c-3.51-3.37-13.67-14.08-16.12-16.91-.11-.13-.21-.27-.32-.4Z"/>
          </g>
          <path class="cls-26" d="M355.2,139.76l2.94-22.95.23-1.79c.6-.01,1.2-.03,1.8-.04l-.23,1.79-2.95,23.01-.23,1.78-1.79-.03.23-1.78Z"/>
        </g>
        <polygon class="cls-23" points="97.05 220.71 345.33 220.71 350.13 233.5 92.24 233.5 97.05 220.71"/>
        <polygon class="cls-29" points="345.33 220.71 97.05 220.71 96.22 222.92 346.16 222.92 345.33 220.71"/>
        <g>
          <path class="cls-20" d="M98.42,221.4l-4.43,11.36h-39.28l-4.35-9.68c7.11-.73,12.55-1.08,20.46-1.4,10.06-.4,18.75-.63,27.59-.28Z"/>
          <path class="cls-15" d="M74.68,223.82c8.3-.33,15.67-.55,22.96-.41l.78-2.01c-8.84-.35-17.53-.12-27.59.28-7.92.31-13.35.66-20.46,1.4l4.35,9.68h2.89l-1.95-4.33c-.71-1.58.35-3.39,2.07-3.55,5.52-.51,10.38-.79,16.95-1.05Z"/>
          <g class="cls-4">
            <path class="cls-8" d="M96.73,225.73c-3.88.08-7.89.22-12.15.39-5.66.22-10.05.47-14.69.86-2.83.24-4.58,3.2-3.41,5.79h27.51l2.74-7.03Z"/>
          </g>
          <path class="cls-16" d="M94.5,233.5h-40.26l-4.97-11.06,1.02-.11c6.83-.7,12.19-1.07,20.51-1.4,10.73-.43,19.09-.62,27.65-.28l1.04.04-4.99,12.8ZM55.2,232.02h38.29l3.87-9.91c-8.15-.28-16.24-.09-26.49.32-7.86.31-13.08.66-19.39,1.29l3.73,8.3Z"/>
        </g>
        <g>
          <path class="cls-20" d="M344.49,221.4l4.43,11.36h39.28l4.35-9.68c-7.11-.73-12.55-1.08-20.46-1.4-10.06-.4-18.75-.63-27.59-.28Z"/>
          <path class="cls-15" d="M368.23,223.82c-8.3-.33-15.67-.55-22.96-.41l-.78-2.01c8.84-.35,17.53-.12,27.59.28,7.92.31,13.35.66,20.46,1.4l-4.35,9.68h-2.89l1.95-4.33c.71-1.58-.35-3.39-2.07-3.55-5.52-.51-10.38-.79-16.95-1.05Z"/>
          <g class="cls-4">
            <path class="cls-8" d="M346.17,225.73c3.88.08,7.89.22,12.15.39,5.66.22,10.05.47,14.69.86,2.83.24,4.58,3.2,3.41,5.79h-27.51l-2.74-7.03Z"/>
          </g>
          <path class="cls-16" d="M343.41,220.7l1.04-.04c8.56-.34,16.93-.14,27.65.28,8.32.33,13.69.7,20.51,1.4l1.02.11-4.97,11.06h-40.26l-4.99-12.8ZM391.44,223.71c-6.32-.63-11.53-.98-19.39-1.29-10.25-.41-18.34-.6-26.49-.32l3.87,9.91h38.29l3.73-8.3Z"/>
        </g>
        <path class="cls-17" d="M31.85,265.07c.09.15.18.3.27.46.07.12.15.25.23.37.13.2.25.41.38.61.04.05.07.11.1.16.03.04.05.08.08.12.17.25.34.51.52.76.03.04.06.09.09.14.2.28.4.56.61.83.02.03.04.06.07.09,0,0,0,0,0,0,0,.01.02.02.03.04.03.04.07.09.1.13,0,0,0,0,0,0,.2.26.4.51.61.76.06.08.13.15.19.22.15.18.31.35.47.52.07.08.14.15.21.23.18.19.37.38.56.57.04.04.08.08.13.13.23.22.46.44.7.65.07.06.14.12.21.18.18.15.35.3.53.45.08.07.17.14.26.21.18.14.37.29.56.43.07.05.14.11.21.16.25.18.51.36.77.53.07.05.14.09.21.13.2.13.4.26.6.38.04.03.09.05.13.08.04.03.09.05.13.07.32.19.65.38.98.55.03.02.06.03.09.05.31.16.63.31.95.46.05.02.1.05.15.07.03.02.07.03.1.04.33.15.67.29,1.01.42.03.01.05.02.08.03.08.03.16.06.24.09.11.04.22.08.33.12h0c.42.15.84.29,1.27.41.42.12.84.23,1.26.33.21.05.43.09.64.14.43.09.86.16,1.29.22.65.09,1.31.16,1.97.2.44.03.88.04,1.33.04h20.45v-15.71c3.84-.79,7.77-1.19,11.73-1.19h273.53c3.96,0,7.89.41,11.73,1.19v15.71h20.45c.44,0,.89-.01,1.33-.04.66-.04,1.32-.1,1.97-.2.43-.06.86-.14,1.29-.22.21-.04.43-.09.64-.14.42-.1.85-.21,1.26-.33.43-.12.85-.27,1.27-.42h0c.11-.04.22-.08.33-.12.08-.03.16-.06.24-.09.03-.01.05-.02.08-.03.34-.13.68-.27,1.01-.42.03-.02.07-.03.1-.04.05-.02.1-.05.15-.07.32-.15.64-.3.95-.46.03-.02.06-.03.09-.05.33-.17.66-.36.98-.55.04-.03.09-.05.13-.07.04-.03.09-.05.13-.08.2-.12.4-.25.6-.38.07-.04.14-.09.21-.13.26-.17.52-.35.77-.53.07-.05.14-.11.21-.16.19-.14.37-.28.56-.42.09-.07.17-.14.26-.21.18-.15.36-.29.53-.45.07-.06.14-.12.21-.18.24-.21.47-.43.7-.65.04-.04.08-.08.13-.13.19-.18.37-.37.55-.56.07-.08.14-.15.21-.23.16-.17.31-.34.46-.52.06-.07.13-.15.19-.22.21-.25.41-.5.61-.76h0s.03-.04.04-.06c.02-.02.04-.05.06-.07,0,0,0,0,0,0,0-.01.02-.02.02-.03,0,0,0,0,0,0,.02-.03.05-.06.07-.09.21-.27.41-.55.61-.83.03-.04.06-.09.09-.14.18-.25.35-.5.52-.76.03-.04.05-.08.08-.12.04-.05.07-.11.1-.16.13-.2.26-.4.38-.61.08-.12.15-.25.23-.37.09-.15.18-.3.27-.46.08-.14.17-.28.24-.42.24-.43.47-.86.69-1.3-10.54-12.22-22.78-18.78-35.34-18.78H66.26c-12.56,0-24.8,6.57-35.34,18.78.22.44.45.87.69,1.3.08.14.16.28.24.42Z"/>
        <path class="cls-17" d="M66.26,248.74h310.38c11.84,0,23.39,6.21,33.51,17.81,0-.01.02-.03.03-.04.13-.2.26-.4.38-.61.08-.12.15-.25.23-.37.09-.15.18-.3.27-.46.08-.14.17-.28.24-.42.24-.43.47-.86.69-1.3-10.54-12.22-22.78-18.78-35.34-18.78H66.26c-12.56,0-24.8,6.57-35.34,18.78.22.44.45.87.69,1.3.08.14.16.28.24.42.09.15.18.3.27.46.07.12.15.25.23.37.13.2.25.41.38.61,0,.01.02.03.03.04,10.12-11.6,21.67-17.81,33.51-17.81Z"/>
        <path class="cls-16" d="M391.73,277.59c.66-.04,1.32-.1,1.97-.2.43-.06.86-.14,1.29-.22.21-.04.43-.09.64-.14.42-.1.85-.21,1.26-.33.43-.12.85-.27,1.27-.42h0c.11-.04.22-.08.33-.12.08-.03.16-.06.24-.09.03-.01.05-.02.08-.03.34-.13.68-.27,1.01-.42.03-.02.07-.03.1-.04.05-.02.1-.05.15-.07.32-.15.64-.3.95-.46.03-.02.06-.03.09-.05.33-.17.66-.36.98-.55.04-.03.09-.05.13-.07.04-.03.09-.05.13-.08.2-.12.4-.25.6-.38.07-.04.14-.09.21-.13.26-.17.52-.35.77-.53.07-.05.14-.11.21-.16.19-.14.37-.28.56-.42.09-.07.17-.14.26-.21.18-.15.36-.29.53-.45.07-.06.14-.12.21-.18.24-.21.47-.43.7-.65.04-.04.08-.08.13-.13.19-.18.37-.37.55-.56.07-.08.14-.15.21-.23.16-.17.31-.34.46-.52.06-.07.13-.15.19-.22.21-.25.41-.5.61-.76h0s.03-.04.04-.06c.02-.02.04-.05.06-.07,0,0,0,0,0,0,0-.01.02-.02.02-.03,0,0,0,0,0,0,.02-.03.05-.06.07-.09.21-.27.41-.55.61-.83.03-.04.06-.09.09-.14.18-.25.35-.5.52-.76.03-.04.05-.08.08-.12.03-.04.05-.08.08-.12-10.12-11.6-21.67-17.81-33.51-17.81H66.26c-11.84,0-23.39,6.21-33.51,17.81.03.04.05.08.08.12.03.04.05.08.08.12.17.25.34.51.52.76.03.04.06.09.09.14.2.28.4.56.61.83.02.03.04.06.07.09,0,0,0,0,0,0,0,.01.02.02.03.04.03.04.07.09.1.13,0,0,0,0,0,0,.2.26.4.51.61.76.06.08.13.15.19.22.15.18.31.35.47.52.07.08.14.15.21.23.18.19.37.38.56.57.04.04.08.08.13.13.23.22.46.44.7.65.07.06.14.12.21.18.18.15.35.3.53.45.08.07.17.14.26.21.18.14.37.29.56.43.07.05.14.11.21.16.25.18.51.36.77.53.07.05.14.09.21.13.2.13.4.26.6.38.04.03.09.05.13.08.04.03.09.05.13.07.32.19.65.38.98.55.03.02.06.03.09.05.31.16.63.31.95.46.05.02.1.05.15.07.03.02.07.03.1.04.33.15.67.29,1.01.42.03.01.05.02.08.03.08.03.16.06.24.09.11.04.22.08.33.12h0c.42.15.84.29,1.27.41.42.12.84.23,1.26.33.21.05.43.09.64.14.43.09.86.16,1.29.22.65.09,1.31.16,1.97.2.44.03.88.04,1.33.04h20.45v-15.71c3.84-.79,7.77-1.19,11.73-1.19h273.53c3.96,0,7.89.41,11.73,1.19v15.71h20.45c.44,0,.89-.01,1.33-.04Z"/>
        <path class="cls-9" d="M358.76,256.64H84.14c-13.46,0-26.51,6.06-36.97,17.17l-3.14,3.34c2.47,1.15,5.11,1.76,7.79,1.76h339.24c2.69,0,5.32-.61,7.79-1.76l-3.14-3.34c-10.46-11.11-23.51-17.17-36.97-17.17Z"/>
        <path class="cls-16" d="M119.81,275.42h-13.36c-10.7,0-19.37-8.67-19.37-19.37h52.1c0,10.7-8.67,19.37-19.37,19.37Z"/>
        <g>
          <rect class="cls-18" x="97.55" y="258.77" width="13.71" height="11.67" rx="1.75" ry="1.75"/>
          <rect class="cls-25" x="98.84" y="259.86" width="11.13" height="9.47" rx="1.75" ry="1.75"/>
          <rect class="cls-18" x="115" y="258.77" width="13.71" height="11.67" rx="1.75" ry="1.75"/>
          <rect class="cls-25" x="116.29" y="259.86" width="11.13" height="9.47" rx="1.75" ry="1.75"/>
        </g>
        <path class="cls-13" d="M227.19,18.95c-1.91-.01-3.82-.02-5.74-.02s-3.83,0-5.74.02c-.19,0-.38,0-.57,0-43.22.28-82.92,3.36-118.47,7.88-1.75.99-3.06,2.79-3.5,5-3.38,17.02-6.76,34.04-10.14,51.07-.6,3.01,1.6,5.8,4.39,5.58,20.12-1.64,40.95-2.93,62.45-3.78,23.57-.93,46.37-1.26,68.36-1.12v.05c1.07-.01,2.14-.02,3.21-.03,1.07,0,2.14.02,3.21.03v-.05c21.99-.15,44.79.19,68.36,1.12,21.5.85,42.33,2.13,62.45,3.78,2.79.23,4.99-2.57,4.39-5.58-3.38-17.02-6.76-34.05-10.14-51.07-.44-2.2-1.75-4.01-3.5-5-35.55-4.52-75.25-7.61-118.47-7.88-.19,0-.38,0-.57,0Z"/>
        <path class="cls-13" d="M227.19,18.95c-1.91-.01-3.82-.02-5.74-.02s-3.83,0-5.74.02c1.91-.01,3.82-.02,5.74-.02s3.83,0,5.74.02Z"/>
        <path class="cls-13" d="M227.76,18.96c43.22.28,82.92,3.36,118.47,7.88-.72-.41-1.51-.68-2.35-.77-35.16-4.11-74.04-6.85-116.12-7.11Z"/>
        <path class="cls-13" d="M99.02,26.06c-.84.1-1.63.37-2.35.77,35.55-4.52,75.25-7.61,118.47-7.88-42.08.25-80.96,3-116.12,7.11Z"/>
        <path class="cls-29" d="M215.14,18.96c.19,0,.38,0,.57,0-.19,0-.38,0-.57,0Z"/>
        <path class="cls-29" d="M227.19,18.95c.19,0,.38,0,.57,0-.19,0-.38,0-.57,0Z"/>
        <path class="cls-19" d="M221.49,3.35c4.29,0,7.77,3.48,7.77,7.77v1.5h-15.55v-1.5c0-4.29,3.48-7.77,7.77-7.77Z"/>
        <path class="cls-19" d="M221.49.2h0c1.44,0,2.6,1.16,2.6,2.6v6.64h-5.2V2.79c0-1.44,1.16-2.6,2.6-2.6Z"/>
        <path class="cls-16" d="M65.7,208.4c0-1.12.91-2.03,2.03-2.03s2.03.91,2.03,2.03-.91,2.03-2.03,2.03-2.03-.91-2.03-2.03Z"/>
        <path class="cls-16" d="M172.88,214.14c0-1.12.91-2.03,2.03-2.03s2.03.91,2.03,2.03-.91,2.03-2.03,2.03-2.03-.91-2.03-2.03Z"/>
        <path class="cls-16" d="M377.21,208.4c0-1.12-.91-2.03-2.03-2.03s-2.03.91-2.03,2.03.91,2.03,2.03,2.03,2.03-.91,2.03-2.03Z"/>
        <path class="cls-16" d="M270.02,214.14c0-1.12-.91-2.03-2.03-2.03s-2.03.91-2.03,2.03.91,2.03,2.03,2.03,2.03-.91,2.03-2.03Z"/>
      </g>
    </g>
  </g>
</svg>