<?xml version="1.0" encoding="UTF-8"?>
<svg id="Layer_2" data-name="Layer 2" xmlns="http://www.w3.org/2000/svg" viewBox="0 0 372.3 191.05">
  <defs>
    <style>
      .cls-1 {
        fill: #fff;
      }
    </style>
  </defs>
  <g id="Layer_1-2" data-name="Layer 1">
    <g id="Clouds">
      <path class="cls-1" d="M355.87,127.68c.6,2.45.92,5.01.92,7.65,0,17.7-14.35,32.05-32.05,32.05-8.97,0-17.08-3.69-22.89-9.62-4.29,1.48-8.86,2.38-13.6,2.62-10.07,18.29-29.53,30.68-51.89,30.68s-40.13-11.34-50.53-28.34c-3.87,2.44-8.45,3.85-13.36,3.85-6.97,0-13.27-2.84-17.82-7.42-6.03,9.37-16.55,15.58-28.52,15.58-6.67,0-12.9-1.93-18.14-5.27-5.21,10.16-15.79,17.1-27.99,17.1-10.17,0-19.22-4.83-24.96-12.32-5.76,6.56-14.21,10.69-23.62,10.69-17.36,0-31.43-14.07-31.43-31.43s14.07-31.43,31.43-31.43c.65,0,1.29.02,1.93.06-.2-1.29-.29-2.6-.29-3.94,0-14.54,11.79-26.33,26.33-26.33,3.76,0,7.33.79,10.56,2.21,4.69-7.23,12.83-12.01,22.09-12.01,6.49,0,12.43,2.35,17.02,6.24,3.2-21.55,21.77-38.08,44.21-38.08,3.2,0,6.32.33,9.33.98,4.26-7.01,11.39-12.08,19.76-13.58C186.2,16.23,204.9,0,227.38,0s41.01,16.09,44.95,37.33c3.86-1.69,8.12-2.63,12.61-2.63,9.55,0,18.1,4.26,23.87,10.98,3.71-1.04,7.61-1.59,11.65-1.59,23.9,0,43.27,19.37,43.27,43.27,0,.94-.03,1.87-.09,2.79,5.25,3.82,8.67,10.02,8.67,17.01,0,10.03-7.03,18.43-16.44,20.52Z"/>
    </g>
  </g>
</svg>