<?xml version="1.0" encoding="UTF-8"?>
<svg id="Layer_2" data-name="Layer 2" xmlns="http://www.w3.org/2000/svg" viewBox="0 0 650.59 334.62">
  <defs>
    <style>
      .cls-1 {
        fill: #fff;
      }
    </style>
  </defs>
  <g id="Layer_1-2" data-name="Layer 1">
    <g id="Clouds">
      <path class="cls-1" d="M650.59,194.72c0,34.19-30.75,61.89-68.68,61.89-8.5,0-16.64-1.39-24.15-3.95-11.94,11.21-28,18.08-45.65,18.08-20.47,0-38.79-9.22-51.02-23.75-8.46-.06-16.63-1.31-24.36-3.59-13.51,26.93-41.38,45.42-73.56,45.42-21.42,0-40.93-8.18-55.56-21.6-16.96,39.63-56.31,67.39-102.14,67.39-54.92,0-100.54-39.87-109.48-92.25-4.65.82-9.43,1.25-14.31,1.25C36.57,243.62,0,207.05,0,161.94s36.57-81.68,81.68-81.68c7.44,0,14.66.99,21.51,2.86,12.79-13.24,30.96-21.51,51.12-21.51,22.77,0,43.01,10.55,55.81,26.91,6.08-2.41,12.71-3.73,19.65-3.73,15.03,0,28.61,6.21,38.31,16.2,4.04-1.34,8.35-2.07,12.84-2.07,8.56,0,16.5,2.64,23.05,7.16-1.4-5.16-2.14-10.59-2.14-16.2,0-29.45,20.48-54.12,47.97-60.54,11.62-17.67,31.62-29.33,54.34-29.33,10.5,0,20.4,2.49,29.18,6.91,4.1-1.19,8.44-1.82,12.93-1.82,20.76,0,38.36,13.57,44.39,32.33,3.18-.81,6.48-1.24,9.87-1.24,24.29,0,44.14,21.87,45.43,49.42,1.6-.16,3.22-.24,4.87-.24,23.88,0,43.24,17.34,43.24,38.72,0,3.29-.46,6.48-1.32,9.53,32.78,4.68,57.85,30.26,57.85,61.12Z"/>
    </g>
  </g>
</svg>