<?xml version="1.0" encoding="UTF-8"?>
<svg id="Layer_2" data-name="Layer 2" xmlns="http://www.w3.org/2000/svg" viewBox="0 0 350.36 180.2">
  <defs>
    <style>
      .cls-1 {
        fill: #fff;
      }
    </style>
  </defs>
  <g id="Layer_1-2" data-name="Layer 1">
    <g id="Clouds">
      <path class="cls-1" d="M350.36,104.86c0,18.41-16.56,33.33-36.98,33.33-4.58,0-8.96-.75-13.01-2.12-6.43,6.04-15.08,9.73-24.59,9.73-11.03,0-20.89-4.97-27.47-12.79-4.55-.03-8.96-.71-13.12-1.93-7.28,14.5-22.28,24.46-39.61,24.46-11.53,0-22.04-4.41-29.92-11.63-9.13,21.34-30.33,36.29-55.01,36.29-29.58,0-54.15-21.47-58.96-49.68-2.5.44-5.08.67-7.7.67C19.69,131.19,0,111.5,0,87.21s19.69-43.99,43.99-43.99c4.01,0,7.89.54,11.59,1.54,6.89-7.13,16.67-11.59,27.53-11.59,12.26,0,23.16,5.68,30.06,14.49,3.28-1.3,6.84-2.01,10.58-2.01,8.09,0,15.41,3.34,20.63,8.72,2.17-.72,4.5-1.11,6.92-1.11,4.61,0,8.89,1.42,12.41,3.85-.75-2.78-1.15-5.7-1.15-8.72,0-15.86,11.03-29.14,25.83-32.6,6.26-9.52,17.03-15.8,29.26-15.8,5.65,0,10.99,1.34,15.71,3.72,2.21-.64,4.55-.98,6.96-.98,11.18,0,20.66,7.31,23.91,17.41,1.71-.44,3.49-.67,5.31-.67,13.08,0,23.77,11.78,24.47,26.61.86-.09,1.74-.13,2.62-.13,12.86,0,23.29,9.34,23.29,20.85,0,1.77-.25,3.49-.71,5.13,17.65,2.52,31.15,16.3,31.15,32.92Z"/>
    </g>
  </g>
</svg>