<?xml version="1.0" encoding="UTF-8"?>
<svg id="Layer_2" data-name="Layer 2" xmlns="http://www.w3.org/2000/svg" viewBox="0 0 508.55 408.64">
  <defs>
    <style>
      .cls-1 {
        fill: #a2b2ba;
      }

      .cls-1, .cls-2, .cls-3, .cls-4, .cls-5, .cls-6, .cls-7, .cls-8, .cls-9, .cls-10, .cls-11, .cls-12, .cls-13, .cls-14, .cls-15, .cls-16, .cls-17, .cls-18, .cls-19, .cls-20, .cls-21, .cls-22, .cls-23 {
        fill-rule: evenodd;
      }

      .cls-24, .cls-20 {
        fill: #808287;
      }

      .cls-2 {
        fill: #2180ea;
      }

      .cls-3 {
        fill: #1c67bd;
      }

      .cls-4 {
        fill: #58595b;
      }

      .cls-5 {
        fill: #37aafc;
      }

      .cls-6 {
        fill: #9f1515;
      }

      .cls-7 {
        fill: #c41919;
      }

      .cls-8 {
        fill: #3d3d3d;
      }

      .cls-9 {
        fill: #3c96fc;
      }

      .cls-10 {
        fill: #2b9ef1;
      }

      .cls-11 {
        fill: #b5e1e6;
      }

      .cls-12 {
        fill: #ccc;
      }

      .cls-13 {
        fill: #2171cc;
      }

      .cls-14 {
        fill: #fa9717;
      }

      .cls-15 {
        fill: #363636;
      }

      .cls-16 {
        fill: #e68200;
      }

      .cls-17 {
        fill: #dad9d4;
      }

      .cls-18 {
        fill: #f7f3e8;
      }

      .cls-19 {
        fill: #5e5e5e;
        opacity: .32;
      }

      .cls-21 {
        fill: #9c9b96;
      }

      .cls-22 {
        fill: #78140d;
      }

      .cls-23 {
        fill: #87bec4;
      }
    </style>
  </defs>
  <g id="Layer_1-2" data-name="Layer 1">
    <g>
      <path class="cls-19" d="M476.58,346.74c16.34,0,28.04,9.15,29.19,19.08l2.72,23.75c1.13,9.91-13.89,19.08-30.21,19.08H30.27c-16.33,0-31.34-9.16-30.21-19.08l2.72-23.75c1.14-9.92,12.85-19.08,29.18-19.08h444.62Z"/>
      <path class="cls-13" d="M445.23,91.22l5.21,12.13c8.43-.23,39.11-1.5,45.55-5.34,7.29-4.31,6.15-14.33.28-19.91-8.9-8.78-18.08-10.06-29.54-9.63-5.11.19-9.66.04-11.08,4.4-1.05,3.18-1.14,14.37-1.33,18.33l-9.09.02h0Z"/>
      <path class="cls-11" d="M458.78,98.01c7.86-.27,22.82-1.01,29.83-2.6,4.55-1.03,6.82-3.76,7.1-6.84.56-6.88-9.57-13.44-16.67-14.93-3.7-.79-7.96-.89-13.35-.72-4.27.15-6.06.76-6.35,4.58-.47,6.64-.38,13.79-.57,20.51h0Z"/>
      <path class="cls-23" d="M494.47,83.8c-2.84-4.93-10.04-9.02-15.43-10.16-3.7-.79-7.96-.89-13.35-.72-4.27.15-6.06.76-6.35,4.58,0,.79-.1,1.58-.1,2.38,1.33-1.01,3.41-1.29,6.44-1.39,7.29-.25,13.07-.11,18.09.96,3.31.71,7.1,2.24,10.7,4.34h0Z"/>
      <path class="cls-13" d="M63.41,91.22l-5.3,12.13c-8.43-.23-39.11-1.5-45.55-5.34-7.29-4.31-6.16-14.33-.19-19.91,8.81-8.78,17.99-10.06,29.45-9.63,5.11.19,9.66.04,11.08,4.4,1.05,3.18,1.13,14.37,1.42,18.33l9.09.02h0Z"/>
      <path class="cls-11" d="M49.87,98.01c-7.86-.27-22.92-1.01-29.92-2.6-4.55-1.03-6.82-3.76-7.1-6.84-.57-6.88,9.66-13.44,16.66-14.93,3.79-.79,7.96-.89,13.35-.72,4.26.15,6.06.76,6.35,4.58.47,6.64.38,13.79.66,20.51h0Z"/>
      <path class="cls-23" d="M14.07,83.8c2.84-4.93,10.04-9.02,15.44-10.16,3.79-.79,7.96-.89,13.35-.72,4.26.15,6.06.76,6.35,4.58.1.79.1,1.58.19,2.38-1.42-1.01-3.5-1.29-6.53-1.39-7.29-.25-13.07-.11-18.09.96-3.32.71-7.1,2.24-10.7,4.34h0Z"/>
      <path class="cls-15" d="M441.63,324.93c4.36,0,7.86,3.5,7.86,7.77v9.57c0,4.27-3.5,7.77-7.86,7.77h-45.74c-3.41,0-6.25-2.12-7.38-5.08H120.04c-1.04,2.96-3.98,5.08-7.39,5.08h-45.64c-4.36,0-7.95-3.5-7.95-7.77v-9.57c0-4.27,3.6-7.77,7.95-7.77h374.63Z"/>
      <path class="cls-8" d="M477.71,255.97h-38.26c-7.86,0-13.73,5.48-14.49,12.15-4.36,39.55-3.22,78.01-1.04,116.28.38,6.66,6.35,12.15,14.3,12.15h40.82c7.86,0,13.82-5.49,14.2-12.15,2.18-38.27,3.31-76.73-1.04-116.28-.75-6.66-6.63-12.15-14.49-12.15h0Z"/>
      <path class="cls-4" d="M442.01,239.81h45.46c6.15,0,11.08,4.63,11.27,10.28.76,29.67.76,59.35,0,89.03-.19,5.65-5.12,10.28-11.27,10.28h-45.46c-6.15,0-11.17-4.63-11.17-10.28v-89.03c0-5.65,5.02-10.28,11.17-10.28h0Z"/>
      <path class="cls-8" d="M30.83,255.97h38.26c7.86,0,13.73,5.48,14.49,12.15,4.35,39.55,3.22,78.01,1.04,116.28-.38,6.66-6.35,12.15-14.2,12.15H29.6c-7.96,0-13.92-5.49-14.3-12.15-2.18-38.27-3.32-76.73,1.13-116.28.66-6.66,6.53-12.15,14.4-12.15h0Z"/>
      <path class="cls-4" d="M66.53,239.81H21.08c-6.16,0-11.08,4.63-11.27,10.28-.75,29.67-.75,59.35,0,89.03.19,5.65,5.12,10.28,11.27,10.28h45.45c6.16,0,11.18-4.63,11.18-10.28v-89.03c0-5.65-5.02-10.28-11.18-10.28h0Z"/>
      <path class="cls-10" d="M130.55,6.74c-22.25,2.42-29.17,5.07-39.58,20.14-15.82,22.75-25.95,47.52-35.14,73.39-16.19,11.74-24.15,25.59-24.81,41.31-8.05,3.34-8.9,17.06-8.15,33.35-19.88,40.93-16.85,81.47-11.55,124.91,3.69,30.94,3.13,33.08,37.03,34.87,105.5,5.58,306.44,5.58,411.84,0,34-1.79,33.33-3.93,37.03-34.87,5.31-43.44,8.34-83.99-11.55-124.91.85-16.29-.09-30.01-8.14-33.35-.66-15.72-8.61-29.56-24.81-41.31-9.19-25.87-19.32-50.64-35.13-73.39-10.42-15.07-17.33-17.72-39.58-20.14-82.77-8.99-164.58-9-247.45,0h0Z"/>
      <path class="cls-10" d="M130.55,6.74c-22.25,2.42-29.17,5.07-39.58,20.14-15.82,22.75-25.95,47.52-35.14,73.39l45.27,96.02c11.46,24.39,12.31,24.61,37.88,26.4,62.97,4.43,167.71,4.43,230.69,0,25.47-1.79,26.42-2.01,37.78-26.4l45.27-96.02c-9.19-25.87-19.32-50.64-35.13-73.39-10.42-15.07-17.33-17.72-39.58-20.14-82.77-8.99-164.58-9-247.45,0h0Z"/>
      <path class="cls-2" d="M22.88,174.94c-19.88,40.93-16.85,81.47-11.55,124.91,3.69,30.94,3.13,33.08,37.03,34.87,105.5,5.58,306.44,5.58,411.84,0,34-1.79,33.33-3.93,37.03-34.87,5.31-43.44,8.34-83.99-11.55-124.91l3.41,31.37c2.74,25.13-3.03,26.8-29.08,27.74-136.08,4.91-275.29,4.9-411.47,0-26.04-.94-31.82-2.61-29.07-27.74l3.41-31.37h0Z"/>
      <path class="cls-2" d="M57.82,130.22l30.68,65.41c107.29,5.99,224.25,5.99,331.54,0l30.68-65.41c-128.89,5.53-264.02,5.53-392.9,0h0Z"/>
      <path class="cls-10" d="M101.1,196.3h0c11.46,23.69,12.31,23.91,37.88,25.64,62.97,4.3,167.71,4.3,230.59,0,25.57-1.73,26.51-1.95,37.88-25.64h0c-99.63,4.94-206.73,4.94-306.35,0h0Z"/>
      <path class="cls-3" d="M55.83,100.28c-25,10.35-30.97,42.58-27.46,66.29,4.93,33.36,42.14,27.84,72.73,29.73l-45.27-96.02h0Z"/>
      <path class="cls-14" d="M54.69,105.72c-19.79,10.98-25.76,41.38-21.4,61.54,5.59,25.81,35.04,23.59,61.93,24l-40.53-85.54h0Z"/>
      <path class="cls-18" d="M31.97,156.21c-.86,38.2,35.98,34.68,63.26,35.05l-5.87-12.43-37.98-22.53-19.41-.09h0Z"/>
      <path class="cls-12" d="M44.28,156.23v2.37c.57,23.65,25.38,24.68,46.31,22.92l-11.93-25.29h-34.37Z"/>
      <path class="cls-16" d="M59.71,116.41c-12.88,6.97-15.53,26.18-15.43,39.83h34.37l-18.94-39.83h0Z"/>
      <path class="cls-6" d="M61.33,119.03c-12.69,6.78-14.59,26.19-14.31,38.8.57,21.75,23.11,22.62,42.43,21l-28.12-59.8h0Z"/>
      <path class="cls-7" d="M83.77,166.15l-15.82-33.35c-8.05,2.23-14.01,9.28-14.11,17.65-.19,10.2,8.43,18.61,19.13,18.7,3.98.04,7.67-1.07,10.8-3h0Z"/>
      <path class="cls-22" d="M81.97,162.32l-12.22-25.69c-6.54,1.54-11.46,7.15-11.55,13.86-.09,7.93,6.53,14.45,14.87,14.51,3.31.03,6.34-.97,8.9-2.67h0Z"/>
      <path class="cls-12" d="M34.14,159.69c.29,2.49.57,4.9,1.14,7.16,4.64,21.43,28.79,21.61,52.65,21.78l3.22.02-1.14-2.36c-23.58-.16-47.16-.6-51.8-21.76-.38-1.56-.57-3.18-.85-4.84h-3.22Z"/>
      <path class="cls-16" d="M53.27,110.02c-7.29,4.85-12.4,12.71-15.53,21.56-2.37,6.79-3.6,14.15-3.79,21.15h3.79c.38-6.35,1.61-12.9,3.69-19.01,2.84-8.01,7.29-15.22,13.54-20.11l-1.71-3.59h0Z"/>
      <path class="cls-3" d="M55.83,100.28c-1.04.43-1.99.91-3.03,1.43l44.98,94.41c1.14.05,2.18.11,3.31.18l-45.27-96.02h0Z"/>
      <path class="cls-3" d="M452.72,100.28c25,10.35,31.06,42.58,27.55,66.29-5.02,33.36-42.24,27.84-72.82,29.73l45.27-96.02h0Z"/>
      <path class="cls-14" d="M453.85,105.72c19.79,10.98,25.76,41.38,21.4,61.54-5.58,25.81-35.04,23.59-61.93,24l40.53-85.54h0Z"/>
      <path class="cls-18" d="M476.58,156.21c.95,38.2-35.98,34.68-63.26,35.05l5.87-12.43,38.07-22.53,19.32-.09h0Z"/>
      <path class="cls-12" d="M464.27,156.23v2.37c-.56,23.65-25.38,24.68-46.31,22.92l11.94-25.29h34.37Z"/>
      <path class="cls-16" d="M448.83,116.41c12.97,6.97,15.53,26.18,15.43,39.83h-34.37l18.94-39.83h0Z"/>
      <path class="cls-6" d="M447.22,119.03c12.69,6.78,14.59,26.19,14.3,38.8-.56,21.75-23.11,22.62-42.33,21l28.03-59.8h0Z"/>
      <path class="cls-7" d="M424.78,166.15l15.81-33.35c8.05,2.23,14.01,9.28,14.11,17.65.19,10.2-8.43,18.61-19.13,18.7-3.98.04-7.67-1.07-10.8-3h0Z"/>
      <path class="cls-22" d="M426.58,162.32l12.22-25.69c6.53,1.54,11.46,7.15,11.56,13.86.19,7.93-6.53,14.45-14.87,14.51-3.31.03-6.34-.97-8.9-2.67h0Z"/>
      <path class="cls-12" d="M474.4,159.69c-.29,2.49-.57,4.9-1.14,7.16-4.64,21.43-28.79,21.61-52.56,21.78l-3.32.02,1.23-2.36c23.49-.16,47.07-.6,51.7-21.76.38-1.56.66-3.18.85-4.84h3.22Z"/>
      <path class="cls-16" d="M455.27,110.02c7.29,4.85,12.4,12.71,15.53,21.56,2.46,6.79,3.6,14.15,3.79,21.15h-3.79c-.38-6.35-1.52-12.9-3.7-19.01-2.84-8.01-7.29-15.22-13.54-20.11l1.7-3.59h0Z"/>
      <path class="cls-3" d="M452.72,100.28c1.04.43,2.08.91,3.03,1.43l-44.99,94.41c-1.13.05-2.18.11-3.31.18l45.27-96.02h0Z"/>
      <path class="cls-3" d="M97.59,196.01l.76,1.52c11.65,24.98,12.5,25.2,38.55,27.04,32,2.26,74.72,3.39,117.42,3.39s85.32-1.13,117.33-3.39c26.04-1.84,26.99-2.06,38.54-27.04l.76-1.52-3.51.29h0c-11.37,23.69-12.31,23.91-37.88,25.64-31.44,2.15-73.39,3.22-115.25,3.22s-83.91-1.07-115.34-3.22c-25.57-1.73-26.42-1.95-37.88-25.64h0l-3.5-.29h0Z"/>
      <path class="cls-13" d="M152.61,18.58c-58.71,4.02-60.99,3.88-76.9,48.65-9,25.2.95,36.62,20.74,40.12,74.15,13.15,241.48,13.15,315.63,0,19.79-3.5,29.74-14.93,20.74-40.12-15.91-44.76-18.18-44.63-76.89-48.65-68-4.66-135.32-4.66-203.32,0h0Z"/>
      <path class="cls-3" d="M18.9,216.3c-.85,18.94,6.06,20.38,29.64,21.23,136.18,4.9,275.38,4.91,411.47,0,23.58-.86,30.49-2.29,29.64-21.23-.86,13.5-8.72,14.73-29.64,15.47-136.08,4.91-275.29,4.91-411.47,0-20.93-.74-28.79-1.97-29.64-15.47h0Z"/>
      <path class="cls-3" d="M254.32,144.01c15.63,0,28.32,8.66,28.32,19.36s-12.69,19.37-28.32,19.37-28.41-8.66-28.41-19.37,12.69-19.36,28.41-19.36h0Z"/>
      <path class="cls-17" d="M254.32,179.86c13.26,0,24.06-7.39,24.06-16.49s-10.8-16.49-24.06-16.49-24.15,7.38-24.15,16.49,10.8,16.49,24.15,16.49h0Z"/>
      <path class="cls-5" d="M70.23,130.73c121.02,4.85,247.07,4.85,368.09,0l1.32-2.88c-121.88,4.91-248.87,4.91-370.74,0l1.32,2.88h0Z"/>
      <path class="cls-21" d="M254.32,176.99c10.8,0,19.6-5.95,19.89-13.33-4.73,3.9-11.93,6.39-19.89,6.39s-15.24-2.49-19.98-6.39c.29,7.39,9.09,13.33,19.98,13.33h0Z"/>
      <path class="cls-3" d="M12.74,311.08c2.84,20.29,6.35,22.09,35.61,23.64,105.5,5.58,306.44,5.58,411.84,0,29.26-1.53,32.86-3.35,35.71-23.63-3.22,11.68-10.04,13.13-34.19,14.39-106.25,5.58-308.62,5.58-414.87,0-24.15-1.26-30.87-2.71-34.09-14.4h0Z"/>
      <path class="cls-20" d="M354.7,20.75c57.39,3.75,59.56,3.63,74.24,45.29,8.33,23.45,1.51,33.58-17.81,36.84-64.39,10.83-249.34,10.83-313.64,0-19.41-3.26-26.23-13.39-17.9-36.84,14.67-41.66,16.95-41.54,74.24-45.29,67.9-4.44,132.96-4.44,200.85,0h0Z"/>
      <path class="cls-1" d="M428.57,94.73c-3.51,4.23-9.38,6.78-17.43,8.15-64.39,10.83-249.34,10.83-313.64,0-8.14-1.37-14.01-3.92-17.52-8.15.38-1.6.75-3.24,1.13-4.94,14.68-55.85,16.76-53.1,73.58-58.13,67.33-5.94,131.82-5.94,199.15,0,56.82,5.03,59,2.28,73.58,58.13.38,1.7.85,3.34,1.14,4.94h0Z"/>
      <path class="cls-20" d="M321.37,109.91c-44.22,1.51-94.7,1.45-138.45-.16h0l-.85-.03-.57-.02c-9-.34-18.09-.75-27.09-1.28l-.47-.02-3.03-.18-.1-.02-.76-.05h-.09s-.76-.06-.76-.06h0c-20.83-1.3-38.73-3.04-51.7-5.23-.57-.08-.95-.16-1.42-.25,3.41-9.72,8.9-15.99,17.24-18.59l.95-12.2c.66-6.1,4.16-11.38,9.19-14.66.09-12.52,11.55-22.66,25.75-22.66s25.76,10.19,25.76,22.76v.72c4.45,3.3,7.48,8.21,8.05,13.83l1.23,11.96c9.95,2.76,16.1,10.5,19.32,22.86,39.39-4.42,79.08-3.55,117.9,2.22l4.07-37.03c1.04-10.29,10.42-18.21,21.41-18.21h26.04c10.99,0,20.26,7.92,21.31,18.21l2.65,33.04c-25,2.97-50.38,4.18-75.57,5.04h0Z"/>
      <path class="cls-6" d="M224.01,3.2c20.17-.81,40.34-.83,60.51,0,6.07.25,6.07,9.23,0,9.05-20.17-.61-40.34-.5-60.51,0-6.06.15-6.06-8.8,0-9.05h0Z"/>
      <path class="cls-7" d="M228.37,5.46c13.64-.38,38.17-.39,51.8,0,4.17.1,4.17,4.3,0,4.21-13.64-.27-38.16-.22-51.8,0-4.07.08-4.07-4.11,0-4.21h0Z"/>
      <path class="cls-24" d="M279.13,59.11l-1.33-8.18c-.28-1.51-1.51-2.58-2.84-2.58h-18.27v-2.79c.57-.72,1.23-1.83,1.23-3.06,0-2.18-1.61-3.94-3.6-3.94s-3.69,1.76-3.69,3.94c0,1.23.66,2.34,1.23,3.06v2.79h-18.18c-1.42,0-2.65,1.14-2.93,2.65l-1.32,8.09c-.29,1.93,1.04,3.57,2.84,3.57h44.04c1.8,0,3.12-1.62,2.84-3.56h0Z"/>
      <path class="cls-9" d="M154.04,264.44c-14.96,0-12.69,6.48-5.78,16.38,5.78,8.16,10.51,14.21,16,18.64,12.31,10.1,17.61,10.43,33.15,10.57h113.73c15.53-.14,20.84-.47,33.24-10.57,5.4-4.43,10.13-10.48,15.91-18.64,6.91-9.9,9.18-16.38-5.78-16.38h-200.48Z"/>
      <path class="cls-13" d="M154.04,264.44c-7.38,0-10.61,1.58-11.08,4.39,2.65,2.16,5.4,4,8.14,5.59,14.21,7.98,20.27,8.25,37.97,8.34h130.4c17.71-.1,23.77-.36,37.98-8.34,2.84-1.59,5.49-3.43,8.14-5.59-.47-2.81-3.6-4.39-11.08-4.39h-200.48Z"/>
      <path class="cls-3" d="M408.49,257.44l-24.43,34.41c-9.56,13.48-3.41,19.23,6.91,20.99,17.43,2.94,68.37-3.02,84.28-9.42-6.82.14-70.08,6.35-77.56-4.55-4.83-7.15,3.41-22.58,10.8-41.42h0Z"/>
      <path class="cls-3" d="M100.06,257.44l24.43,34.41c9.56,13.48,3.41,19.23-6.91,20.99-17.42,2.94-68.37-3.02-84.28-9.42,6.82.14,70.07,6.35,77.56-4.55,4.83-7.15-3.32-22.58-10.8-41.42h0Z"/>
      <path class="cls-22" d="M466.35,252.92l-46.5,1.19c-6.15.26-11.46,2.41-14.58,7.96l48.39-1.25c6.25-.16,10.9-1.22,12.69-7.9h0Z"/>
      <path class="cls-22" d="M42.29,252.92l46.49,1.19c6.16.26,11.46,2.41,14.58,7.96l-48.48-1.25c-6.16-.16-10.89-1.22-12.59-7.9h0Z"/>
    </g>
  </g>
</svg>