<?xml version="1.0" encoding="UTF-8"?>
<svg xmlns="http://www.w3.org/2000/svg" xmlns:xlink="http://www.w3.org/1999/xlink" viewBox="0 0 462.56 108.37">
  <defs>
    <style>
      .cls-1 {
        fill: #68513c;
      }

      .cls-2 {
        fill: url(#Brick_21);
        mix-blend-mode: multiply;
      }

      .cls-3 {
        fill: #a3886c;
      }

      .cls-4 {
        isolation: isolate;
      }

      .cls-5 {
        fill: url(#Earthtone_45-2);
      }

      .cls-5, .cls-6 {
        mix-blend-mode: soft-light;
      }

      .cls-7 {
        fill: #91785c;
      }

      .cls-8 {
        fill: #937a61;
      }

      .cls-9 {
        fill: #775f47;
      }

      .cls-6 {
        fill: url(#Earthtone_45);
      }

      .cls-10 {
        fill: url(#linear-gradient);
      }

      .cls-11 {
        fill: url(#Earthtone_44);
      }

      .cls-12 {
        fill: #90795c;
      }
    </style>
    <linearGradient id="Earthtone_45" data-name="Earthtone 45" x1="5880.12" y1="14.08" x2="5880.12" y2="94.75" gradientTransform="translate(6102.35) rotate(-180) scale(1 -1)" gradientUnits="userSpaceOnUse">
      <stop offset="0" stop-color="#909090"/>
      <stop offset=".54" stop-color="#5a6263"/>
      <stop offset="1" stop-color="#090d0d"/>
    </linearGradient>
    <linearGradient id="Brick_21" data-name="Brick 21" x1="5878.21" y1="2.89" x2="5878.63" y2="41.77" gradientTransform="translate(6102.35) rotate(-180) scale(1 -1)" gradientUnits="userSpaceOnUse">
      <stop offset="0" stop-color="#fff"/>
      <stop offset=".49" stop-color="#fff"/>
      <stop offset="1" stop-color="#e2e2e2"/>
    </linearGradient>
    <linearGradient id="Earthtone_44" data-name="Earthtone 44" x1="5871.07" y1="-738.89" x2="5871.07" y2="-38.02" gradientTransform="translate(6102.35) rotate(-180) scale(1 -1)" gradientUnits="userSpaceOnUse">
      <stop offset="0" stop-color="#636363"/>
      <stop offset=".54" stop-color="#313536"/>
      <stop offset="1" stop-color="#090d0d"/>
    </linearGradient>
    <linearGradient id="linear-gradient" x1="221.36" y1="52.66" x2="211.3" y2="105.95" gradientUnits="userSpaceOnUse">
      <stop offset="0" stop-color="#90795c"/>
      <stop offset="1" stop-color="#504430"/>
    </linearGradient>
    <linearGradient id="Earthtone_45-2" data-name="Earthtone 45" x1="214.33" y1="67.31" x2="214.33" y2="134.42" gradientTransform="matrix(1,0,0,1,0,0)" xlink:href="#Earthtone_45"/>
  </defs>
  <g class="cls-4">
    <g id="Layer_2" data-name="Layer 2">
      <g id="Layer_1-2" data-name="Layer 1">
        <g>
          <g>
            <polygon class="cls-9" points="443.53 36.23 415.95 27.61 376.55 27.61 346.34 27.61 331.89 15.76 283.3 15.76 248.42 26 236.69 22.75 215.15 15.76 169.05 21.15 116.51 26 94.19 36.23 54.79 36.23 24.58 45.92 22.68 57.25 .94 68.53 16.7 77.15 48.22 77.15 91.56 98.68 162.48 98.68 200.56 108.37 246.53 94.38 295.12 92.22 334.52 95.45 348.97 88.99 359.47 81.45 375.23 80.38 396.25 74.99 398.87 62.07 413.32 56.69 429.08 56.69 443.53 36.23"/>
            <polygon class="cls-7" points="339.88 93.05 334.52 95.45 317.92 94.09 331.89 15.76 340.48 22.8 339.67 87.62 339.88 93.05"/>
            <polygon class="cls-8" points="295.12 92.22 267.36 93.45 262.98 83.77 283.3 15.76 331.89 15.76 328.5 94.96 295.12 92.22"/>
            <polygon class="cls-3" points="236.69 22.75 248.42 26 283.3 15.76 283.3 92.74 246.53 94.38 234.92 97.91 236.69 22.75"/>
            <polygon class="cls-1" points="246.53 94.38 234.92 97.91 234.92 97.91 236.69 22.75 248.42 26 248.42 94.29 246.53 94.38"/>
            <polygon class="cls-7" points="215.15 15.76 210.15 49.01 209.92 105.52 200.56 108.37 162.48 98.68 169.05 21.15 215.15 15.76"/>
            <polygon class="cls-3" points="169.05 21.15 169.12 100.37 162.48 98.68 91.56 98.68 116.51 26 169.05 21.15"/>
            <polygon class="cls-12" points="116.51 26 110.89 98.68 91.56 98.68 48.22 77.15 48.22 38.33 54.79 36.23 94.19 36.23 116.51 26"/>
            <polygon class="cls-3" points="53.74 79.89 54.79 36.23 94.19 36.23 89.65 97.73 53.74 79.89"/>
            <polygon class="cls-7" points="36.51 77.15 24.58 77.15 22.68 57.25 24.58 45.92 39.64 41.09 36.51 77.15"/>
            <polygon class="cls-3" points="359.47 81.45 348.97 88.99 344.38 91.04 346.34 27.61 373.21 27.61 372.87 80.54 359.47 81.45"/>
            <polygon class="cls-9" points="413.32 56.69 409.63 58.06 409.63 58.06 415.95 27.61 443.53 36.23 440.72 42.58 429.08 56.69 413.32 56.69"/>
            <polygon class="cls-7" points="371.86 80.61 373.21 27.61 376.55 27.61 415.95 27.61 415.14 56.69 413.32 56.69 398.87 62.07 396.25 74.99 375.23 80.38 371.86 80.61"/>
          </g>
          <polygon class="cls-6" points="443.53 36.23 415.95 27.61 376.55 27.61 346.34 27.61 331.89 15.76 283.3 15.76 248.42 26 236.69 22.75 215.15 15.76 169.05 21.15 116.51 26 94.19 36.23 54.79 36.23 24.58 45.92 22.68 57.25 .94 68.53 16.7 77.15 48.22 77.15 91.56 98.68 162.48 98.68 200.56 108.37 246.53 94.38 295.12 92.22 334.52 95.45 348.97 88.99 359.47 81.45 375.23 80.38 396.25 74.99 398.87 62.07 413.32 56.69 429.08 56.69 440.72 42.58 443.53 36.23"/>
          <polygon class="cls-2" points="6 71.3 21.74 63.13 22.06 61.21 22.68 60.89 24.24 51.6 53.85 42.1 93.24 42.1 115.57 31.87 168.1 27.03 214.2 21.64 235.75 28.63 247.47 31.87 282.36 21.64 330.95 21.64 345.4 33.49 375.6 33.49 415 33.49 441.13 41.65 440.72 42.58 436.13 48.14 415.95 41.83 376.55 41.83 346.34 41.83 331.89 29.99 283.3 29.99 248.42 40.22 236.69 36.98 215.15 29.99 169.05 35.37 116.51 40.22 94.19 50.45 54.79 50.45 27.98 59.05 27.23 59.29 24.58 68.53 23.38 71.51 14.52 75.95 6 71.3"/>
          <path class="cls-11" d="M21.74,56.13l1.22-7.25-.27-.09-2.95-3.51-5.7-1.82h4.32l6.63-1.12,2.04,1.36,26.81-8.6h39.4l22.33-10.23,52.53-4.85,36.52-4.26h0c.77-1.65.91-3.81.91-3.81l1.89-2.31-1.47-3.14.52-1.69-3.57-4.83s10.7,9.23,11.54,9.44c.84.21,2.2,1.63,2.2,1.63l3.15,3.58,1.68,2.36,14.27,4.63,11.72,3.24,34.89-10.23h42.74l.16-.22,3.94-2.36,4.72-.37,8.6-.63-10.62,2.26,3.12,3.65.71,1.59,9.68,7.93h69.6l27.58,8.61,10.64,2.25h4.12l5.23.99-6.02.62-5.39.37-6.65-.73h-1.02.04s-2.8,3.98-2.8,3.98l-24.78-7.74h-69.6l-14.45-11.85h-48.59l-34.89,10.23-11.72-3.24-21.55-6.99-46.1,5.38-52.53,4.85-22.32,10.23h-39.4l-26.81,8.6-.75.24-2.64,9.24-1.21,2.98-15.54,7.78-2.38-1.3-2.28-1.25-3.18-2.34,21.74-11.28Z"/>
          <path class="cls-10" d="M295.12,92.22l39.4,3.23,14.45-6.46,1.59-1.14c-32.79-4.02-69.38-6.54-108.01-7.12-62.51-.94-119.86,3.36-164.45,11.26l13.46,6.69h70.92l38.09,9.69,45.97-14,48.59-2.16Z"/>
          <path class="cls-5" d="M295.12,92.22l39.4,3.23,14.45-6.46,1.59-1.14c-32.79-4.02-69.38-6.54-108.01-7.12-62.51-.94-119.86,3.36-164.45,11.26l13.46,6.69h70.92l38.09,9.69,45.97-14,48.59-2.16Z"/>
        </g>
      </g>
    </g>
  </g>
</svg>