<?xml version="1.0" encoding="UTF-8"?>
<svg id="Layer_2" data-name="Layer 2" xmlns="http://www.w3.org/2000/svg" viewBox="0 0 1961.68 372.73">
  <defs>
    <style>
      .cls-1 {
        fill: #56a051;
      }

      .cls-2 {
        fill: #39803b;
      }

      .cls-3 {
        fill: #529838;
      }

      .cls-4 {
        fill: #74b53b;
      }

      .cls-5 {
        fill: #38803b;
      }

      .cls-6 {
        fill: #58472f;
      }
    </style>
  </defs>
  <g id="Layer_1-2" data-name="Layer 1">
    <g id="Trees">
      <g>
        <g>
          <ellipse class="cls-3" cx="67.94" cy="366.73" rx="66.02" ry="6"/>
          <path class="cls-6" d="M58.16,367.61c1.78-22.38,3.56-44.75,5.34-67.13-14.23-19.27-28.45-38.53-42.68-57.8l7.11-5.34,39.57,51.57.89-44.46,6.22-.44.44,29.79,18.67-32.01c3.56.3,7.11.59,10.67.89-9.34,16.15-18.67,32.31-28.01,48.46.3,25.49.59,50.98.89,76.47-2.16.53-4.78.98-7.78,1.11-4.59.2-8.48-.42-11.34-1.11Z"/>
          <g>
            <path class="cls-2" d="M186.18,176.94c4.36-3.18,7.14-8,7.14-13.4,0-3.94-1.48-7.58-3.99-10.5h0c.29-1.72.44-3.49.44-5.29,0-1.48-.1-2.93-.29-4.35-2.65.18-4.14,1.06-5.04,1.91-2.7,2.55-1.24,5.92-4.45,9.78-.24.29-3.67,4.33-6.67,3.56-2.92-.76-2.24-5.3-4.89-6.67-4.88-2.53-11.44,10.67-21.34,10.67s-16.86-13.08-20.9-10.67c-2.15,1.28-.69,5.3-3.56,7.11-3.08,1.95-6.46-1.64-9.34,0-3.83,2.18.08,9.71-4,13.78-4.18,4.16-11.37-.64-16.89,4.45-2.64,2.43-2.11,4.56-4.45,5.33-4.5,1.49-9.01-5.59-12.45-4-2.2,1.02-.78,4.11-3.11,6.67-3.92,4.29-11.11-.96-19.56,2.67-5.94,2.55-4.73,6.14-9.78,7.56-6.74,1.89-9.43-4.33-20.45-5.34-8.35-.76-9.52,2.57-14.67.44-3.95-1.63-6.03-4.73-7.92-7.17v58.33c3.94,2.49,8.84,3.97,14.15,3.97,9.11,0,17.01-4.34,20.93-10.69,1.54.3,3.17.47,4.85.47,2.3,0,4.5-.3,6.5-.85.05.07.1.13.15.2,10.38,13.09,24.95,18.82,32.55,12.8,2.37-1.87,3.77-4.66,4.29-8.01,4.2,5.09,10.35,8.31,17.2,8.31,5.67,0,10.87-2.21,14.87-5.86.8,1.9,2,3.53,3.58,4.78,7.6,6.02,21.42,1.24,30.88-10.7,4.15-5.23,6.76-10.97,7.75-16.27,4.24,6.26,10.65,10.26,17.83,10.26,12.77,0,23.12-12.64,23.12-28.23,0-10.9-5.06-20.36-12.47-25.06Z"/>
            <path class="cls-1" d="M189.28,142.23c-3.22.36-5.9.86-7.97,1.31-3.54.77-4.45,1.24-6.22.89-6.04-1.19-6.5-8.68-10.67-9.34-4.58-.72-5.93,8.01-14.67,12.89-7.12,3.98-18.78,5.21-25.34,0-3.74-2.97-5.66-7.92-9.34-7.56-1.6.16-2.02,1.17-4.89,1.78-.53.12-3.21.65-6.22,0-5.07-1.1-6.4-4.55-8-4-2.96,1.01,2.09,12.65-2.67,17.78-5.37,5.79-17.37-3.01-24.9,3.56-4.48,3.91-3.42,9.83-8.89,12-3.66,1.46-7.35.08-7.56,0-5.98-2.33-7.14-9.76-9.78-9.34-2,.32-2.04,4.72-4,4.89-1.85.16-2.41-3.72-6.22-6.22-.71-.47-4.44-2.92-7.56-1.78-4.7,1.72-3.25,9.88-8.89,12.45-.56.25-2.53,1.15-4.45.44-1.85-.68-2.14-2.29-3.11-2.67-1.17-.45-3.4.88-7.92,7.3v6.88c1.89,2.44,3.97,5.54,7.92,7.17,5.15,2.13,6.32-1.2,14.67-.44,11.02,1,13.72,7.23,20.45,5.34,5.05-1.42,3.84-5.01,9.78-7.56,8.45-3.62,15.64,1.63,19.56-2.67,2.33-2.56.92-5.65,3.11-6.67,3.44-1.59,7.94,5.5,12.45,4,2.33-.77,1.81-2.9,4.45-5.33,5.52-5.09,12.72-.28,16.89-4.45,4.08-4.07.17-11.6,4-13.78,2.88-1.64,6.26,1.95,9.34,0,2.86-1.81,1.41-5.83,3.56-7.11,4.03-2.41,11.04,10.67,20.9,10.67s16.46-13.2,21.34-10.67c2.65,1.37,1.97,5.91,4.89,6.67,3,.77,6.43-3.27,6.67-3.56,3.2-3.86,1.74-7.23,4.45-9.78.9-.85,2.39-1.73,5.04-1.91-.05-.4-.11-.79-.18-1.18Z"/>
            <path class="cls-4" d="M157.53,115.53c-2.85,0-5.62.37-8.26,1.07,1.18-3.4,1.81-6.96,1.81-10.63,0-23.2-25.18-42.01-56.24-42.01-15.31,0-29.19,4.57-39.33,11.99-4.73-6.84-12.64-11.32-21.58-11.32-14.48,0-26.23,11.75-26.23,26.23,0,.36,0,.71.02,1.07-2.4-1.07-5-1.78-7.72-2.05v86.75c4.52-6.41,6.76-7.75,7.92-7.3.97.37,1.26,1.99,3.11,2.67,1.92.7,3.89-.19,4.45-.44,5.65-2.57,4.19-10.73,8.89-12.45,3.12-1.14,6.85,1.31,7.56,1.78,3.81,2.51,4.37,6.39,6.22,6.22,1.96-.17,2-4.57,4-4.89,2.64-.43,3.8,7.01,9.78,9.34.21.08,3.89,1.46,7.56,0,5.47-2.17,4.41-8.09,8.89-12,7.52-6.57,19.53,2.24,24.9-3.56,4.76-5.13-.29-16.77,2.67-17.78,1.6-.55,2.93,2.9,8,4,3.01.65,5.69.12,6.22,0,2.87-.61,3.29-1.62,4.89-1.78,3.68-.36,5.6,4.58,9.34,7.56,6.56,5.21,18.22,3.98,25.34,0,8.74-4.89,10.09-13.62,14.67-12.89,4.17.66,4.63,8.15,10.67,9.34,1.78.35,2.68-.12,6.22-.89,2.07-.45,4.75-.95,7.97-1.31-2.62-15.16-15.85-26.7-31.76-26.7Z"/>
          </g>
        </g>
        <g>
          <ellipse class="cls-3" cx="388.13" cy="254.69" rx="43.27" ry="3.93"/>
          <path class="cls-6" d="M381.71,255.27c1.17-14.67,2.33-29.33,3.5-44-9.32-12.63-18.65-25.25-27.97-37.88l4.66-3.5,25.93,33.8.58-29.14,4.08-.29.29,19.52,12.24-20.98c2.33.19,4.66.39,6.99.58-6.12,10.59-12.24,21.17-18.36,31.76.19,16.71.39,33.41.58,50.12-1.41.34-3.13.64-5.1.73-3.01.13-5.55-.27-7.43-.73Z"/>
          <g>
            <path class="cls-2" d="M473.79,146.74c0,10.22-6.78,18.5-15.15,18.5-4.7,0-8.9-2.62-11.68-6.72-.65,3.47-2.36,7.23-5.08,10.66-6.2,7.82-15.26,10.96-20.24,7.01-1.04-.82-1.82-1.89-2.35-3.14-2.62,2.39-6.03,3.84-9.74,3.84-4.49,0-8.52-2.11-11.27-5.45-.34,2.19-1.26,4.02-2.81,5.25-4.98,3.95-14.53.19-21.33-8.39-.03-.04-.07-.08-.1-.13-1.31.36-2.75.56-4.26.56-1.11,0-2.17-.11-3.18-.31-2.57,4.16-7.75,7.01-13.72,7.01-4.72,0-8.95-1.78-11.78-4.58-1.53.14-3.1.21-4.69.21-19.23,0-34.82-10.17-34.82-22.73,0-8.99,8-16.77,19.61-20.45-.17-.09-.35-.18-.52-.27.94.3,1.77.61,2.47.91,5.1,2.15,5.77,4.18,9.91,4.66,0,0,.34.04.69.06,1.74.09,5.09-.84,6.31-.93.68-.05,1.24.13,1.76.46,2.01,1.3,3.17,4.96,6.98,6.53,3.38,1.39,4.14-.79,9.62-.29,7.22.66,8.99,4.74,13.4,3.5,3.31-.93,2.52-3.28,6.41-4.95,5.54-2.37,10.25,1.07,12.82-1.75,1.53-1.68.6-3.7,2.04-4.37,2.25-1.04,5.21,3.6,8.16,2.62,1.53-.51,1.19-1.9,2.91-3.5,3.62-3.34,8.33-.19,11.07-2.91,2.67-2.67.11-7.6,2.62-9.03,1.89-1.08,4.1,1.28,6.12,0,1.88-1.19.92-3.82,2.33-4.66,2.64-1.58,7.23,6.99,13.69,6.99s10.79-8.65,13.99-6.99c1.74.9,1.29,3.88,3.21,4.37,1.97.51,4.21-2.14,4.37-2.33,2.1-2.53,1.14-4.74,2.91-6.41.59-.56,1.57-1.13,3.3-1.25.13.93.19,1.89.19,2.85,0,1.18-.1,2.33-.29,3.46h0c1.64,1.91,2.62,4.3,2.62,6.88,0,3.53-1.82,6.69-4.68,8.78,4.86,3.08,8.17,9.28,8.17,16.42Z"/>
            <path class="cls-1" d="M467.77,108.34c-1.74.12-2.72.69-3.3,1.25-1.77,1.67-.82,3.88-2.91,6.41-.16.19-2.4,2.84-4.37,2.33-1.91-.5-1.47-3.47-3.21-4.37-3.2-1.65-7.5,6.99-13.99,6.99s-11.05-8.57-13.69-6.99c-1.41.84-.45,3.48-2.33,4.66-2.02,1.28-4.23-1.08-6.12,0-2.51,1.43.05,6.37-2.62,9.03-2.74,2.73-7.45-.42-11.07,2.91-1.73,1.59-1.38,2.99-2.91,3.5-2.95.98-5.91-3.67-8.16-2.62-1.44.67-.51,2.7-2.04,4.37-2.57,2.81-7.28-.63-12.82,1.75-3.89,1.67-3.1,4.02-6.41,4.95-4.41,1.24-6.18-2.84-13.4-3.5-5.47-.5-6.24,1.68-9.62.29-3.81-1.57-4.97-5.23-6.98-6.53,4.19-6.52,6.08-7.8,6.98-7.45.64.24.82,1.3,2.04,1.75,1.26.46,2.55-.13,2.91-.29,3.7-1.68,2.74-7.03,5.83-8.16,2.04-.75,4.49.86,4.95,1.17,2.5,1.64,2.86,4.19,4.08,4.08,1.28-.11,1.31-2.99,2.62-3.21,1.73-.28,2.49,4.59,6.41,6.12.14.05,2.55.96,4.95,0,3.58-1.42,2.89-5.3,5.83-7.87,4.93-4.3,12.8,1.47,16.32-2.33,3.12-3.37-.19-10.99,1.75-11.65,1.05-.36,1.92,1.9,5.24,2.62,1.98.43,3.73.08,4.08,0,1.88-.4,2.16-1.06,3.21-1.17,2.41-.24,3.67,3,6.12,4.95,4.3,3.42,11.94,2.61,16.61,0,5.73-3.2,6.61-8.92,9.62-8.45,2.74.43,3.03,5.34,6.99,6.12,1.17.23,1.76-.08,4.08-.58,1.36-.3,3.11-.62,5.22-.86.05.26.08.51.12.78Z"/>
            <path class="cls-4" d="M467.65,107.56c-2.11.24-3.87.56-5.22.86-2.32.51-2.91.81-4.08.58-3.96-.78-4.26-5.69-6.99-6.12-3-.47-3.89,5.25-9.62,8.45-4.66,2.61-12.31,3.42-16.61,0-2.45-1.95-3.71-5.19-6.12-4.95-1.05.1-1.33.77-3.21,1.17-.35.08-2.1.43-4.08,0-3.32-.72-4.2-2.98-5.24-2.62-1.94.66,1.37,8.29-1.75,11.65-3.52,3.8-11.39-1.97-16.32,2.33-2.94,2.56-2.24,6.44-5.83,7.87-2.4.96-4.82.05-4.95,0-3.92-1.52-4.68-6.4-6.41-6.12-1.31.21-1.34,3.09-2.62,3.21-1.21.11-1.58-2.44-4.08-4.08-.47-.31-2.91-1.91-4.95-1.17-3.08,1.13-2.13,6.47-5.83,8.16-.37.17-1.66.75-2.91.29-1.21-.45-1.4-1.5-2.04-1.75-.91-.35-2.79.94-6.98,7.45-.51-.33-1.08-.51-1.76-.46-1.22.08-4.57,1.02-6.31.93-.35-.02-.69-.06-.69-.06-4.13-.48-4.8-2.51-9.91-4.66-.7-.3-1.53-.61-2.47-.91h0c-5.29-2.89-8.89-8.51-8.89-14.97,0-8.68,6.48-15.84,14.87-16.91-.76-1.89-1.17-3.95-1.17-6.11,0-9.09,7.37-16.46,16.46-16.46,2.39,0,4.66.51,6.72,1.43,0-.23-.01-.47-.01-.7,0-9.49,7.7-17.19,17.19-17.19,5.86,0,11.04,2.94,14.14,7.42,6.65-4.86,15.74-7.86,25.77-7.86,20.36,0,36.86,12.33,36.86,27.53,0,2.41-.41,4.74-1.19,6.97,1.73-.46,3.54-.7,5.41-.7,10.43,0,19.09,7.56,20.81,17.5Z"/>
          </g>
        </g>
        <g>
          <ellipse class="cls-3" cx="598.19" cy="170.72" rx="27.3" ry="2.48"/>
          <path class="cls-6" d="M594.14,171.09c.74-9.25,1.47-18.51,2.21-27.76-5.88-7.97-11.77-15.93-17.65-23.9l2.94-2.21,16.36,21.33.37-18.38,2.57-.18.18,12.32,7.72-13.24c1.47.12,2.94.25,4.41.37-3.86,6.68-7.72,13.36-11.58,20.04.12,10.54.25,21.08.37,31.62-.89.22-1.98.4-3.22.46-1.9.08-3.5-.17-4.69-.46Z"/>
          <g>
            <path class="cls-2" d="M652.24,102.61c0,6.45-4.28,11.67-9.56,11.67-2.97,0-5.62-1.65-7.37-4.24-.41,2.19-1.49,4.56-3.21,6.73-3.91,4.93-9.63,6.91-12.77,4.42-.66-.52-1.15-1.19-1.48-1.98-1.65,1.51-3.8,2.42-6.15,2.42-2.83,0-5.38-1.33-7.11-3.44-.21,1.38-.79,2.54-1.77,3.31-3.14,2.49-9.17.12-13.46-5.29-.02-.03-.04-.05-.06-.08-.83.23-1.74.35-2.69.35-.7,0-1.37-.07-2.01-.19-1.62,2.63-4.89,4.42-8.66,4.42-2.98,0-5.64-1.12-7.43-2.89-.97.09-1.95.13-2.96.13-12.13,0-21.97-6.42-21.97-14.34,0-5.67,5.05-10.58,12.37-12.9-.11-.06-.22-.11-.33-.17.6.19,1.12.38,1.56.57,3.22,1.35,3.64,2.64,6.25,2.94,0,0,.22.02.43.03,1.1.06,3.21-.53,3.98-.59.43-.03.78.08,1.11.29,1.27.82,2,3.13,4.41,4.12,2.13.88,2.61-.5,6.07-.18,4.56.42,5.67,2.99,8.46,2.21,2.09-.59,1.59-2.07,4.04-3.13,3.49-1.5,6.47.67,8.09-1.1.97-1.06.38-2.34,1.29-2.76,1.42-.66,3.29,2.27,5.15,1.65.97-.32.75-1.2,1.84-2.21,2.28-2.1,5.26-.12,6.99-1.84,1.69-1.68.07-4.8,1.65-5.7,1.19-.68,2.59.81,3.86,0,1.18-.75.58-2.41,1.47-2.94,1.67-1,4.56,4.41,8.64,4.41s6.81-5.46,8.82-4.41c1.1.57.81,2.45,2.02,2.76,1.24.32,2.66-1.35,2.76-1.47,1.32-1.6.72-2.99,1.84-4.04.37-.35.99-.72,2.08-.79.08.59.12,1.19.12,1.8,0,.74-.06,1.47-.18,2.18h0c1.04,1.21,1.65,2.71,1.65,4.34,0,2.23-1.15,4.22-2.95,5.54,3.06,1.94,5.16,5.86,5.16,10.36Z"/>
            <path class="cls-1" d="M648.44,78.38c-1.1.07-1.71.44-2.08.79-1.12,1.05-.51,2.45-1.84,4.04-.1.12-1.52,1.79-2.76,1.47-1.21-.31-.93-2.19-2.02-2.76-2.02-1.04-4.73,4.41-8.82,4.41s-6.97-5.41-8.64-4.41c-.89.53-.29,2.19-1.47,2.94-1.27.81-2.67-.68-3.86,0-1.58.9.03,4.02-1.65,5.7-1.73,1.72-4.7-.27-6.99,1.84-1.09,1.01-.87,1.89-1.84,2.21-1.86.62-3.73-2.31-5.15-1.65-.91.42-.32,1.7-1.29,2.76-1.62,1.78-4.6-.4-8.09,1.1-2.46,1.05-1.96,2.54-4.04,3.13-2.79.78-3.9-1.79-8.46-2.21-3.45-.31-3.94,1.06-6.07.18-2.41-.99-3.14-3.3-4.41-4.12,2.64-4.11,3.83-4.92,4.41-4.7.4.15.52.82,1.29,1.1.79.29,1.61-.08,1.84-.18,2.33-1.06,1.73-4.44,3.68-5.15,1.29-.47,2.83.54,3.13.74,1.58,1.04,1.81,2.64,2.57,2.57.81-.07.83-1.89,1.65-2.02,1.09-.18,1.57,2.9,4.04,3.86.09.03,1.61.6,3.13,0,2.26-.9,1.82-3.35,3.68-4.96,3.11-2.72,8.08.92,10.29-1.47,1.97-2.12-.12-6.94,1.1-7.35.66-.23,1.21,1.2,3.31,1.65,1.25.27,2.35.05,2.57,0,1.19-.25,1.36-.67,2.02-.74,1.52-.15,2.31,1.9,3.86,3.13,2.71,2.16,7.54,1.65,10.48,0,3.61-2.02,4.17-5.63,6.07-5.33,1.73.27,1.91,3.37,4.41,3.86.74.15,1.11-.05,2.57-.37.86-.19,1.96-.39,3.3-.54.03.16.05.32.08.49Z"/>
            <path class="cls-4" d="M648.36,77.89c-1.33.15-2.44.35-3.3.54-1.47.32-1.84.51-2.57.37-2.5-.49-2.69-3.59-4.41-3.86-1.9-.3-2.45,3.31-6.07,5.33-2.94,1.65-7.77,2.16-10.48,0-1.55-1.23-2.34-3.28-3.86-3.13-.66.07-.84.48-2.02.74-.22.05-1.33.27-2.57,0-2.1-.45-2.65-1.88-3.31-1.65-1.22.42.86,5.23-1.1,7.35-2.22,2.4-7.18-1.24-10.29,1.47-1.85,1.62-1.42,4.06-3.68,4.96-1.51.6-3.04.03-3.13,0-2.47-.96-2.95-4.04-4.04-3.86-.83.13-.84,1.95-1.65,2.02-.77.07-1-1.54-2.57-2.57-.29-.19-1.84-1.21-3.13-.74-1.95.71-1.34,4.08-3.68,5.15-.23.1-1.04.47-1.84.18-.77-.28-.89-.95-1.29-1.1-.57-.22-1.76.59-4.41,4.7-.32-.21-.68-.32-1.11-.29-.77.05-2.88.64-3.98.59-.22-.01-.43-.03-.43-.03-2.61-.31-3.03-1.59-6.25-2.94-.44-.19-.96-.38-1.56-.57h0c-3.34-1.83-5.61-5.37-5.61-9.45,0-5.47,4.09-9.99,9.38-10.67-.48-1.19-.74-2.49-.74-3.86,0-5.74,4.65-10.39,10.39-10.39,1.51,0,2.94.32,4.24.9,0-.15,0-.29,0-.44,0-5.99,4.86-10.85,10.85-10.85,3.7,0,6.97,1.85,8.92,4.68,4.19-3.07,9.93-4.96,16.26-4.96,12.84,0,23.26,7.78,23.26,17.37,0,1.52-.26,2.99-.75,4.4,1.09-.29,2.24-.44,3.42-.44,6.58,0,12.05,4.77,13.13,11.04Z"/>
          </g>
        </g>
        <g>
          <ellipse class="cls-3" cx="749.21" cy="112.48" rx="16.57" ry="1.51"/>
          <path class="cls-6" d="M746.76,112.71c.45-5.62.89-11.23,1.34-16.85-3.57-4.84-7.14-9.67-10.71-14.51l1.79-1.34,9.93,12.95.22-11.16,1.56-.11.11,7.48,4.69-8.04c.89.07,1.79.15,2.68.22-2.34,4.05-4.69,8.11-7.03,12.16.07,6.4.15,12.8.22,19.2-.54.13-1.2.25-1.95.28-1.15.05-2.13-.1-2.85-.28Z"/>
          <g>
            <path class="cls-2" d="M782.03,71.14c0,3.91-2.6,7.09-5.8,7.09-1.8,0-3.41-1-4.48-2.57-.25,1.33-.91,2.77-1.95,4.08-2.37,3-5.84,4.2-7.75,2.69-.4-.32-.7-.72-.9-1.2-1,.92-2.31,1.47-3.73,1.47-1.72,0-3.26-.81-4.32-2.09-.13.84-.48,1.54-1.08,2.01-1.91,1.51-5.57.07-8.17-3.21-.01-.02-.03-.03-.04-.05-.5.14-1.05.21-1.63.21-.42,0-.83-.04-1.22-.12-.98,1.59-2.97,2.68-5.25,2.68-1.81,0-3.43-.68-4.51-1.75-.59.05-1.19.08-1.79.08-7.37,0-13.34-3.9-13.34-8.71,0-3.44,3.06-6.42,7.51-7.83-.07-.03-.13-.07-.2-.1.36.11.68.23.95.35,1.95.82,2.21,1.6,3.79,1.79,0,0,.13.01.26.02.67.03,1.95-.32,2.42-.36.26-.02.48.05.67.18.77.5,1.21,1.9,2.68,2.5,1.29.53,1.59-.3,3.68-.11,2.77.25,3.44,1.81,5.13,1.34,1.27-.36.96-1.26,2.46-1.9,2.12-.91,3.93.41,4.91-.67.59-.64.23-1.42.78-1.67.86-.4,1.99,1.38,3.12,1,.59-.19.45-.73,1.12-1.34,1.39-1.28,3.19-.07,4.24-1.12,1.02-1.02.04-2.91,1-3.46.72-.41,1.57.49,2.34,0,.72-.45.35-1.46.89-1.79,1.01-.6,2.77,2.68,5.25,2.68s4.13-3.31,5.36-2.68c.67.34.49,1.48,1.23,1.67.75.19,1.61-.82,1.67-.89.8-.97.44-1.82,1.12-2.46.23-.21.6-.43,1.27-.48.05.36.07.72.07,1.09,0,.45-.04.89-.11,1.33h0c.63.73,1,1.65,1,2.64,0,1.35-.7,2.56-1.79,3.36,1.86,1.18,3.13,3.55,3.13,6.29Z"/>
            <path class="cls-1" d="M779.72,56.43c-.67.04-1.04.27-1.27.48-.68.64-.31,1.49-1.12,2.46-.06.07-.92,1.09-1.67.89-.73-.19-.56-1.33-1.23-1.67-1.22-.63-2.87,2.68-5.36,2.68s-4.23-3.28-5.25-2.68c-.54.32-.17,1.33-.89,1.79-.77.49-1.62-.41-2.34,0-.96.55.02,2.44-1,3.46-1.05,1.04-2.85-.16-4.24,1.12-.66.61-.53,1.15-1.12,1.34-1.13.37-2.26-1.4-3.12-1-.55.26-.2,1.03-.78,1.67-.98,1.08-2.79-.24-4.91.67-1.49.64-1.19,1.54-2.46,1.9-1.69.48-2.37-1.09-5.13-1.34-2.1-.19-2.39.65-3.68.11-1.46-.6-1.9-2-2.68-2.5,1.6-2.5,2.33-2.99,2.68-2.85.24.09.32.5.78.67.48.18.98-.05,1.12-.11,1.42-.65,1.05-2.69,2.23-3.12.78-.29,1.72.33,1.9.45.96.63,1.1,1.6,1.56,1.56.49-.04.5-1.15,1-1.23.66-.11.95,1.76,2.46,2.34.05.02.98.37,1.9,0,1.37-.55,1.11-2.03,2.23-3.01,1.89-1.65,4.9.56,6.25-.89,1.19-1.29-.07-4.21.67-4.46.4-.14.74.73,2.01,1,.76.16,1.43.03,1.56,0,.72-.15.83-.41,1.23-.45.92-.09,1.41,1.15,2.34,1.9,1.65,1.31,4.57,1,6.36,0,2.19-1.23,2.53-3.42,3.68-3.24,1.05.17,1.16,2.05,2.68,2.34.45.09.67-.03,1.56-.22.52-.11,1.19-.24,2-.33.02.1.03.2.05.3Z"/>
            <path class="cls-4" d="M779.67,56.13c-.81.09-1.48.22-2,.33-.89.19-1.12.31-1.56.22-1.52-.3-1.63-2.18-2.68-2.34-1.15-.18-1.49,2.01-3.68,3.24-1.79,1-4.72,1.31-6.36,0-.94-.75-1.42-1.99-2.34-1.9-.4.04-.51.29-1.23.45-.13.03-.81.16-1.56,0-1.27-.28-1.61-1.14-2.01-1-.74.25.52,3.18-.67,4.46-1.35,1.45-4.36-.76-6.25.89-1.12.98-.86,2.47-2.23,3.01-.92.37-1.84.02-1.9,0-1.5-.58-1.79-2.45-2.46-2.34-.5.08-.51,1.18-1,1.23-.47.04-.6-.93-1.56-1.56-.18-.12-1.11-.73-1.9-.45-1.18.43-.81,2.48-2.23,3.12-.14.06-.63.29-1.12.11-.47-.17-.54-.58-.78-.67-.35-.13-1.07.36-2.68,2.85-.2-.13-.41-.19-.67-.18-.47.03-1.75.39-2.42.36-.13,0-.26-.02-.26-.02-1.58-.19-1.84-.96-3.79-1.79-.27-.11-.58-.23-.95-.35h0c-2.03-1.11-3.41-3.26-3.41-5.74,0-3.32,2.48-6.07,5.7-6.48-.29-.72-.45-1.51-.45-2.34,0-3.48,2.82-6.31,6.31-6.31.92,0,1.79.2,2.57.55,0-.09,0-.18,0-.27,0-3.64,2.95-6.58,6.58-6.58,2.25,0,4.23,1.12,5.42,2.84,2.55-1.86,6.03-3.01,9.87-3.01,7.8,0,14.12,4.72,14.12,10.55,0,.92-.16,1.82-.46,2.67.66-.18,1.36-.27,2.07-.27,3.99,0,7.31,2.9,7.97,6.7Z"/>
          </g>
        </g>
        <g>
          <ellipse class="cls-3" cx="829.89" cy="79.89" rx="9.51" ry=".86"/>
          <path class="cls-6" d="M828.48,80.01c.26-3.22.51-6.45.77-9.67-2.05-2.78-4.1-5.55-6.15-8.33l1.03-.77,5.7,7.43.13-6.41.9-.06.06,4.29,2.69-4.61c.51.04,1.03.09,1.54.13-1.35,2.33-2.69,4.66-4.04,6.98.04,3.67.09,7.35.13,11.02-.31.08-.69.14-1.12.16-.66.03-1.22-.06-1.63-.16Z"/>
          <g>
            <path class="cls-2" d="M848.73,56.15c0,2.25-1.49,4.07-3.33,4.07-1.03,0-1.96-.58-2.57-1.48-.14.76-.52,1.59-1.12,2.34-1.36,1.72-3.36,2.41-4.45,1.54-.23-.18-.4-.42-.52-.69-.58.53-1.32.84-2.14.84-.99,0-1.87-.46-2.48-1.2-.07.48-.28.88-.62,1.15-1.1.87-3.2.04-4.69-1.84,0,0-.01-.02-.02-.03-.29.08-.6.12-.94.12-.24,0-.48-.02-.7-.07-.56.92-1.7,1.54-3.02,1.54-1.04,0-1.97-.39-2.59-1.01-.34.03-.68.05-1.03.05-4.23,0-7.66-2.24-7.66-5,0-1.98,1.76-3.69,4.31-4.5-.04-.02-.08-.04-.11-.06.21.07.39.13.54.2,1.12.47,1.27.92,2.18,1.03,0,0,.07,0,.15.01.38.02,1.12-.19,1.39-.2.15-.01.27.03.39.1.44.29.7,1.09,1.54,1.44.74.31.91-.17,2.11-.06,1.59.14,1.98,1.04,2.95.77.73-.21.55-.72,1.41-1.09,1.22-.52,2.25.23,2.82-.38.34-.37.13-.81.45-.96.5-.23,1.14.79,1.79.58.34-.11.26-.42.64-.77.8-.73,1.83-.04,2.43-.64.59-.59.02-1.67.58-1.99.42-.24.9.28,1.35,0,.41-.26.2-.84.51-1.03.58-.35,1.59,1.54,3.01,1.54s2.37-1.9,3.08-1.54c.38.2.28.85.7.96.43.11.93-.47.96-.51.46-.56.25-1.04.64-1.41.13-.12.34-.25.73-.27.03.21.04.41.04.63,0,.26-.02.51-.06.76h0c.36.42.58.95.58,1.51,0,.78-.4,1.47-1.03,1.93,1.07.68,1.8,2.04,1.8,3.61Z"/>
            <path class="cls-1" d="M847.41,47.7c-.38.03-.6.15-.73.27-.39.37-.18.85-.64,1.41-.03.04-.53.62-.96.51-.42-.11-.32-.76-.7-.96-.7-.36-1.65,1.54-3.08,1.54s-2.43-1.88-3.01-1.54c-.31.18-.1.76-.51,1.03-.44.28-.93-.24-1.35,0-.55.31.01,1.4-.58,1.99-.6.6-1.64-.09-2.43.64-.38.35-.3.66-.64.77-.65.22-1.3-.81-1.79-.58-.32.15-.11.59-.45.96-.57.62-1.6-.14-2.82.38-.86.37-.68.88-1.41,1.09-.97.27-1.36-.62-2.95-.77-1.2-.11-1.37.37-2.11.06-.84-.35-1.09-1.15-1.54-1.44.92-1.43,1.34-1.72,1.54-1.64.14.05.18.29.45.38.28.1.56-.03.64-.06.81-.37.6-1.55,1.28-1.79.45-.16.99.19,1.09.26.55.36.63.92.9.9.28-.02.29-.66.58-.7.38-.06.55,1.01,1.41,1.35.03.01.56.21,1.09,0,.79-.31.64-1.17,1.28-1.73,1.08-.95,2.81.32,3.59-.51.69-.74-.04-2.42.38-2.56.23-.08.42.42,1.15.58.43.09.82.02.9,0,.41-.09.47-.23.7-.26.53-.05.81.66,1.35,1.09.95.75,2.63.57,3.65,0,1.26-.7,1.45-1.96,2.11-1.86.6.09.67,1.17,1.54,1.35.26.05.39-.02.9-.13.3-.07.68-.14,1.15-.19.01.06.02.11.03.17Z"/>
            <path class="cls-4" d="M847.38,47.53c-.46.05-.85.12-1.15.19-.51.11-.64.18-.9.13-.87-.17-.94-1.25-1.54-1.35-.66-.1-.85,1.15-2.11,1.86-1.03.57-2.71.75-3.65,0-.54-.43-.82-1.14-1.35-1.09-.23.02-.29.17-.7.26-.08.02-.46.09-.9,0-.73-.16-.92-.66-1.15-.58-.43.15.3,1.82-.38,2.56-.77.83-2.5-.43-3.59.51-.65.56-.49,1.42-1.28,1.73-.53.21-1.06.01-1.09,0-.86-.34-1.03-1.41-1.41-1.35-.29.05-.29.68-.58.7-.27.02-.35-.54-.9-.9-.1-.07-.64-.42-1.09-.26-.68.25-.47,1.42-1.28,1.79-.08.04-.36.17-.64.06-.27-.1-.31-.33-.45-.38-.2-.08-.61.21-1.54,1.64-.11-.07-.24-.11-.39-.1-.27.02-1,.22-1.39.2-.08,0-.15-.01-.15-.01-.91-.11-1.06-.55-2.18-1.03-.15-.07-.34-.13-.54-.2h0c-1.16-.64-1.95-1.87-1.95-3.29,0-1.91,1.43-3.48,3.27-3.72-.17-.42-.26-.87-.26-1.34,0-2,1.62-3.62,3.62-3.62.53,0,1.03.11,1.48.31,0-.05,0-.1,0-.15,0-2.09,1.69-3.78,3.78-3.78,1.29,0,2.43.65,3.11,1.63,1.46-1.07,3.46-1.73,5.67-1.73,4.48,0,8.1,2.71,8.1,6.05,0,.53-.09,1.04-.26,1.53.38-.1.78-.15,1.19-.15,2.29,0,4.2,1.66,4.58,3.85Z"/>
          </g>
        </g>
        <g>
          <ellipse class="cls-3" cx="888" cy="57.64" rx="6.22" ry=".57"/>
          <path class="cls-6" d="M887.08,57.73c.17-2.11.33-4.21.5-6.32-1.34-1.81-2.68-3.63-4.02-5.44l.67-.5,3.73,4.86.08-4.19.59-.04.04,2.8,1.76-3.01c.33.03.67.06,1,.08-.88,1.52-1.76,3.04-2.64,4.56.03,2.4.06,4.8.08,7.2-.2.05-.45.09-.73.1-.43.02-.8-.04-1.07-.1Z"/>
          <g>
            <path class="cls-2" d="M900.31,42.13c0,1.47-.97,2.66-2.18,2.66-.68,0-1.28-.38-1.68-.97-.09.5-.34,1.04-.73,1.53-.89,1.12-2.19,1.57-2.91,1.01-.15-.12-.26-.27-.34-.45-.38.34-.87.55-1.4.55-.65,0-1.22-.3-1.62-.78-.05.32-.18.58-.4.75-.72.57-2.09.03-3.06-1.21,0,0,0-.01-.01-.02-.19.05-.4.08-.61.08-.16,0-.31-.02-.46-.04-.37.6-1.11,1.01-1.97,1.01-.68,0-1.29-.26-1.69-.66-.22.02-.45.03-.67.03-2.76,0-5-1.46-5-3.27,0-1.29,1.15-2.41,2.82-2.94-.03-.01-.05-.03-.07-.04.14.04.25.09.36.13.73.31.83.6,1.42.67,0,0,.05,0,.1,0,.25.01.73-.12.91-.13.1,0,.18.02.25.07.29.19.46.71,1,.94.49.2.59-.11,1.38-.04,1.04.09,1.29.68,1.93.5.48-.13.36-.47.92-.71.8-.34,1.47.15,1.84-.25.22-.24.09-.53.29-.63.32-.15.75.52,1.17.38.22-.07.17-.27.42-.5.52-.48,1.2-.03,1.59-.42.38-.38.02-1.09.38-1.3.27-.15.59.18.88,0,.27-.17.13-.55.33-.67.38-.23,1.04,1,1.97,1s1.55-1.24,2.01-1c.25.13.19.56.46.63.28.07.61-.31.63-.33.3-.36.16-.68.42-.92.08-.08.23-.16.47-.18.02.13.03.27.03.41,0,.17-.01.34-.04.5h0c.24.28.38.62.38.99,0,.51-.26.96-.67,1.26.7.44,1.17,1.33,1.17,2.36Z"/>
            <path class="cls-1" d="M899.45,36.62c-.25.02-.39.1-.47.18-.25.24-.12.56-.42.92-.02.03-.35.41-.63.33-.28-.07-.21-.5-.46-.63-.46-.24-1.08,1-2.01,1s-1.59-1.23-1.97-1c-.2.12-.07.5-.33.67-.29.18-.61-.15-.88,0-.36.21,0,.91-.38,1.3-.39.39-1.07-.06-1.59.42-.25.23-.2.43-.42.5-.42.14-.85-.53-1.17-.38-.21.1-.07.39-.29.63-.37.4-1.05-.09-1.84.25-.56.24-.45.58-.92.71-.63.18-.89-.41-1.93-.5-.79-.07-.9.24-1.38.04-.55-.23-.71-.75-1-.94.6-.94.87-1.12,1-1.07.09.04.12.19.29.25.18.07.37-.02.42-.04.53-.24.39-1.01.84-1.17.29-.11.64.12.71.17.36.24.41.6.59.59.18-.02.19-.43.38-.46.25-.04.36.66.92.88.02,0,.37.14.71,0,.51-.2.42-.76.84-1.13.71-.62,1.84.21,2.34-.33.45-.48-.03-1.58.25-1.67.15-.05.28.27.75.38.28.06.54.01.59,0,.27-.06.31-.15.46-.17.35-.03.53.43.88.71.62.49,1.72.37,2.39,0,.82-.46.95-1.28,1.38-1.21.39.06.44.77,1,.88.17.03.25-.01.59-.08.2-.04.45-.09.75-.12,0,.04.01.07.02.11Z"/>
            <path class="cls-4" d="M899.43,36.5c-.3.03-.56.08-.75.12-.33.07-.42.12-.59.08-.57-.11-.61-.82-1-.88-.43-.07-.56.75-1.38,1.21-.67.37-1.77.49-2.39,0-.35-.28-.53-.75-.88-.71-.15.02-.19.11-.46.17-.05.01-.3.06-.59,0-.48-.1-.6-.43-.75-.38-.28.1.2,1.19-.25,1.67-.51.55-1.64-.28-2.34.33-.42.37-.32.93-.84,1.13-.34.14-.69,0-.71,0-.56-.22-.67-.92-.92-.88-.19.03-.19.44-.38.46-.17.02-.23-.35-.59-.59-.07-.04-.42-.28-.71-.17-.44.16-.31.93-.84,1.17-.05.02-.24.11-.42.04-.17-.06-.2-.22-.29-.25-.13-.05-.4.13-1,1.07-.07-.05-.15-.07-.25-.07-.18.01-.66.15-.91.13-.05,0-.1,0-.1,0-.59-.07-.69-.36-1.42-.67-.1-.04-.22-.09-.36-.13h0c-.76-.42-1.28-1.22-1.28-2.15,0-1.25.93-2.28,2.14-2.43-.11-.27-.17-.57-.17-.88,0-1.31,1.06-2.37,2.37-2.37.34,0,.67.07.96.21,0-.03,0-.07,0-.1,0-1.36,1.11-2.47,2.47-2.47.84,0,1.59.42,2.03,1.07.95-.7,2.26-1.13,3.7-1.13,2.92,0,5.3,1.77,5.3,3.96,0,.35-.06.68-.17,1,.25-.07.51-.1.78-.1,1.5,0,2.74,1.09,2.99,2.51Z"/>
          </g>
        </g>
        <g>
          <ellipse class="cls-3" cx="230.14" cy="148.59" rx="27.3" ry="2.48"/>
          <path class="cls-6" d="M226.1,148.96c.74-9.25,1.47-18.51,2.21-27.76-5.88-7.97-11.77-15.93-17.65-23.9l2.94-2.21,16.36,21.33.37-18.38,2.57-.18.18,12.32,7.72-13.24c1.47.12,2.94.25,4.41.37-3.86,6.68-7.72,13.36-11.58,20.04.12,10.54.25,21.08.37,31.62-.89.22-1.98.4-3.22.46-1.9.08-3.5-.17-4.69-.46Z"/>
          <g>
            <path class="cls-2" d="M284.19,80.48c0,6.45-4.28,11.67-9.56,11.67-2.97,0-5.62-1.65-7.37-4.24-.41,2.19-1.49,4.56-3.21,6.73-3.91,4.93-9.63,6.91-12.77,4.42-.66-.52-1.15-1.19-1.48-1.98-1.65,1.51-3.8,2.42-6.15,2.42-2.83,0-5.38-1.33-7.11-3.44-.21,1.38-.79,2.54-1.77,3.31-3.14,2.49-9.17.12-13.46-5.29-.02-.03-.04-.05-.06-.08-.83.23-1.74.35-2.69.35-.7,0-1.37-.07-2.01-.19-1.62,2.63-4.89,4.42-8.66,4.42-2.98,0-5.64-1.12-7.43-2.89-.97.09-1.95.13-2.96.13-12.13,0-21.97-6.42-21.97-14.34,0-5.67,5.05-10.58,12.37-12.9-.11-.06-.22-.11-.33-.17.6.19,1.12.38,1.56.57,3.22,1.35,3.64,2.64,6.25,2.94,0,0,.22.02.43.03,1.1.06,3.21-.53,3.98-.59.43-.03.78.08,1.11.29,1.27.82,2,3.13,4.41,4.12,2.13.88,2.61-.5,6.07-.18,4.56.42,5.67,2.99,8.46,2.21,2.09-.59,1.59-2.07,4.04-3.13,3.49-1.5,6.47.67,8.09-1.1.97-1.06.38-2.34,1.29-2.76,1.42-.66,3.29,2.27,5.15,1.65.97-.32.75-1.2,1.84-2.21,2.28-2.1,5.26-.12,6.99-1.84,1.69-1.68.07-4.8,1.65-5.7,1.19-.68,2.59.81,3.86,0,1.18-.75.58-2.41,1.47-2.94,1.67-1,4.56,4.41,8.64,4.41s6.81-5.46,8.82-4.41c1.1.57.81,2.45,2.02,2.76,1.24.32,2.66-1.35,2.76-1.47,1.32-1.6.72-2.99,1.84-4.04.37-.35.99-.72,2.08-.79.08.59.12,1.19.12,1.8,0,.74-.06,1.47-.18,2.18h0c1.04,1.21,1.65,2.71,1.65,4.34,0,2.23-1.15,4.22-2.95,5.54,3.06,1.94,5.16,5.86,5.16,10.36Z"/>
            <path class="cls-1" d="M280.39,56.25c-1.1.07-1.71.44-2.08.79-1.12,1.05-.51,2.45-1.84,4.04-.1.12-1.52,1.79-2.76,1.47-1.21-.31-.93-2.19-2.02-2.76-2.02-1.04-4.73,4.41-8.82,4.41s-6.97-5.41-8.64-4.41c-.89.53-.29,2.19-1.47,2.94-1.27.81-2.67-.68-3.86,0-1.58.9.03,4.02-1.65,5.7-1.73,1.72-4.7-.27-6.99,1.84-1.09,1.01-.87,1.89-1.84,2.21-1.86.62-3.73-2.31-5.15-1.65-.91.42-.32,1.7-1.29,2.76-1.62,1.78-4.6-.4-8.09,1.1-2.46,1.05-1.96,2.54-4.04,3.13-2.79.78-3.9-1.79-8.46-2.21-3.45-.31-3.94,1.06-6.07.18-2.41-.99-3.14-3.3-4.41-4.12,2.64-4.11,3.83-4.92,4.41-4.7.4.15.52.82,1.29,1.1.79.29,1.61-.08,1.84-.18,2.33-1.06,1.73-4.44,3.68-5.15,1.29-.47,2.83.54,3.13.74,1.58,1.04,1.81,2.64,2.57,2.57.81-.07.83-1.89,1.65-2.02,1.09-.18,1.57,2.9,4.04,3.86.09.03,1.61.6,3.13,0,2.26-.9,1.82-3.35,3.68-4.96,3.11-2.72,8.08.92,10.29-1.47,1.97-2.12-.12-6.94,1.1-7.35.66-.23,1.21,1.2,3.31,1.65,1.25.27,2.35.05,2.57,0,1.19-.25,1.36-.67,2.02-.74,1.52-.15,2.31,1.9,3.86,3.13,2.71,2.16,7.54,1.65,10.48,0,3.61-2.02,4.17-5.63,6.07-5.33,1.73.27,1.91,3.37,4.41,3.86.74.15,1.11-.05,2.57-.37.86-.19,1.96-.39,3.3-.54.03.16.05.32.08.49Z"/>
            <path class="cls-4" d="M280.32,55.76c-1.33.15-2.44.35-3.3.54-1.47.32-1.84.51-2.57.37-2.5-.49-2.69-3.59-4.41-3.86-1.9-.3-2.45,3.31-6.07,5.33-2.94,1.65-7.77,2.16-10.48,0-1.55-1.23-2.34-3.28-3.86-3.13-.66.07-.84.48-2.02.74-.22.05-1.33.27-2.57,0-2.1-.45-2.65-1.88-3.31-1.65-1.22.42.86,5.23-1.1,7.35-2.22,2.4-7.18-1.24-10.29,1.47-1.85,1.62-1.42,4.06-3.68,4.96-1.51.6-3.04.03-3.13,0-2.47-.96-2.95-4.04-4.04-3.86-.83.13-.84,1.95-1.65,2.02-.77.07-1-1.54-2.57-2.57-.29-.19-1.84-1.21-3.13-.74-1.95.71-1.34,4.08-3.68,5.15-.23.1-1.04.47-1.84.18-.77-.28-.89-.95-1.29-1.1-.57-.22-1.76.59-4.41,4.7-.32-.21-.68-.32-1.11-.29-.77.05-2.88.64-3.98.59-.22-.01-.43-.03-.43-.03-2.61-.31-3.03-1.59-6.25-2.94-.44-.19-.96-.38-1.56-.57h0c-3.34-1.83-5.61-5.37-5.61-9.45,0-5.47,4.09-9.99,9.38-10.67-.48-1.19-.74-2.49-.74-3.86,0-5.74,4.65-10.39,10.39-10.39,1.51,0,2.94.32,4.24.9,0-.15,0-.29,0-.44,0-5.99,4.86-10.85,10.85-10.85,3.7,0,6.97,1.85,8.92,4.68,4.19-3.07,9.93-4.96,16.26-4.96,12.84,0,23.26,7.78,23.26,17.37,0,1.52-.26,2.99-.75,4.4,1.09-.29,2.24-.44,3.42-.44,6.58,0,12.05,4.77,13.13,11.04Z"/>
          </g>
        </g>
        <g>
          <path class="cls-2" d="M6.1,33.84c1.09-.8,1.79-2.01,1.79-3.36,0-.99-.37-1.9-1-2.63h0c.07-.43.11-.87.11-1.33,0-.37-.02-.74-.07-1.09-.67.04-1.04.27-1.27.48-.68.64-.31,1.49-1.12,2.46-.06.07-.92,1.09-1.67.89-.73-.19-.56-1.33-1.23-1.67-.48-.25-1.02.1-1.64.62v17.64c.96.86,2.14,1.38,3.43,1.38,3.21,0,5.8-3.17,5.8-7.09,0-2.74-1.27-5.11-3.13-6.29Z"/>
          <path class="cls-1" d="M6.88,25.12c-.81.09-1.48.22-2,.33-.89.19-1.12.31-1.56.22-1.52-.3-1.63-2.18-2.68-2.34-.24-.04-.45.03-.64.17v4.69c.63-.52,1.17-.87,1.64-.62.67.34.49,1.48,1.23,1.67.75.19,1.61-.82,1.67-.89.8-.97.44-1.82,1.12-2.46.23-.21.6-.43,1.27-.48-.01-.1-.03-.2-.05-.3Z"/>
          <path class="cls-4" d="M0,18.5v5c.19-.14.4-.21.64-.17,1.05.17,1.16,2.05,2.68,2.34.45.09.67-.03,1.56-.22.52-.11,1.19-.24,2-.33-.6-3.45-3.39-6.15-6.88-6.62Z"/>
        </g>
        <g>
          <ellipse class="cls-3" cx="463.9" cy="85.13" rx="16.57" ry="1.51"/>
          <path class="cls-6" d="M461.44,85.35c.45-5.62.89-11.23,1.34-16.85-3.57-4.84-7.14-9.67-10.71-14.51l1.79-1.34,9.93,12.95.22-11.16,1.56-.11.11,7.48,4.69-8.04c.89.07,1.79.15,2.68.22-2.34,4.05-4.69,8.11-7.03,12.16.07,6.4.15,12.8.22,19.2-.54.13-1.2.25-1.95.28-1.15.05-2.13-.1-2.85-.28Z"/>
          <g>
            <path class="cls-2" d="M496.71,43.78c0,3.91-2.6,7.09-5.8,7.09-1.8,0-3.41-1-4.48-2.57-.25,1.33-.91,2.77-1.95,4.08-2.37,3-5.84,4.2-7.75,2.69-.4-.32-.7-.72-.9-1.2-1,.92-2.31,1.47-3.73,1.47-1.72,0-3.26-.81-4.32-2.09-.13.84-.48,1.54-1.08,2.01-1.91,1.51-5.57.07-8.17-3.21-.01-.02-.03-.03-.04-.05-.5.14-1.05.21-1.63.21-.42,0-.83-.04-1.22-.12-.98,1.59-2.97,2.68-5.25,2.68-1.81,0-3.43-.68-4.51-1.75-.59.05-1.19.08-1.79.08-7.37,0-13.34-3.9-13.34-8.71,0-3.44,3.06-6.42,7.51-7.83-.07-.03-.13-.07-.2-.1.36.11.68.23.95.35,1.95.82,2.21,1.6,3.79,1.79,0,0,.13.01.26.02.67.03,1.95-.32,2.42-.36.26-.02.48.05.67.18.77.5,1.21,1.9,2.68,2.5,1.29.53,1.59-.3,3.68-.11,2.77.25,3.44,1.81,5.13,1.34,1.27-.36.96-1.26,2.46-1.9,2.12-.91,3.93.41,4.91-.67.59-.64.23-1.42.78-1.67.86-.4,1.99,1.38,3.12,1,.59-.19.45-.73,1.12-1.34,1.39-1.28,3.19-.07,4.24-1.12,1.02-1.02.04-2.91,1-3.46.72-.41,1.57.49,2.34,0,.72-.45.35-1.46.89-1.79,1.01-.6,2.77,2.68,5.25,2.68s4.13-3.31,5.36-2.68c.67.34.49,1.48,1.23,1.67.75.19,1.61-.82,1.67-.89.8-.97.44-1.82,1.12-2.46.23-.21.6-.43,1.27-.48.05.36.07.72.07,1.09,0,.45-.04.89-.11,1.33h0c.63.73,1,1.65,1,2.64,0,1.35-.7,2.56-1.79,3.36,1.86,1.18,3.13,3.55,3.13,6.29Z"/>
            <path class="cls-1" d="M494.4,29.07c-.67.04-1.04.27-1.27.48-.68.64-.31,1.49-1.12,2.46-.06.07-.92,1.09-1.67.89-.73-.19-.56-1.33-1.23-1.67-1.22-.63-2.87,2.68-5.36,2.68s-4.23-3.28-5.25-2.68c-.54.32-.17,1.33-.89,1.79-.77.49-1.62-.41-2.34,0-.96.55.02,2.44-1,3.46-1.05,1.04-2.85-.16-4.24,1.12-.66.61-.53,1.15-1.12,1.34-1.13.37-2.26-1.4-3.12-1-.55.26-.2,1.03-.78,1.67-.98,1.08-2.79-.24-4.91.67-1.49.64-1.19,1.54-2.46,1.9-1.69.48-2.37-1.09-5.13-1.34-2.1-.19-2.39.65-3.68.11-1.46-.6-1.9-2-2.68-2.5,1.6-2.5,2.33-2.99,2.68-2.85.24.09.32.5.78.67.48.18.98-.05,1.12-.11,1.42-.65,1.05-2.69,2.23-3.12.78-.29,1.72.33,1.9.45.96.63,1.1,1.6,1.56,1.56.49-.04.5-1.15,1-1.23.66-.11.95,1.76,2.46,2.34.05.02.98.37,1.9,0,1.37-.55,1.11-2.03,2.23-3.01,1.89-1.65,4.9.56,6.25-.89,1.19-1.29-.07-4.21.67-4.46.4-.14.74.73,2.01,1,.76.16,1.43.03,1.56,0,.72-.15.83-.41,1.23-.45.92-.09,1.41,1.15,2.34,1.9,1.65,1.31,4.57,1,6.36,0,2.19-1.23,2.53-3.42,3.68-3.24,1.05.17,1.16,2.05,2.68,2.34.45.09.67-.03,1.56-.22.52-.11,1.19-.24,2-.33.02.1.03.2.05.3Z"/>
            <path class="cls-4" d="M494.36,28.78c-.81.09-1.48.22-2,.33-.89.19-1.12.31-1.56.22-1.52-.3-1.63-2.18-2.68-2.34-1.15-.18-1.49,2.01-3.68,3.24-1.79,1-4.72,1.31-6.36,0-.94-.75-1.42-1.99-2.34-1.9-.4.04-.51.29-1.23.45-.13.03-.81.16-1.56,0-1.27-.28-1.61-1.14-2.01-1-.74.25.52,3.18-.67,4.46-1.35,1.45-4.36-.76-6.25.89-1.12.98-.86,2.47-2.23,3.01-.92.37-1.84.02-1.9,0-1.5-.58-1.79-2.45-2.46-2.34-.5.08-.51,1.18-1,1.23-.47.04-.6-.93-1.56-1.56-.18-.12-1.11-.73-1.9-.45-1.18.43-.81,2.48-2.23,3.12-.14.06-.63.29-1.12.11-.47-.17-.54-.58-.78-.67-.35-.13-1.07.36-2.68,2.85-.2-.13-.41-.19-.67-.18-.47.03-1.75.39-2.42.36-.13,0-.26-.02-.26-.02-1.58-.19-1.84-.96-3.79-1.79-.27-.11-.58-.23-.95-.35h0c-2.03-1.11-3.41-3.26-3.41-5.74,0-3.32,2.48-6.07,5.7-6.48-.29-.72-.45-1.51-.45-2.34,0-3.48,2.82-6.31,6.31-6.31.92,0,1.79.2,2.57.55,0-.09,0-.18,0-.27,0-3.64,2.95-6.58,6.58-6.58,2.25,0,4.23,1.12,5.42,2.84,2.55-1.86,6.03-3.01,9.87-3.01,7.8,0,14.12,4.72,14.12,10.55,0,.92-.16,1.82-.46,2.67.66-.18,1.36-.27,2.07-.27,3.99,0,7.31,2.9,7.97,6.7Z"/>
          </g>
        </g>
        <g>
          <ellipse class="cls-3" cx="644.76" cy="56.2" rx="9.51" ry=".86"/>
          <path class="cls-6" d="M643.35,56.32c.26-3.22.51-6.45.77-9.67-2.05-2.78-4.1-5.55-6.15-8.33l1.03-.77,5.7,7.43.13-6.41.9-.06.06,4.29,2.69-4.61c.51.04,1.03.09,1.54.13-1.35,2.33-2.69,4.66-4.04,6.98.04,3.67.09,7.35.13,11.02-.31.08-.69.14-1.12.16-.66.03-1.22-.06-1.63-.16Z"/>
          <g>
            <path class="cls-2" d="M663.59,32.46c0,2.25-1.49,4.07-3.33,4.07-1.03,0-1.96-.58-2.57-1.48-.14.76-.52,1.59-1.12,2.34-1.36,1.72-3.36,2.41-4.45,1.54-.23-.18-.4-.42-.52-.69-.58.53-1.32.84-2.14.84-.99,0-1.87-.46-2.48-1.2-.07.48-.28.88-.62,1.15-1.1.87-3.2.04-4.69-1.84,0,0-.01-.02-.02-.03-.29.08-.6.12-.94.12-.24,0-.48-.02-.7-.07-.56.92-1.7,1.54-3.02,1.54-1.04,0-1.97-.39-2.59-1.01-.34.03-.68.05-1.03.05-4.23,0-7.66-2.24-7.66-5,0-1.98,1.76-3.69,4.31-4.5-.04-.02-.08-.04-.11-.06.21.07.39.13.54.2,1.12.47,1.27.92,2.18,1.03,0,0,.07,0,.15.01.38.02,1.12-.19,1.39-.2.15-.01.27.03.39.1.44.29.7,1.09,1.54,1.44.74.31.91-.17,2.11-.06,1.59.14,1.98,1.04,2.95.77.73-.21.55-.72,1.41-1.09,1.22-.52,2.25.23,2.82-.38.34-.37.13-.81.45-.96.5-.23,1.14.79,1.79.58.34-.11.26-.42.64-.77.8-.73,1.83-.04,2.43-.64.59-.59.02-1.67.58-1.99.42-.24.9.28,1.35,0,.41-.26.2-.84.51-1.03.58-.35,1.59,1.54,3.01,1.54s2.37-1.9,3.08-1.54c.38.2.28.85.7.96.43.11.93-.47.96-.51.46-.56.25-1.04.64-1.41.13-.12.34-.25.73-.27.03.21.04.41.04.63,0,.26-.02.51-.06.76h0c.36.42.58.95.58,1.51,0,.78-.4,1.47-1.03,1.93,1.07.68,1.8,2.04,1.8,3.61Z"/>
            <path class="cls-1" d="M662.27,24.01c-.38.03-.6.15-.73.27-.39.37-.18.85-.64,1.41-.03.04-.53.62-.96.51-.42-.11-.32-.76-.7-.96-.7-.36-1.65,1.54-3.08,1.54s-2.43-1.88-3.01-1.54c-.31.18-.1.76-.51,1.03-.44.28-.93-.24-1.35,0-.55.31.01,1.4-.58,1.99-.6.6-1.64-.09-2.43.64-.38.35-.3.66-.64.77-.65.22-1.3-.81-1.79-.58-.32.15-.11.59-.45.96-.57.62-1.6-.14-2.82.38-.86.37-.68.88-1.41,1.09-.97.27-1.36-.62-2.95-.77-1.2-.11-1.37.37-2.11.06-.84-.35-1.09-1.15-1.54-1.44.92-1.43,1.34-1.72,1.54-1.64.14.05.18.29.45.38.28.1.56-.03.64-.06.81-.37.6-1.55,1.28-1.79.45-.16.99.19,1.09.26.55.36.63.92.9.9.28-.02.29-.66.58-.7.38-.06.55,1.01,1.41,1.35.03.01.56.21,1.09,0,.79-.31.64-1.17,1.28-1.73,1.08-.95,2.81.32,3.59-.51.69-.74-.04-2.42.38-2.56.23-.08.42.42,1.15.58.43.09.82.02.9,0,.41-.09.47-.23.7-.26.53-.05.81.66,1.35,1.09.95.75,2.63.57,3.65,0,1.26-.7,1.45-1.96,2.11-1.86.6.09.67,1.17,1.54,1.35.26.05.39-.02.9-.13.3-.07.68-.14,1.15-.19.01.06.02.11.03.17Z"/>
            <path class="cls-4" d="M662.24,23.84c-.46.05-.85.12-1.15.19-.51.11-.64.18-.9.13-.87-.17-.94-1.25-1.54-1.35-.66-.1-.85,1.15-2.11,1.86-1.03.57-2.71.75-3.65,0-.54-.43-.82-1.14-1.35-1.09-.23.02-.29.17-.7.26-.08.02-.46.09-.9,0-.73-.16-.92-.66-1.15-.58-.43.15.3,1.82-.38,2.56-.77.83-2.5-.43-3.59.51-.65.56-.49,1.42-1.28,1.73-.53.21-1.06.01-1.09,0-.86-.34-1.03-1.41-1.41-1.35-.29.05-.29.68-.58.7-.27.02-.35-.54-.9-.9-.1-.07-.64-.42-1.09-.26-.68.25-.47,1.42-1.28,1.79-.08.04-.36.17-.64.06-.27-.1-.31-.33-.45-.38-.2-.08-.61.21-1.54,1.64-.11-.07-.24-.11-.39-.1-.27.02-1,.22-1.39.2-.08,0-.15-.01-.15-.01-.91-.11-1.06-.55-2.18-1.03-.15-.07-.34-.13-.54-.2h0c-1.16-.64-1.95-1.87-1.95-3.29,0-1.91,1.43-3.48,3.27-3.72-.17-.42-.26-.87-.26-1.34,0-2,1.62-3.62,3.62-3.62.53,0,1.03.11,1.48.31,0-.05,0-.1,0-.15,0-2.09,1.69-3.78,3.78-3.78,1.29,0,2.43.65,3.11,1.63,1.46-1.07,3.46-1.73,5.67-1.73,4.48,0,8.1,2.71,8.1,6.05,0,.53-.09,1.04-.26,1.53.38-.1.78-.15,1.19-.15,2.29,0,4.2,1.66,4.58,3.85Z"/>
          </g>
        </g>
        <g>
          <ellipse class="cls-3" cx="782.85" cy="47.06" rx="6.22" ry=".57"/>
          <path class="cls-6" d="M781.92,47.14c.17-2.11.33-4.21.5-6.32-1.34-1.81-2.68-3.63-4.02-5.44l.67-.5,3.73,4.86.08-4.19.59-.04.04,2.8,1.76-3.01c.33.03.67.06,1,.08-.88,1.52-1.76,3.04-2.64,4.56.03,2.4.06,4.8.08,7.2-.2.05-.45.09-.73.1-.43.02-.8-.04-1.07-.1Z"/>
          <g>
            <path class="cls-2" d="M795.15,31.55c0,1.47-.97,2.66-2.18,2.66-.68,0-1.28-.38-1.68-.97-.09.5-.34,1.04-.73,1.53-.89,1.12-2.19,1.57-2.91,1.01-.15-.12-.26-.27-.34-.45-.38.34-.87.55-1.4.55-.65,0-1.22-.3-1.62-.78-.05.32-.18.58-.4.75-.72.57-2.09.03-3.06-1.21,0,0,0-.01-.01-.02-.19.05-.4.08-.61.08-.16,0-.31-.02-.46-.04-.37.6-1.11,1.01-1.97,1.01-.68,0-1.29-.26-1.69-.66-.22.02-.45.03-.67.03-2.76,0-5-1.46-5-3.27,0-1.29,1.15-2.41,2.82-2.94-.03-.01-.05-.03-.07-.04.14.04.25.09.36.13.73.31.83.6,1.42.67,0,0,.05,0,.1,0,.25.01.73-.12.91-.13.1,0,.18.02.25.07.29.19.46.71,1,.94.49.2.59-.11,1.38-.04,1.04.09,1.29.68,1.93.5.48-.13.36-.47.92-.71.8-.34,1.47.15,1.84-.25.22-.24.09-.53.29-.63.32-.15.75.52,1.17.38.22-.07.17-.27.42-.5.52-.48,1.2-.03,1.59-.42.38-.38.02-1.09.38-1.3.27-.15.59.18.88,0,.27-.17.13-.55.33-.67.38-.23,1.04,1,1.97,1s1.55-1.24,2.01-1c.25.13.19.56.46.63.28.07.61-.31.63-.33.3-.36.16-.68.42-.92.08-.08.23-.16.47-.18.02.13.03.27.03.41,0,.17-.01.34-.04.5h0c.24.28.38.62.38.99,0,.51-.26.96-.67,1.26.7.44,1.17,1.33,1.17,2.36Z"/>
            <path class="cls-1" d="M794.29,26.03c-.25.02-.39.1-.47.18-.25.24-.12.56-.42.92-.02.03-.35.41-.63.33-.28-.07-.21-.5-.46-.63-.46-.24-1.08,1-2.01,1s-1.59-1.23-1.97-1c-.2.12-.07.5-.33.67-.29.18-.61-.15-.88,0-.36.21,0,.91-.38,1.3-.39.39-1.07-.06-1.59.42-.25.23-.2.43-.42.5-.42.14-.85-.53-1.17-.38-.21.1-.07.39-.29.63-.37.4-1.05-.09-1.84.25-.56.24-.45.58-.92.71-.63.18-.89-.41-1.93-.5-.79-.07-.9.24-1.38.04-.55-.23-.71-.75-1-.94.6-.94.87-1.12,1-1.07.09.04.12.19.29.25.18.07.37-.02.42-.04.53-.24.39-1.01.84-1.17.29-.11.64.12.71.17.36.24.41.6.59.59.18-.02.19-.43.38-.46.25-.04.36.66.92.88.02,0,.37.14.71,0,.51-.2.42-.76.84-1.13.71-.62,1.84.21,2.34-.33.45-.48-.03-1.58.25-1.67.15-.05.28.27.75.38.28.06.54.01.59,0,.27-.06.31-.15.46-.17.35-.03.53.43.88.71.62.49,1.72.37,2.39,0,.82-.46.95-1.28,1.38-1.21.39.06.44.77,1,.88.17.03.25-.01.59-.08.2-.04.45-.09.75-.12,0,.04.01.07.02.11Z"/>
            <path class="cls-4" d="M794.27,25.92c-.3.03-.56.08-.75.12-.33.07-.42.12-.59.08-.57-.11-.61-.82-1-.88-.43-.07-.56.75-1.38,1.21-.67.37-1.77.49-2.39,0-.35-.28-.53-.75-.88-.71-.15.02-.19.11-.46.17-.05.01-.3.06-.59,0-.48-.1-.6-.43-.75-.38-.28.1.2,1.19-.25,1.67-.51.55-1.64-.28-2.34.33-.42.37-.32.93-.84,1.13-.34.14-.69,0-.71,0-.56-.22-.67-.92-.92-.88-.19.03-.19.44-.38.46-.17.02-.23-.35-.59-.59-.07-.04-.42-.28-.71-.17-.44.16-.31.93-.84,1.17-.05.02-.24.11-.42.04-.17-.06-.2-.22-.29-.25-.13-.05-.4.13-1,1.07-.07-.05-.15-.07-.25-.07-.18.01-.66.15-.91.13-.05,0-.1,0-.1,0-.59-.07-.69-.36-1.42-.67-.1-.04-.22-.09-.36-.13h0c-.76-.42-1.28-1.22-1.28-2.15,0-1.25.93-2.28,2.14-2.43-.11-.27-.17-.57-.17-.88,0-1.31,1.06-2.37,2.37-2.37.34,0,.67.07.96.21,0-.03,0-.07,0-.1,0-1.36,1.11-2.47,2.47-2.47.84,0,1.59.42,2.03,1.07.95-.7,2.26-1.13,3.7-1.13,2.92,0,5.3,1.77,5.3,3.96,0,.35-.06.68-.17,1,.25-.07.51-.1.78-.1,1.5,0,2.74,1.09,2.99,2.51Z"/>
          </g>
        </g>
      </g>
      <g>
        <path class="cls-5" d="M524.91,191.61c-19.81-.06-39.61-.13-59.42-.19-2.5,0-4.99-.01-7.49-.02-.2-.05-.4-.11-.58-.17-1.12-.37-1.81-.87-1.81-1.43,0-.93,1.9-1.71,4.5-1.95.71-.67,1.37-1.12,1.99-1.43,0,0,0,0,0,0h0c.54-.48,1.25-.78,2.04-.78.55,0,1.07.15,1.51.4h0c.87.26,1.65.7,3.39.67,3.1-.05,3.64-1.5,6.4-1.28,2.42.19,2.36,1.33,4.48,1.28,2.67-.06,3.46-1.89,5.76-1.49,1.59.27,1.55,1.2,2.99,1.28,2.17.12,2.78-1.97,4.9-1.92,1.5.04,1.62,1.09,3.63,1.71,1.87.58,2.49-.12,5.33-.21,4.1-.13,4.23,1.28,7.46.85,2.78-.37,3.58-1.52,5.12-.85,1.47.64,1.63,2.08,3.2,2.35,1.11.19,1.53-.46,2.56-.43.99.03,2.39.67,4.05,3.63Z"/>
        <path class="cls-5" d="M59.06,55.96c-5.49-.02-10.98-.03-16.47-.05-.69,0-1.38,0-2.08,0-.06-.01-.11-.03-.16-.05-.31-.1-.5-.24-.5-.4,0-.26.53-.47,1.25-.54.2-.18.38-.31.55-.4,0,0,0,0,0,0h0c.15-.13.35-.22.57-.22.15,0,.3.04.42.11h0c.24.07.46.19.94.19.86-.01,1.01-.42,1.77-.35.67.05.65.37,1.24.35.74-.02.96-.52,1.6-.41.44.08.43.33.83.35.6.03.77-.55,1.36-.53.42.01.45.3,1,.47.52.16.69-.03,1.48-.06,1.14-.04,1.17.35,2.07.24.77-.1.99-.42,1.42-.24.41.18.45.58.89.65.31.05.42-.13.71-.12.27,0,.66.19,1.12,1Z"/>
        <path class="cls-5" d="M146.22,47.64c-5.49-.02-10.98-.03-16.47-.05-.69,0-1.38,0-2.08,0-.06-.01-.11-.03-.16-.05-.31-.1-.5-.24-.5-.4,0-.26.53-.47,1.25-.54.2-.18.38-.31.55-.4,0,0,0,0,0,0h0c.15-.13.35-.22.57-.22.15,0,.3.04.42.11h0c.24.07.46.19.94.19.86-.01,1.01-.42,1.77-.35.67.05.65.37,1.24.35.74-.02.96-.52,1.6-.41.44.08.43.33.83.35.6.03.77-.55,1.36-.53.42.01.45.3,1,.47.52.16.69-.03,1.48-.06,1.14-.04,1.17.35,2.07.24.77-.1.99-.42,1.42-.24.41.18.45.58.89.65.31.05.42-.13.71-.12.27,0,.66.19,1.12,1Z"/>
        <path class="cls-5" d="M165.44,78.16c-5.49-.02-10.98-.03-16.47-.05-.69,0-1.38,0-2.08,0-.06-.01-.11-.03-.16-.05-.31-.1-.5-.24-.5-.4,0-.26.53-.47,1.25-.54.2-.18.38-.31.55-.4,0,0,0,0,0,0h0c.15-.13.35-.22.57-.22.15,0,.3.04.42.11h0c.24.07.46.19.94.19.86-.01,1.01-.42,1.77-.35.67.05.65.37,1.24.35.74-.02.96-.52,1.6-.41.44.08.43.33.83.35.6.03.77-.55,1.36-.53.42.01.45.3,1,.47.52.16.69-.03,1.48-.06,1.14-.04,1.17.35,2.07.24.77-.1.99-.42,1.42-.24.41.18.45.58.89.65.31.05.42-.13.71-.12.27,0,.66.19,1.12,1Z"/>
        <path class="cls-5" d="M524.29,67.89c-7.15-.02-14.3-.05-21.45-.07-.9,0-1.8,0-2.7,0-.07-.02-.14-.04-.21-.06-.4-.13-.65-.32-.65-.52,0-.33.69-.62,1.62-.7.25-.24.49-.4.72-.52,0,0,0,0,0,0h0c.19-.17.45-.28.74-.28.2,0,.39.05.55.14h0c.31.09.6.25,1.22.24,1.12-.02,1.31-.54,2.31-.46.88.07.85.48,1.62.46.96-.02,1.25-.68,2.08-.54.57.1.56.43,1.08.46.78.04,1-.71,1.77-.69.54.01.58.39,1.31.62.68.21.9-.04,1.92-.08,1.48-.05,1.53.46,2.69.31,1-.13,1.29-.55,1.85-.31.53.23.59.75,1.15.85.4.07.55-.17.92-.15.36.01.86.24,1.46,1.31Z"/>
        <path class="cls-5" d="M550.34,124.72c-8.25-.03-16.5-.05-24.76-.08-1.04,0-2.08,0-3.12,0-.09-.02-.17-.05-.24-.07-.47-.15-.75-.36-.75-.6,0-.39.79-.71,1.87-.81.29-.28.57-.47.83-.59,0,0,0,0,0,0h0c.22-.2.52-.33.85-.33.23,0,.45.06.63.17h0c.36.11.69.29,1.41.28,1.29-.02,1.51-.62,2.67-.53,1.01.08.98.55,1.87.53,1.11-.03,1.44-.79,2.4-.62.66.11.65.5,1.24.53.9.05,1.16-.82,2.04-.8.62.02.67.45,1.51.71.78.24,1.04-.05,2.22-.09,1.71-.05,1.76.53,3.11.36,1.16-.15,1.49-.64,2.13-.36.61.27.68.87,1.33.98.46.08.64-.19,1.07-.18.41.01,1,.28,1.69,1.51Z"/>
        <path class="cls-5" d="M310.72,179.63c-14.57-.05-29.13-.09-43.7-.14-1.84,0-3.67-.01-5.51-.02-.15-.04-.29-.08-.43-.12-.82-.27-1.33-.64-1.33-1.05,0-.68,1.4-1.26,3.31-1.43.52-.49,1.01-.82,1.46-1.05,0,0,0,0,0,0h0c.39-.36.92-.57,1.5-.57.4,0,.79.11,1.11.29h0c.64.19,1.22.51,2.49.49,2.28-.04,2.67-1.1,4.7-.94,1.78.14,1.73.98,3.29.94,1.96-.05,2.54-1.39,4.23-1.1,1.17.2,1.14.88,2.2.94,1.59.09,2.04-1.45,3.61-1.41,1.1.03,1.19.8,2.67,1.25,1.38.42,1.83-.09,3.92-.16,3.02-.1,3.11.94,5.49.63,2.05-.27,2.63-1.12,3.76-.63,1.08.47,1.2,1.53,2.35,1.72.82.14,1.12-.34,1.88-.31.72.02,1.76.5,2.98,2.67Z"/>
        <path class="cls-5" d="M655.42,141.95c-7.23-.02-14.45-.05-21.68-.07-.91,0-1.82,0-2.73,0-.07-.02-.15-.04-.21-.06-.41-.13-.66-.32-.66-.52,0-.34.69-.62,1.64-.71.26-.24.5-.41.72-.52,0,0,0,0,0,0h0c.2-.18.46-.28.75-.28.2,0,.39.05.55.14h0c.32.1.6.26,1.24.24,1.13-.02,1.33-.55,2.33-.47.88.07.86.49,1.63.47.97-.02,1.26-.69,2.1-.54.58.1.57.44,1.09.47.79.04,1.01-.72,1.79-.7.55.01.59.4,1.32.62.68.21.91-.05,1.94-.08,1.5-.05,1.54.47,2.72.31,1.02-.13,1.31-.56,1.87-.31.53.23.6.76,1.17.86.41.07.56-.17.93-.16.36.01.87.25,1.48,1.32Z"/>
        <path class="cls-5" d="M717.6,97.87c-5.02-.02-10.05-.03-15.07-.05-.63,0-1.27,0-1.9,0-.05-.01-.1-.03-.15-.04-.28-.09-.46-.22-.46-.36,0-.24.48-.43,1.14-.49.18-.17.35-.28.5-.36,0,0,0,0,0,0h0c.14-.12.32-.2.52-.2.14,0,.27.04.38.1h0c.22.07.42.18.86.17.79-.01.92-.38,1.62-.32.61.05.6.34,1.14.32.68-.02.88-.48,1.46-.38.4.07.39.3.76.32.55.03.71-.5,1.24-.49.38,0,.41.28.92.43.48.15.63-.03,1.35-.05,1.04-.03,1.07.32,1.89.22.71-.09.91-.39,1.3-.22.37.16.41.53.81.59.28.05.39-.12.65-.11.25,0,.61.17,1.03.92Z"/>
        <path class="cls-5" d="M870.39,35.69c-7.23-.02-14.45-.05-21.68-.07-.91,0-1.82,0-2.73,0-.07-.02-.15-.04-.21-.06-.41-.13-.66-.32-.66-.52,0-.34.69-.62,1.64-.71.26-.24.5-.41.72-.52,0,0,0,0,0,0h0c.2-.18.46-.28.75-.28.2,0,.39.05.55.14h0c.32.1.6.26,1.24.24,1.13-.02,1.33-.55,2.33-.47.88.07.86.49,1.63.47.97-.02,1.26-.69,2.1-.54.58.1.57.44,1.09.47.79.04,1.01-.72,1.79-.7.55.01.59.4,1.32.62.68.21.91-.05,1.94-.08,1.5-.05,1.54.47,2.72.31,1.02-.13,1.31-.56,1.87-.31.53.23.6.76,1.17.86.41.07.56-.17.93-.16.36.01.87.25,1.48,1.32Z"/>
        <path class="cls-5" d="M929.5,35.99c-3.38-.01-6.76-.02-10.14-.03-.43,0-.85,0-1.28,0-.03,0-.07-.02-.1-.03-.19-.06-.31-.15-.31-.24,0-.16.32-.29.77-.33.12-.11.23-.19.34-.24,0,0,0,0,0,0h0c.09-.08.21-.13.35-.13.09,0,.18.02.26.07h0c.15.04.28.12.58.11.53,0,.62-.26,1.09-.22.41.03.4.23.76.22.46-.01.59-.32.98-.25.27.05.27.2.51.22.37.02.47-.34.84-.33.26,0,.28.19.62.29.32.1.42-.02.91-.04.7-.02.72.22,1.27.15.48-.06.61-.26.87-.15.25.11.28.36.55.4.19.03.26-.08.44-.07.17,0,.41.12.69.62Z"/>
        <path class="cls-5" d="M365.66,48.12c-7.23-.02-14.45-.05-21.68-.07-.91,0-1.82,0-2.73,0-.07-.02-.15-.04-.21-.06-.41-.13-.66-.32-.66-.52,0-.34.69-.62,1.64-.71.26-.24.5-.41.72-.52,0,0,0,0,0,0h0c.2-.18.46-.28.75-.28.2,0,.39.05.55.14h0c.32.1.6.26,1.24.24,1.13-.02,1.33-.55,2.33-.47.88.07.86.49,1.63.47.97-.02,1.26-.69,2.1-.54.58.1.57.44,1.09.47.79.04,1.01-.72,1.79-.7.55.01.59.4,1.32.62.68.21.91-.05,1.94-.08,1.5-.05,1.54.47,2.72.31,1.02-.13,1.31-.56,1.87-.31.53.23.6.76,1.17.86.41.07.56-.17.93-.16.36.01.87.25,1.48,1.32Z"/>
        <path class="cls-5" d="M282.05,287.32c-33.05-.1-66.08-.21-99.13-.31-4.17-.01-8.33-.02-12.49-.04-.34-.09-.67-.18-.97-.28-1.87-.61-3.02-1.46-3.02-2.39,0-1.55,3.17-2.85,7.5-3.25,1.18-1.11,2.28-1.87,3.31-2.38,0,0,0,0,0,0h0c.89-.81,2.09-1.3,3.41-1.3.92,0,1.78.24,2.52.66h0c1.45.44,2.76,1.17,5.66,1.12,5.17-.09,6.07-2.5,10.67-2.13,4.04.32,3.93,2.22,7.47,2.13,4.45-.11,5.77-3.14,9.61-2.49,2.65.45,2.59,2,4.98,2.13,3.61.2,4.64-3.29,8.18-3.2,2.5.06,2.7,1.82,6.05,2.85,3.13.96,4.15-.21,8.89-.36,6.84-.22,7.05,2.13,12.45,1.42,4.64-.61,5.97-2.54,8.54-1.42,2.44,1.07,2.73,3.48,5.34,3.91,1.86.31,2.55-.76,4.27-.71,1.64.05,3.98,1.12,6.76,6.05Z"/>
      </g>
      <g>
        <g>
          <ellipse class="cls-3" cx="1886.54" cy="358.41" rx="66.02" ry="6"/>
          <path class="cls-6" d="M1896.32,359.3c-1.78-22.38-3.56-44.75-5.34-67.13,14.23-19.27,28.45-38.53,42.68-57.8l-7.11-5.34-39.57,51.57-.89-44.46-6.22-.44-.44,29.79-18.67-32.01c-3.56.3-7.11.59-10.67.89,9.34,16.15,18.67,32.31,28.01,48.46-.3,25.49-.59,50.98-.89,76.47,2.16.53,4.78.98,7.78,1.11,4.59.2,8.48-.42,11.34-1.11Z"/>
          <g>
            <path class="cls-2" d="M1961.68,171.96c-.72-.14-1.35-.24-1.78-.27-1.04-.07-1.9.2-2.68.7-3.07,1.98-4.84,7.57-10.66,9.97-5.15,2.13-6.32-1.2-14.67-.44-11.02,1-13.72,7.23-20.45,5.34-5.05-1.42-3.84-5.01-9.78-7.56-8.45-3.62-15.64,1.63-19.56-2.67-2.33-2.56-.92-5.65-3.11-6.67-3.44-1.59-7.94,5.5-12.45,4-2.33-.77-1.81-2.9-4.45-5.34-5.52-5.09-12.72-.28-16.89-4.45-4.08-4.07-.17-11.6-4-13.78-2.88-1.64-6.26,1.95-9.34,0-2.86-1.81-1.41-5.83-3.56-7.11-4.03-2.41-11.04,10.67-20.9,10.67s-16.46-13.2-21.34-10.67c-2.65,1.37-1.97,5.91-4.89,6.67-3,.77-6.43-3.27-6.67-3.56-3.2-3.86-1.74-7.23-4.45-9.78-.9-.85-2.39-1.73-5.04-1.91-.2,1.42-.29,2.88-.29,4.35,0,1.8.15,3.56.44,5.28h0c-2.51,2.92-3.99,6.56-3.99,10.5,0,5.39,2.78,10.21,7.14,13.4-7.41,4.7-12.47,14.16-12.47,25.06,0,15.59,10.35,28.23,23.12,28.23,7.18,0,13.59-3.99,17.83-10.26.99,5.3,3.61,11.04,7.75,16.27,9.46,11.93,23.28,16.72,30.88,10.7,1.59-1.26,2.78-2.89,3.58-4.78,4,3.65,9.19,5.86,14.87,5.86,6.85,0,13-3.21,17.2-8.31.51,3.35,1.92,6.14,4.29,8.01,7.6,6.02,22.17.29,32.55-12.8.05-.07.1-.13.15-.2,2,.55,4.2.85,6.5.85,1.69,0,3.32-.16,4.85-.47,3.92,6.35,11.82,10.69,20.93,10.69,7.2,0,13.65-2.71,17.97-6.98,1.11.1,2.24.17,3.38.23v-58.77Z"/>
            <path class="cls-1" d="M1765.02,135.1c2.65.18,4.14,1.06,5.04,1.91,2.7,2.55,1.24,5.92,4.45,9.78.24.29,3.67,4.33,6.67,3.56,2.92-.76,2.24-5.3,4.89-6.67,4.88-2.53,11.44,10.67,21.34,10.67s16.86-13.08,20.9-10.67c2.15,1.28.69,5.3,3.56,7.11,3.08,1.95,6.46-1.64,9.34,0,3.83,2.18-.08,9.71,4,13.78,4.18,4.16,11.37-.64,16.89,4.45,2.64,2.43,2.11,4.56,4.45,5.34,4.5,1.49,9.01-5.59,12.45-4,2.2,1.02.78,4.11,3.11,6.67,3.92,4.29,11.11-.96,19.56,2.67,5.94,2.55,4.73,6.14,9.78,7.56,6.74,1.89,9.43-4.33,20.45-5.34,8.35-.76,9.52,2.57,14.67.44,5.82-2.4,7.58-7.98,10.66-9.97-6.39-9.94-9.27-11.91-10.66-11.37-.97.37-1.26,1.99-3.11,2.67-1.92.7-3.89-.19-4.45-.44-5.65-2.57-4.19-10.73-8.89-12.45-3.12-1.14-6.85,1.31-7.56,1.78-3.81,2.51-4.37,6.39-6.22,6.22-1.96-.17-2-4.57-4-4.89-2.64-.43-3.8,7.01-9.78,9.34-.21.08-3.89,1.46-7.56,0-5.47-2.17-4.41-8.09-8.89-12-7.52-6.57-19.53,2.24-24.9-3.56-4.76-5.13.29-16.77-2.67-17.78-1.6-.55-2.93,2.9-8,4-3.01.65-5.69.12-6.22,0-2.87-.61-3.29-1.62-4.89-1.78-3.68-.36-5.6,4.58-9.34,7.56-6.56,5.21-18.22,3.98-25.34,0-8.74-4.89-10.09-13.62-14.67-12.89-4.17.66-4.63,8.15-10.67,9.34-1.78.35-2.68-.12-6.22-.89-2.07-.45-4.75-.95-7.97-1.31-.07.39-.13.78-.18,1.18Z"/>
            <path class="cls-4" d="M1961.68,81.88c-1.52-.29-3.08-.44-4.67-.44-3.65,0-7.12.78-10.25,2.18.01-.36.02-.71.02-1.07,0-14.48-11.75-26.23-26.23-26.23-8.95,0-16.85,4.48-21.58,11.32-10.14-7.42-24.02-11.99-39.33-11.99-31.06,0-56.24,18.81-56.24,42.01,0,3.67.63,7.23,1.81,10.63-2.64-.7-5.41-1.07-8.26-1.07-15.91,0-29.13,11.53-31.76,26.7,3.22.36,5.9.86,7.97,1.31,3.54.77,4.45,1.24,6.22.89,6.04-1.19,6.5-8.68,10.67-9.34,4.58-.72,5.93,8.01,14.67,12.89,7.12,3.98,18.78,5.21,25.34,0,3.74-2.97,5.66-7.92,9.34-7.56,1.6.16,2.02,1.17,4.89,1.78.53.12,3.21.65,6.22,0,5.07-1.1,6.4-4.55,8-4,2.96,1.01-2.09,12.65,2.67,17.78,5.37,5.79,17.37-3.01,24.9,3.56,4.48,3.91,3.42,9.83,8.89,12,3.66,1.46,7.35.08,7.56,0,5.98-2.33,7.14-9.76,9.78-9.34,2,.32,2.04,4.72,4,4.89,1.85.16,2.41-3.72,6.22-6.22.71-.47,4.44-2.92,7.56-1.78,4.7,1.72,3.25,9.88,8.89,12.45.56.25,2.53,1.15,4.45.44,1.85-.68,2.14-2.29,3.11-2.67,1.38-.53,4.26,1.43,10.66,11.37.78-.5,1.65-.77,2.68-.7.44.03,1.06.13,1.78.27v-90.08Z"/>
          </g>
        </g>
        <g>
          <ellipse class="cls-3" cx="1566.36" cy="246.38" rx="43.27" ry="3.93"/>
          <path class="cls-6" d="M1572.77,246.96c-1.17-14.67-2.33-29.33-3.5-44,9.32-12.63,18.65-25.25,27.97-37.88l-4.66-3.5-25.93,33.8-.58-29.14-4.08-.29-.29,19.52-12.24-20.98c-2.33.19-4.66.39-6.99.58,6.12,10.59,12.24,21.17,18.36,31.76-.19,16.71-.39,33.41-.58,50.12,1.41.34,3.13.64,5.1.73,3.01.13,5.55-.27,7.43-.73Z"/>
          <g>
            <path class="cls-2" d="M1480.7,138.42c0,10.22,6.78,18.5,15.15,18.5,4.7,0,8.9-2.62,11.68-6.72.65,3.47,2.36,7.23,5.08,10.66,6.2,7.82,15.26,10.96,20.24,7.01,1.04-.82,1.82-1.89,2.35-3.14,2.62,2.39,6.03,3.84,9.74,3.84,4.49,0,8.52-2.11,11.27-5.45.34,2.19,1.26,4.02,2.81,5.25,4.98,3.95,14.53.19,21.33-8.39.03-.04.07-.08.1-.13,1.31.36,2.75.56,4.26.56,1.11,0,2.17-.11,3.18-.31,2.57,4.16,7.75,7.01,13.72,7.01,4.72,0,8.95-1.78,11.78-4.58,1.53.14,3.1.21,4.69.21,19.23,0,34.82-10.17,34.82-22.73,0-8.99-8-16.77-19.61-20.45.17-.09.35-.18.52-.27-.94.3-1.77.61-2.47.91-5.1,2.15-5.77,4.18-9.91,4.66,0,0-.34.04-.69.06-1.74.09-5.09-.84-6.31-.93-.68-.05-1.24.13-1.76.46-2.01,1.3-3.17,4.96-6.98,6.53-3.38,1.39-4.14-.79-9.62-.29-7.22.66-8.99,4.74-13.4,3.5-3.31-.93-2.52-3.28-6.41-4.95-5.54-2.37-10.25,1.07-12.82-1.75-1.53-1.68-.6-3.7-2.04-4.37-2.25-1.04-5.21,3.6-8.16,2.62-1.53-.51-1.19-1.9-2.91-3.5-3.62-3.34-8.33-.19-11.07-2.91-2.67-2.67-.11-7.6-2.62-9.03-1.89-1.08-4.1,1.28-6.12,0-1.88-1.19-.92-3.82-2.33-4.66-2.64-1.58-7.23,6.99-13.69,6.99s-10.79-8.65-13.99-6.99c-1.74.9-1.29,3.88-3.21,4.37-1.97.51-4.21-2.14-4.37-2.33-2.1-2.53-1.14-4.74-2.91-6.41-.59-.56-1.57-1.13-3.3-1.25-.13.93-.19,1.89-.19,2.85,0,1.18.1,2.33.29,3.46h0c-1.64,1.91-2.62,4.3-2.62,6.88,0,3.53,1.82,6.69,4.68,8.78-4.86,3.08-8.17,9.28-8.17,16.42Z"/>
            <path class="cls-1" d="M1486.72,100.02c1.74.12,2.72.69,3.3,1.25,1.77,1.67.82,3.88,2.91,6.41.16.19,2.4,2.84,4.37,2.33,1.91-.5,1.47-3.47,3.21-4.37,3.2-1.65,7.5,6.99,13.99,6.99s11.05-8.57,13.69-6.99c1.41.84.45,3.48,2.33,4.66,2.02,1.28,4.23-1.08,6.12,0,2.51,1.43-.05,6.37,2.62,9.03,2.74,2.73,7.45-.42,11.07,2.91,1.73,1.59,1.38,2.99,2.91,3.5,2.95.98,5.91-3.67,8.16-2.62,1.44.67.51,2.7,2.04,4.37,2.57,2.81,7.28-.63,12.82,1.75,3.89,1.67,3.1,4.02,6.41,4.95,4.41,1.24,6.18-2.84,13.4-3.5,5.47-.5,6.24,1.68,9.62.29,3.81-1.57,4.97-5.23,6.98-6.53-4.19-6.52-6.08-7.8-6.98-7.45-.64.24-.82,1.3-2.04,1.75-1.26.46-2.55-.13-2.91-.29-3.7-1.68-2.74-7.03-5.83-8.16-2.04-.75-4.49.86-4.95,1.17-2.5,1.64-2.86,4.19-4.08,4.08-1.28-.11-1.31-2.99-2.62-3.21-1.73-.28-2.49,4.59-6.41,6.12-.14.05-2.55.96-4.95,0-3.58-1.42-2.89-5.3-5.83-7.87-4.93-4.3-12.8,1.47-16.32-2.33-3.12-3.37.19-10.99-1.75-11.65-1.05-.36-1.92,1.9-5.24,2.62-1.98.43-3.73.08-4.08,0-1.88-.4-2.16-1.06-3.21-1.17-2.41-.24-3.67,3-6.12,4.95-4.3,3.42-11.94,2.61-16.61,0-5.73-3.2-6.61-8.92-9.62-8.45-2.74.43-3.03,5.34-6.99,6.12-1.17.23-1.76-.08-4.08-.58-1.36-.3-3.11-.62-5.22-.86-.05.26-.08.51-.12.78Z"/>
            <path class="cls-4" d="M1486.84,99.25c2.11.24,3.87.56,5.22.86,2.32.51,2.91.81,4.08.58,3.96-.78,4.26-5.69,6.99-6.12,3-.47,3.89,5.25,9.62,8.45,4.66,2.61,12.31,3.42,16.61,0,2.45-1.95,3.71-5.19,6.12-4.95,1.05.1,1.33.77,3.21,1.17.35.08,2.1.43,4.08,0,3.32-.72,4.2-2.98,5.24-2.62,1.94.66-1.37,8.29,1.75,11.65,3.52,3.8,11.39-1.97,16.32,2.33,2.94,2.56,2.24,6.44,5.83,7.87,2.4.96,4.82.05,4.95,0,3.92-1.52,4.68-6.4,6.41-6.12,1.31.21,1.34,3.09,2.62,3.21,1.21.11,1.58-2.44,4.08-4.08.47-.31,2.91-1.91,4.95-1.17,3.08,1.13,2.13,6.47,5.83,8.16.37.17,1.66.75,2.91.29,1.21-.45,1.4-1.5,2.04-1.75.91-.35,2.79.94,6.98,7.45.51-.33,1.08-.51,1.76-.46,1.22.08,4.57,1.02,6.31.93.35-.02.69-.06.69-.06,4.13-.48,4.8-2.51,9.91-4.66.7-.3,1.53-.61,2.47-.91h0c5.29-2.89,8.89-8.51,8.89-14.97,0-8.68-6.48-15.84-14.87-16.91.76-1.89,1.17-3.95,1.17-6.11,0-9.09-7.37-16.46-16.46-16.46-2.39,0-4.66.51-6.72,1.43,0-.23.01-.47.01-.7,0-9.49-7.7-17.19-17.19-17.19-5.86,0-11.04,2.94-14.14,7.42-6.65-4.86-15.74-7.86-25.77-7.86-20.36,0-36.86,12.33-36.86,27.53,0,2.41.41,4.74,1.19,6.97-1.73-.46-3.54-.7-5.41-.7-10.43,0-19.09,7.56-20.81,17.5Z"/>
          </g>
        </g>
        <g>
          <ellipse class="cls-3" cx="1356.3" cy="162.41" rx="27.3" ry="2.48"/>
          <path class="cls-6" d="M1360.34,162.77c-.74-9.25-1.47-18.51-2.21-27.76,5.88-7.97,11.77-15.93,17.65-23.9l-2.94-2.21-16.36,21.33-.37-18.38-2.57-.18-.18,12.32-7.72-13.24c-1.47.12-2.94.25-4.41.37,3.86,6.68,7.72,13.36,11.58,20.04-.12,10.54-.25,21.08-.37,31.62.89.22,1.98.4,3.22.46,1.9.08,3.5-.17,4.69-.46Z"/>
          <g>
            <path class="cls-2" d="M1302.25,94.29c0,6.45,4.28,11.67,9.56,11.67,2.97,0,5.62-1.65,7.37-4.24.41,2.19,1.49,4.56,3.21,6.73,3.91,4.93,9.63,6.91,12.77,4.42.66-.52,1.15-1.19,1.48-1.98,1.65,1.51,3.8,2.42,6.15,2.42,2.83,0,5.38-1.33,7.11-3.44.21,1.38.79,2.54,1.77,3.31,3.14,2.49,9.17.12,13.46-5.29.02-.03.04-.05.06-.08.83.23,1.74.35,2.69.35.7,0,1.37-.07,2.01-.19,1.62,2.63,4.89,4.42,8.66,4.42,2.98,0,5.64-1.12,7.43-2.89.97.09,1.95.13,2.96.13,12.13,0,21.97-6.42,21.97-14.34,0-5.67-5.05-10.58-12.37-12.9.11-.06.22-.11.33-.17-.6.19-1.12.38-1.56.57-3.22,1.35-3.64,2.64-6.25,2.94,0,0-.22.02-.43.03-1.1.06-3.21-.53-3.98-.59-.43-.03-.78.08-1.11.29-1.27.82-2,3.13-4.41,4.12-2.13.88-2.61-.5-6.07-.18-4.56.42-5.67,2.99-8.46,2.21-2.09-.59-1.59-2.07-4.04-3.13-3.49-1.5-6.47.67-8.09-1.1-.97-1.06-.38-2.34-1.29-2.76-1.42-.66-3.29,2.27-5.15,1.65-.97-.32-.75-1.2-1.84-2.21-2.28-2.1-5.26-.12-6.99-1.84-1.69-1.68-.07-4.8-1.65-5.7-1.19-.68-2.59.81-3.86,0-1.18-.75-.58-2.41-1.47-2.94-1.67-1-4.56,4.41-8.64,4.41s-6.81-5.46-8.82-4.41c-1.1.57-.81,2.45-2.02,2.76-1.24.32-2.66-1.35-2.76-1.47-1.32-1.6-.72-2.99-1.84-4.04-.37-.35-.99-.72-2.08-.79-.08.59-.12,1.19-.12,1.8,0,.74.06,1.47.18,2.18h0c-1.04,1.21-1.65,2.71-1.65,4.34,0,2.23,1.15,4.22,2.95,5.54-3.06,1.94-5.16,5.86-5.16,10.36Z"/>
            <path class="cls-1" d="M1306.05,70.07c1.1.07,1.71.44,2.08.79,1.12,1.05.51,2.45,1.84,4.04.1.12,1.52,1.79,2.76,1.47,1.21-.31.93-2.19,2.02-2.76,2.02-1.04,4.73,4.41,8.82,4.41s6.97-5.41,8.64-4.41c.89.53.29,2.19,1.47,2.94,1.27.81,2.67-.68,3.86,0,1.58.9-.03,4.02,1.65,5.7,1.73,1.72,4.7-.27,6.99,1.84,1.09,1.01.87,1.89,1.84,2.21,1.86.62,3.73-2.31,5.15-1.65.91.42.32,1.7,1.29,2.76,1.62,1.78,4.6-.4,8.09,1.1,2.46,1.05,1.96,2.54,4.04,3.13,2.79.78,3.9-1.79,8.46-2.21,3.45-.31,3.94,1.06,6.07.18,2.41-.99,3.14-3.3,4.41-4.12-2.64-4.11-3.83-4.92-4.41-4.7-.4.15-.52.82-1.29,1.1-.79.29-1.61-.08-1.84-.18-2.33-1.06-1.73-4.44-3.68-5.15-1.29-.47-2.83.54-3.13.74-1.58,1.04-1.81,2.64-2.57,2.57-.81-.07-.83-1.89-1.65-2.02-1.09-.18-1.57,2.9-4.04,3.86-.09.03-1.61.6-3.13,0-2.26-.9-1.82-3.35-3.68-4.96-3.11-2.72-8.08.92-10.29-1.47-1.97-2.12.12-6.94-1.1-7.35-.66-.23-1.21,1.2-3.31,1.65-1.25.27-2.35.05-2.57,0-1.19-.25-1.36-.67-2.02-.74-1.52-.15-2.31,1.9-3.86,3.13-2.71,2.16-7.54,1.65-10.48,0-3.61-2.02-4.17-5.63-6.07-5.33-1.73.27-1.91,3.37-4.41,3.86-.74.15-1.11-.05-2.57-.37-.86-.19-1.96-.39-3.3-.54-.03.16-.05.32-.08.49Z"/>
            <path class="cls-4" d="M1306.12,69.58c1.33.15,2.44.35,3.3.54,1.47.32,1.84.51,2.57.37,2.5-.49,2.69-3.59,4.41-3.86,1.9-.3,2.45,3.31,6.07,5.33,2.94,1.65,7.77,2.16,10.48,0,1.55-1.23,2.34-3.28,3.86-3.13.66.07.84.48,2.02.74.22.05,1.33.27,2.57,0,2.1-.45,2.65-1.88,3.31-1.65,1.22.42-.86,5.23,1.1,7.35,2.22,2.4,7.18-1.24,10.29,1.47,1.85,1.62,1.42,4.06,3.68,4.96,1.51.6,3.04.03,3.13,0,2.47-.96,2.95-4.04,4.04-3.86.83.13.84,1.95,1.65,2.02.77.07,1-1.54,2.57-2.57.29-.19,1.84-1.21,3.13-.74,1.95.71,1.34,4.08,3.68,5.15.23.1,1.04.47,1.84.18.77-.28.89-.95,1.29-1.1.57-.22,1.76.59,4.41,4.7.32-.21.68-.32,1.11-.29.77.05,2.88.64,3.98.59.22-.01.43-.03.43-.03,2.61-.31,3.03-1.59,6.25-2.94.44-.19.96-.38,1.56-.57h0c3.34-1.83,5.61-5.37,5.61-9.45,0-5.47-4.09-9.99-9.38-10.67.48-1.19.74-2.49.74-3.86,0-5.74-4.65-10.39-10.39-10.39-1.51,0-2.94.32-4.24.9,0-.15,0-.29,0-.44,0-5.99-4.86-10.85-10.85-10.85-3.7,0-6.97,1.85-8.92,4.68-4.19-3.07-9.93-4.96-16.26-4.96-12.84,0-23.26,7.78-23.26,17.37,0,1.52.26,2.99.75,4.4-1.09-.29-2.24-.44-3.42-.44-6.58,0-12.05,4.77-13.13,11.04Z"/>
          </g>
        </g>
        <g>
          <ellipse class="cls-3" cx="1205.27" cy="104.17" rx="16.57" ry="1.51"/>
          <path class="cls-6" d="M1207.73,104.39c-.45-5.62-.89-11.23-1.34-16.85,3.57-4.84,7.14-9.67,10.71-14.51l-1.79-1.34-9.93,12.95-.22-11.16-1.56-.11-.11,7.48-4.69-8.04c-.89.07-1.79.15-2.68.22,2.34,4.05,4.69,8.11,7.03,12.16-.07,6.4-.15,12.8-.22,19.2.54.13,1.2.25,1.95.28,1.15.05,2.13-.1,2.85-.28Z"/>
          <g>
            <path class="cls-2" d="M1172.46,62.82c0,3.91,2.6,7.09,5.8,7.09,1.8,0,3.41-1,4.48-2.57.25,1.33.91,2.77,1.95,4.08,2.37,3,5.84,4.2,7.75,2.69.4-.32.7-.72.9-1.2,1,.92,2.31,1.47,3.73,1.47,1.72,0,3.26-.81,4.32-2.09.13.84.48,1.54,1.08,2.01,1.91,1.51,5.57.07,8.17-3.21.01-.02.03-.03.04-.05.5.14,1.05.21,1.63.21.42,0,.83-.04,1.22-.12.98,1.59,2.97,2.68,5.25,2.68,1.81,0,3.43-.68,4.51-1.75.59.05,1.19.08,1.79.08,7.37,0,13.34-3.9,13.34-8.71,0-3.44-3.06-6.42-7.51-7.83.07-.03.13-.07.2-.1-.36.11-.68.23-.95.35-1.95.82-2.21,1.6-3.79,1.79,0,0-.13.01-.26.02-.67.03-1.95-.32-2.42-.36-.26-.02-.48.05-.67.18-.77.5-1.21,1.9-2.68,2.5-1.29.53-1.59-.3-3.68-.11-2.77.25-3.44,1.81-5.13,1.34-1.27-.36-.96-1.26-2.46-1.9-2.12-.91-3.93.41-4.91-.67-.59-.64-.23-1.42-.78-1.67-.86-.4-1.99,1.38-3.12,1-.59-.19-.45-.73-1.12-1.34-1.39-1.28-3.19-.07-4.24-1.12-1.02-1.02-.04-2.91-1-3.46-.72-.41-1.57.49-2.34,0-.72-.45-.35-1.46-.89-1.79-1.01-.6-2.77,2.68-5.25,2.68s-4.13-3.31-5.36-2.68c-.67.34-.49,1.48-1.23,1.67-.75.19-1.61-.82-1.67-.89-.8-.97-.44-1.82-1.12-2.46-.23-.21-.6-.43-1.27-.48-.05.36-.07.72-.07,1.09,0,.45.04.89.11,1.33h0c-.63.73-1,1.65-1,2.64,0,1.35.7,2.56,1.79,3.36-1.86,1.18-3.13,3.55-3.13,6.29Z"/>
            <path class="cls-1" d="M1174.76,48.11c.67.04,1.04.27,1.27.48.68.64.31,1.49,1.12,2.46.06.07.92,1.09,1.67.89.73-.19.56-1.33,1.23-1.67,1.22-.63,2.87,2.68,5.36,2.68s4.23-3.28,5.25-2.68c.54.32.17,1.33.89,1.79.77.49,1.62-.41,2.34,0,.96.55-.02,2.44,1,3.46,1.05,1.04,2.85-.16,4.24,1.12.66.61.53,1.15,1.12,1.34,1.13.37,2.26-1.4,3.12-1,.55.26.2,1.03.78,1.67.98,1.08,2.79-.24,4.91.67,1.49.64,1.19,1.54,2.46,1.9,1.69.48,2.37-1.09,5.13-1.34,2.1-.19,2.39.65,3.68.11,1.46-.6,1.9-2,2.68-2.5-1.6-2.5-2.33-2.99-2.68-2.85-.24.09-.32.5-.78.67-.48.18-.98-.05-1.12-.11-1.42-.65-1.05-2.69-2.23-3.12-.78-.29-1.72.33-1.9.45-.96.63-1.1,1.6-1.56,1.56-.49-.04-.5-1.15-1-1.23-.66-.11-.95,1.76-2.46,2.34-.05.02-.98.37-1.9,0-1.37-.55-1.11-2.03-2.23-3.01-1.89-1.65-4.9.56-6.25-.89-1.19-1.29.07-4.21-.67-4.46-.4-.14-.74.73-2.01,1-.76.16-1.43.03-1.56,0-.72-.15-.83-.41-1.23-.45-.92-.09-1.41,1.15-2.34,1.9-1.65,1.31-4.57,1-6.36,0-2.19-1.23-2.53-3.42-3.68-3.24-1.05.17-1.16,2.05-2.68,2.34-.45.09-.67-.03-1.56-.22-.52-.11-1.19-.24-2-.33-.02.1-.03.2-.05.3Z"/>
            <path class="cls-4" d="M1174.81,47.82c.81.09,1.48.22,2,.33.89.19,1.12.31,1.56.22,1.52-.3,1.63-2.18,2.68-2.34,1.15-.18,1.49,2.01,3.68,3.24,1.79,1,4.72,1.31,6.36,0,.94-.75,1.42-1.99,2.34-1.9.4.04.51.29,1.23.45.13.03.81.16,1.56,0,1.27-.28,1.61-1.14,2.01-1,.74.25-.52,3.18.67,4.46,1.35,1.45,4.36-.76,6.25.89,1.12.98.86,2.47,2.23,3.01.92.37,1.84.02,1.9,0,1.5-.58,1.79-2.45,2.46-2.34.5.08.51,1.18,1,1.23.47.04.6-.93,1.56-1.56.18-.12,1.11-.73,1.9-.45,1.18.43.81,2.48,2.23,3.12.14.06.63.29,1.12.11.47-.17.54-.58.78-.67.35-.13,1.07.36,2.68,2.85.2-.13.41-.19.67-.18.47.03,1.75.39,2.42.36.13,0,.26-.02.26-.02,1.58-.19,1.84-.96,3.79-1.79.27-.11.58-.23.95-.35h0c2.03-1.11,3.41-3.26,3.41-5.74,0-3.32-2.48-6.07-5.7-6.48.29-.72.45-1.51.45-2.34,0-3.48-2.82-6.31-6.31-6.31-.92,0-1.79.2-2.57.55,0-.09,0-.18,0-.27,0-3.64-2.95-6.58-6.58-6.58-2.25,0-4.23,1.12-5.42,2.84-2.55-1.86-6.03-3.01-9.87-3.01-7.8,0-14.12,4.72-14.12,10.55,0,.92.16,1.82.46,2.67-.66-.18-1.36-.27-2.07-.27-3.99,0-7.31,2.9-7.97,6.7Z"/>
          </g>
        </g>
        <g>
          <ellipse class="cls-3" cx="1124.59" cy="71.57" rx="9.51" ry=".86"/>
          <path class="cls-6" d="M1126,71.7c-.26-3.22-.51-6.45-.77-9.67,2.05-2.78,4.1-5.55,6.15-8.33l-1.03-.77-5.7,7.43-.13-6.41-.9-.06-.06,4.29-2.69-4.61c-.51.04-1.03.09-1.54.13,1.35,2.33,2.69,4.66,4.04,6.98-.04,3.67-.09,7.35-.13,11.02.31.08.69.14,1.12.16.66.03,1.22-.06,1.63-.16Z"/>
          <g>
            <path class="cls-2" d="M1105.76,47.83c0,2.25,1.49,4.07,3.33,4.07,1.03,0,1.96-.58,2.57-1.48.14.76.52,1.59,1.12,2.34,1.36,1.72,3.36,2.41,4.45,1.54.23-.18.4-.42.52-.69.58.53,1.32.84,2.14.84.99,0,1.87-.46,2.48-1.2.07.48.28.88.62,1.15,1.1.87,3.2.04,4.69-1.84,0,0,.01-.02.02-.03.29.08.6.12.94.12.24,0,.48-.02.7-.07.56.92,1.7,1.54,3.02,1.54,1.04,0,1.97-.39,2.59-1.01.34.03.68.05,1.03.05,4.23,0,7.66-2.24,7.66-5,0-1.98-1.76-3.69-4.31-4.5.04-.02.08-.04.11-.06-.21.07-.39.13-.54.2-1.12.47-1.27.92-2.18,1.03,0,0-.07,0-.15.01-.38.02-1.12-.19-1.39-.2-.15-.01-.27.03-.39.1-.44.29-.7,1.09-1.54,1.44-.74.31-.91-.17-2.11-.06-1.59.14-1.98,1.04-2.95.77-.73-.21-.55-.72-1.41-1.09-1.22-.52-2.25.23-2.82-.38-.34-.37-.13-.81-.45-.96-.5-.23-1.14.79-1.79.58-.34-.11-.26-.42-.64-.77-.8-.73-1.83-.04-2.43-.64-.59-.59-.02-1.67-.58-1.99-.42-.24-.9.28-1.35,0-.41-.26-.2-.84-.51-1.03-.58-.35-1.59,1.54-3.01,1.54s-2.37-1.9-3.08-1.54c-.38.2-.28.85-.7.96-.43.11-.93-.47-.96-.51-.46-.56-.25-1.04-.64-1.41-.13-.12-.34-.25-.73-.27-.03.21-.04.41-.04.63,0,.26.02.51.06.76h0c-.36.42-.58.95-.58,1.51,0,.78.4,1.47,1.03,1.93-1.07.68-1.8,2.04-1.8,3.61Z"/>
            <path class="cls-1" d="M1107.08,39.39c.38.03.6.15.73.27.39.37.18.85.64,1.41.03.04.53.62.96.51.42-.11.32-.76.7-.96.7-.36,1.65,1.54,3.08,1.54s2.43-1.88,3.01-1.54c.31.18.1.76.51,1.03.44.28.93-.24,1.35,0,.55.31-.01,1.4.58,1.99.6.6,1.64-.09,2.43.64.38.35.3.66.64.77.65.22,1.3-.81,1.79-.58.32.15.11.59.45.96.57.62,1.6-.14,2.82.38.86.37.68.88,1.41,1.09.97.27,1.36-.62,2.95-.77,1.2-.11,1.37.37,2.11.06.84-.35,1.09-1.15,1.54-1.44-.92-1.43-1.34-1.72-1.54-1.64-.14.05-.18.29-.45.38-.28.1-.56-.03-.64-.06-.81-.37-.6-1.55-1.28-1.79-.45-.16-.99.19-1.09.26-.55.36-.63.92-.9.9-.28-.02-.29-.66-.58-.7-.38-.06-.55,1.01-1.41,1.35-.03.01-.56.21-1.09,0-.79-.31-.64-1.17-1.28-1.73-1.08-.95-2.81.32-3.59-.51-.69-.74.04-2.42-.38-2.56-.23-.08-.42.42-1.15.58-.43.09-.82.02-.9,0-.41-.09-.47-.23-.7-.26-.53-.05-.81.66-1.35,1.09-.95.75-2.63.57-3.65,0-1.26-.7-1.45-1.96-2.11-1.86-.6.09-.67,1.17-1.54,1.35-.26.05-.39-.02-.9-.13-.3-.07-.68-.14-1.15-.19-.01.06-.02.11-.03.17Z"/>
            <path class="cls-4" d="M1107.11,39.22c.46.05.85.12,1.15.19.51.11.64.18.9.13.87-.17.94-1.25,1.54-1.35.66-.1.85,1.15,2.11,1.86,1.03.57,2.71.75,3.65,0,.54-.43.82-1.14,1.35-1.09.23.02.29.17.7.26.08.02.46.09.9,0,.73-.16.92-.66,1.15-.58.43.15-.3,1.82.38,2.56.77.83,2.5-.43,3.59.51.65.56.49,1.42,1.28,1.73.53.21,1.06.01,1.09,0,.86-.34,1.03-1.41,1.41-1.35.29.05.29.68.58.7.27.02.35-.54.9-.9.1-.07.64-.42,1.09-.26.68.25.47,1.42,1.28,1.79.08.04.36.17.64.06.27-.1.31-.33.45-.38.2-.08.61.21,1.54,1.64.11-.07.24-.11.39-.1.27.02,1,.22,1.39.2.08,0,.15-.01.15-.01.91-.11,1.06-.55,2.18-1.03.15-.07.34-.13.54-.2h0c1.16-.64,1.95-1.87,1.95-3.29,0-1.91-1.43-3.48-3.27-3.72.17-.42.26-.87.26-1.34,0-2-1.62-3.62-3.62-3.62-.53,0-1.03.11-1.48.31,0-.05,0-.1,0-.15,0-2.09-1.69-3.78-3.78-3.78-1.29,0-2.43.65-3.11,1.63-1.46-1.07-3.46-1.73-5.67-1.73-4.48,0-8.1,2.71-8.1,6.05,0,.53.09,1.04.26,1.53-.38-.1-.78-.15-1.19-.15-2.29,0-4.2,1.66-4.58,3.85Z"/>
          </g>
        </g>
        <g>
          <ellipse class="cls-3" cx="1066.48" cy="49.33" rx="6.22" ry=".57"/>
          <path class="cls-6" d="M1067.4,49.42c-.17-2.11-.33-4.21-.5-6.32,1.34-1.81,2.68-3.63,4.02-5.44l-.67-.5-3.73,4.86-.08-4.19-.59-.04-.04,2.8-1.76-3.01c-.33.03-.67.06-1,.08.88,1.52,1.76,3.04,2.64,4.56-.03,2.4-.06,4.8-.08,7.2.2.05.45.09.73.1.43.02.8-.04,1.07-.1Z"/>
          <g>
            <path class="cls-2" d="M1054.17,33.82c0,1.47.97,2.66,2.18,2.66.68,0,1.28-.38,1.68-.97.09.5.34,1.04.73,1.53.89,1.12,2.19,1.57,2.91,1.01.15-.12.26-.27.34-.45.38.34.87.55,1.4.55.65,0,1.22-.3,1.62-.78.05.32.18.58.4.75.72.57,2.09.03,3.06-1.21,0,0,0-.01.01-.02.19.05.4.08.61.08.16,0,.31-.02.46-.04.37.6,1.11,1.01,1.97,1.01.68,0,1.29-.26,1.69-.66.22.02.45.03.67.03,2.76,0,5-1.46,5-3.27,0-1.29-1.15-2.41-2.82-2.94.03-.01.05-.03.07-.04-.14.04-.25.09-.36.13-.73.31-.83.6-1.42.67,0,0-.05,0-.1,0-.25.01-.73-.12-.91-.13-.1,0-.18.02-.25.07-.29.19-.46.71-1,.94-.49.2-.59-.11-1.38-.04-1.04.09-1.29.68-1.93.5-.48-.13-.36-.47-.92-.71-.8-.34-1.47.15-1.84-.25-.22-.24-.09-.53-.29-.63-.32-.15-.75.52-1.17.38-.22-.07-.17-.27-.42-.5-.52-.48-1.2-.03-1.59-.42-.38-.38-.02-1.09-.38-1.3-.27-.15-.59.18-.88,0-.27-.17-.13-.55-.33-.67-.38-.23-1.04,1-1.97,1s-1.55-1.24-2.01-1c-.25.13-.19.56-.46.63-.28.07-.61-.31-.63-.33-.3-.36-.16-.68-.42-.92-.08-.08-.23-.16-.47-.18-.02.13-.03.27-.03.41,0,.17.01.34.04.5h0c-.24.28-.38.62-.38.99,0,.51.26.96.67,1.26-.7.44-1.17,1.33-1.17,2.36Z"/>
            <path class="cls-1" d="M1055.04,28.3c.25.02.39.1.47.18.25.24.12.56.42.92.02.03.35.41.63.33.28-.07.21-.5.46-.63.46-.24,1.08,1,2.01,1s1.59-1.23,1.97-1c.2.12.07.5.33.67.29.18.61-.15.88,0,.36.21,0,.91.38,1.3.39.39,1.07-.06,1.59.42.25.23.2.43.42.5.42.14.85-.53,1.17-.38.21.1.07.39.29.63.37.4,1.05-.09,1.84.25.56.24.45.58.92.71.63.18.89-.41,1.93-.5.79-.07.9.24,1.38.04.55-.23.71-.75,1-.94-.6-.94-.87-1.12-1-1.07-.09.04-.12.19-.29.25-.18.07-.37-.02-.42-.04-.53-.24-.39-1.01-.84-1.17-.29-.11-.64.12-.71.17-.36.24-.41.6-.59.59-.18-.02-.19-.43-.38-.46-.25-.04-.36.66-.92.88-.02,0-.37.14-.71,0-.51-.2-.42-.76-.84-1.13-.71-.62-1.84.21-2.34-.33-.45-.48.03-1.58-.25-1.67-.15-.05-.28.27-.75.38-.28.06-.54.01-.59,0-.27-.06-.31-.15-.46-.17-.35-.03-.53.43-.88.71-.62.49-1.72.37-2.39,0-.82-.46-.95-1.28-1.38-1.21-.39.06-.44.77-1,.88-.17.03-.25-.01-.59-.08-.2-.04-.45-.09-.75-.12,0,.04-.01.07-.02.11Z"/>
            <path class="cls-4" d="M1055.05,28.19c.3.03.56.08.75.12.33.07.42.12.59.08.57-.11.61-.82,1-.88.43-.07.56.75,1.38,1.21.67.37,1.77.49,2.39,0,.35-.28.53-.75.88-.71.15.02.19.11.46.17.05.01.3.06.59,0,.48-.1.6-.43.75-.38.28.1-.2,1.19.25,1.67.51.55,1.64-.28,2.34.33.42.37.32.93.84,1.13.34.14.69,0,.71,0,.56-.22.67-.92.92-.88.19.03.19.44.38.46.17.02.23-.35.59-.59.07-.04.42-.28.71-.17.44.16.31.93.84,1.17.05.02.24.11.42.04.17-.06.2-.22.29-.25.13-.05.4.13,1,1.07.07-.05.15-.07.25-.07.18.01.66.15.91.13.05,0,.1,0,.1,0,.59-.07.69-.36,1.42-.67.1-.04.22-.09.36-.13h0c.76-.42,1.28-1.22,1.28-2.15,0-1.25-.93-2.28-2.14-2.43.11-.27.17-.57.17-.88,0-1.31-1.06-2.37-2.37-2.37-.34,0-.67.07-.96.21,0-.03,0-.07,0-.1,0-1.36-1.11-2.47-2.47-2.47-.84,0-1.59.42-2.03,1.07-.95-.7-2.26-1.13-3.7-1.13-2.92,0-5.3,1.77-5.3,3.96,0,.35.06.68.17,1-.25-.07-.51-.1-.78-.1-1.5,0-2.74,1.09-2.99,2.51Z"/>
          </g>
        </g>
        <g>
          <ellipse class="cls-3" cx="1724.34" cy="140.28" rx="27.3" ry="2.48"/>
          <path class="cls-6" d="M1728.39,140.64c-.74-9.25-1.47-18.51-2.21-27.76,5.88-7.97,11.77-15.93,17.65-23.9l-2.94-2.21-16.36,21.33-.37-18.38-2.57-.18-.18,12.32-7.72-13.24c-1.47.12-2.94.25-4.41.37,3.86,6.68,7.72,13.36,11.58,20.04-.12,10.54-.25,21.08-.37,31.62.89.22,1.98.4,3.22.46,1.9.08,3.5-.17,4.69-.46Z"/>
          <g>
            <path class="cls-2" d="M1670.29,72.16c0,6.45,4.28,11.67,9.56,11.67,2.97,0,5.62-1.65,7.37-4.24.41,2.19,1.49,4.56,3.21,6.73,3.91,4.93,9.63,6.91,12.77,4.42.66-.52,1.15-1.19,1.48-1.98,1.65,1.51,3.8,2.42,6.15,2.42,2.83,0,5.38-1.33,7.11-3.44.21,1.38.79,2.54,1.77,3.31,3.14,2.49,9.17.12,13.46-5.29.02-.03.04-.05.06-.08.83.23,1.74.35,2.69.35.7,0,1.37-.07,2.01-.19,1.62,2.63,4.89,4.42,8.66,4.42,2.98,0,5.64-1.12,7.43-2.89.97.09,1.95.13,2.96.13,12.13,0,21.97-6.42,21.97-14.34,0-5.67-5.05-10.58-12.37-12.9.11-.06.22-.11.33-.17-.6.19-1.12.38-1.56.57-3.22,1.35-3.64,2.64-6.25,2.94,0,0-.22.02-.43.03-1.1.06-3.21-.53-3.98-.59-.43-.03-.78.08-1.11.29-1.27.82-2,3.13-4.41,4.12-2.13.88-2.61-.5-6.07-.18-4.56.42-5.67,2.99-8.46,2.21-2.09-.59-1.59-2.07-4.04-3.13-3.49-1.5-6.47.67-8.09-1.1-.97-1.06-.38-2.34-1.29-2.76-1.42-.66-3.29,2.27-5.15,1.65-.97-.32-.75-1.2-1.84-2.21-2.28-2.1-5.26-.12-6.99-1.84-1.69-1.68-.07-4.8-1.65-5.7-1.19-.68-2.59.81-3.86,0-1.18-.75-.58-2.41-1.47-2.94-1.67-1-4.56,4.41-8.64,4.41s-6.81-5.46-8.82-4.41c-1.1.57-.81,2.45-2.02,2.76-1.24.32-2.66-1.35-2.76-1.47-1.32-1.6-.72-2.99-1.84-4.04-.37-.35-.99-.72-2.08-.79-.08.59-.12,1.19-.12,1.8,0,.74.06,1.47.18,2.18h0c-1.04,1.21-1.65,2.71-1.65,4.34,0,2.23,1.15,4.22,2.95,5.54-3.06,1.94-5.16,5.86-5.16,10.36Z"/>
            <path class="cls-1" d="M1674.09,47.94c1.1.07,1.71.44,2.08.79,1.12,1.05.51,2.45,1.84,4.04.1.12,1.52,1.79,2.76,1.47,1.21-.31.93-2.19,2.02-2.76,2.02-1.04,4.73,4.41,8.82,4.41s6.97-5.41,8.64-4.41c.89.53.29,2.19,1.47,2.94,1.27.81,2.67-.68,3.86,0,1.58.9-.03,4.02,1.65,5.7,1.73,1.72,4.7-.27,6.99,1.84,1.09,1.01.87,1.89,1.84,2.21,1.86.62,3.73-2.31,5.15-1.65.91.42.32,1.7,1.29,2.76,1.62,1.78,4.6-.4,8.09,1.1,2.46,1.05,1.96,2.54,4.04,3.13,2.79.78,3.9-1.79,8.46-2.21,3.45-.31,3.94,1.06,6.07.18,2.41-.99,3.14-3.3,4.41-4.12-2.64-4.11-3.83-4.92-4.41-4.7-.4.15-.52.82-1.29,1.1-.79.29-1.61-.08-1.84-.18-2.33-1.06-1.73-4.44-3.68-5.15-1.29-.47-2.83.54-3.13.74-1.58,1.04-1.81,2.64-2.57,2.57-.81-.07-.83-1.89-1.65-2.02-1.09-.18-1.57,2.9-4.04,3.86-.09.03-1.61.6-3.13,0-2.26-.9-1.82-3.35-3.68-4.96-3.11-2.72-8.08.92-10.29-1.47-1.97-2.12.12-6.94-1.1-7.35-.66-.23-1.21,1.2-3.31,1.65-1.25.27-2.35.05-2.57,0-1.19-.25-1.36-.67-2.02-.74-1.52-.15-2.31,1.9-3.86,3.13-2.71,2.16-7.54,1.65-10.48,0-3.61-2.02-4.17-5.63-6.07-5.33-1.73.27-1.91,3.37-4.41,3.86-.74.15-1.11-.05-2.57-.37-.86-.19-1.96-.39-3.3-.54-.03.16-.05.32-.08.49Z"/>
            <path class="cls-4" d="M1674.17,47.45c1.33.15,2.44.35,3.3.54,1.47.32,1.84.51,2.57.37,2.5-.49,2.69-3.59,4.41-3.86,1.9-.3,2.45,3.31,6.07,5.33,2.94,1.65,7.77,2.16,10.48,0,1.55-1.23,2.34-3.28,3.86-3.13.66.07.84.48,2.02.74.22.05,1.33.27,2.57,0,2.1-.45,2.65-1.88,3.31-1.65,1.22.42-.86,5.23,1.1,7.35,2.22,2.4,7.18-1.24,10.29,1.47,1.85,1.62,1.42,4.06,3.68,4.96,1.51.6,3.04.03,3.13,0,2.47-.96,2.95-4.04,4.04-3.86.83.13.84,1.95,1.65,2.02.77.07,1-1.54,2.57-2.57.29-.19,1.84-1.21,3.13-.74,1.95.71,1.34,4.08,3.68,5.15.23.1,1.04.47,1.84.18.77-.28.89-.95,1.29-1.1.57-.22,1.76.59,4.41,4.7.32-.21.68-.32,1.11-.29.77.05,2.88.64,3.98.59.22-.01.43-.03.43-.03,2.61-.31,3.03-1.59,6.25-2.94.44-.19.96-.38,1.56-.57h0c3.34-1.83,5.61-5.37,5.61-9.45,0-5.47-4.09-9.99-9.38-10.67.48-1.19.74-2.49.74-3.86,0-5.74-4.65-10.39-10.39-10.39-1.51,0-2.94.32-4.24.9,0-.15,0-.29,0-.44,0-5.99-4.86-10.85-10.85-10.85-3.7,0-6.97,1.85-8.92,4.68-4.19-3.07-9.93-4.96-16.26-4.96-12.84,0-23.26,7.78-23.26,17.37,0,1.52.26,2.99.75,4.4-1.09-.29-2.24-.44-3.42-.44-6.58,0-12.05,4.77-13.13,11.04Z"/>
          </g>
        </g>
        <g>
          <path class="cls-2" d="M1961.68,20.1c-.93.8-2.1,1.84-3.48,1.84-2.48,0-4.13-3.31-5.36-2.68-.67.34-.49,1.48-1.23,1.67-.75.19-1.61-.82-1.67-.89-.8-.97-.44-1.82-1.12-2.46-.23-.21-.6-.43-1.27-.48-.05.36-.07.72-.07,1.09,0,.45.04.89.11,1.33h0c-.63.73-1,1.65-1,2.64,0,1.35.7,2.56,1.79,3.36-1.86,1.18-3.13,3.55-3.13,6.29,0,3.91,2.6,7.09,5.8,7.09,1.8,0,3.41-1,4.48-2.57.25,1.33.91,2.77,1.95,4.08,1.23,1.55,2.76,2.62,4.21,3.08v-23.39Z"/>
          <path class="cls-1" d="M1961.68,19.09c-1.43.16-3.02-.2-4.15-.83-2.19-1.23-2.53-3.42-3.68-3.24-1.05.17-1.16,2.05-2.68,2.34-.45.09-.67-.03-1.56-.22-.52-.11-1.19-.24-2-.33-.02.1-.03.2-.05.3.67.04,1.04.27,1.27.48.68.64.31,1.49,1.12,2.46.06.07.92,1.09,1.67.89.73-.19.56-1.33,1.23-1.67,1.22-.63,2.87,2.68,5.36,2.68,1.39,0,2.55-1.03,3.48-1.84v-1.02Z"/>
          <path class="cls-4" d="M1961.68,0c-2.76,1.93-4.49,4.67-4.49,7.71,0,.92.16,1.82.46,2.67-.66-.18-1.36-.27-2.07-.27-3.99,0-7.31,2.89-7.97,6.7.81.09,1.48.22,2,.33.89.19,1.12.31,1.56.22,1.52-.3,1.63-2.18,2.68-2.34,1.15-.18,1.49,2.01,3.68,3.24,1.13.63,2.72.99,4.15.83V0Z"/>
        </g>
        <g>
          <ellipse class="cls-3" cx="1490.59" cy="76.82" rx="16.57" ry="1.51"/>
          <path class="cls-6" d="M1493.04,77.04c-.45-5.62-.89-11.23-1.34-16.85,3.57-4.84,7.14-9.67,10.71-14.51l-1.79-1.34-9.93,12.95-.22-11.16-1.56-.11-.11,7.48-4.69-8.04c-.89.07-1.79.15-2.68.22,2.34,4.05,4.69,8.11,7.03,12.16-.07,6.4-.15,12.8-.22,19.2.54.13,1.2.25,1.95.28,1.15.05,2.13-.1,2.85-.28Z"/>
          <g>
            <path class="cls-2" d="M1457.78,35.47c0,3.91,2.6,7.09,5.8,7.09,1.8,0,3.41-1,4.48-2.57.25,1.33.91,2.77,1.95,4.08,2.37,3,5.84,4.2,7.75,2.69.4-.32.7-.72.9-1.2,1,.92,2.31,1.47,3.73,1.47,1.72,0,3.26-.81,4.32-2.09.13.84.48,1.54,1.08,2.01,1.91,1.51,5.57.07,8.17-3.21.01-.02.03-.03.04-.05.5.14,1.05.21,1.63.21.42,0,.83-.04,1.22-.12.98,1.59,2.97,2.68,5.25,2.68,1.81,0,3.43-.68,4.51-1.75.59.05,1.19.08,1.79.08,7.37,0,13.34-3.9,13.34-8.71,0-3.44-3.06-6.42-7.51-7.83.07-.03.13-.07.2-.1-.36.11-.68.23-.95.35-1.95.82-2.21,1.6-3.79,1.79,0,0-.13.01-.26.02-.67.03-1.95-.32-2.42-.36-.26-.02-.48.05-.67.18-.77.5-1.21,1.9-2.68,2.5-1.29.53-1.59-.3-3.68-.11-2.77.25-3.44,1.81-5.13,1.34-1.27-.36-.96-1.26-2.46-1.9-2.12-.91-3.93.41-4.91-.67-.59-.64-.23-1.42-.78-1.67-.86-.4-1.99,1.38-3.12,1-.59-.19-.45-.73-1.12-1.34-1.39-1.28-3.19-.07-4.24-1.12-1.02-1.02-.04-2.91-1-3.46-.72-.41-1.57.49-2.34,0-.72-.45-.35-1.46-.89-1.79-1.01-.6-2.77,2.68-5.25,2.68s-4.13-3.31-5.36-2.68c-.67.34-.49,1.48-1.23,1.67-.75.19-1.61-.82-1.67-.89-.8-.97-.44-1.82-1.12-2.46-.23-.21-.6-.43-1.27-.48-.05.36-.07.72-.07,1.09,0,.45.04.89.11,1.33h0c-.63.73-1,1.65-1,2.64,0,1.35.7,2.56,1.79,3.36-1.86,1.18-3.13,3.55-3.13,6.29Z"/>
            <path class="cls-1" d="M1460.08,20.76c.67.04,1.04.27,1.27.48.68.64.31,1.49,1.12,2.46.06.07.92,1.09,1.67.89.73-.19.56-1.33,1.23-1.67,1.22-.63,2.87,2.68,5.36,2.68s4.23-3.28,5.25-2.68c.54.32.17,1.33.89,1.79.77.49,1.62-.41,2.34,0,.96.55-.02,2.44,1,3.46,1.05,1.04,2.85-.16,4.24,1.12.66.61.53,1.15,1.12,1.34,1.13.37,2.26-1.4,3.12-1,.55.26.2,1.03.78,1.67.98,1.08,2.79-.24,4.91.67,1.49.64,1.19,1.54,2.46,1.9,1.69.48,2.37-1.09,5.13-1.34,2.1-.19,2.39.65,3.68.11,1.46-.6,1.9-2,2.68-2.5-1.6-2.5-2.33-2.99-2.68-2.85-.24.09-.32.5-.78.67-.48.18-.98-.05-1.12-.11-1.42-.65-1.05-2.69-2.23-3.12-.78-.29-1.72.33-1.9.45-.96.63-1.1,1.6-1.56,1.56-.49-.04-.5-1.15-1-1.23-.66-.11-.95,1.76-2.46,2.34-.05.02-.98.37-1.9,0-1.37-.55-1.11-2.03-2.23-3.01-1.89-1.65-4.9.56-6.25-.89-1.19-1.29.07-4.21-.67-4.46-.4-.14-.74.73-2.01,1-.76.16-1.43.03-1.56,0-.72-.15-.83-.41-1.23-.45-.92-.09-1.41,1.15-2.34,1.9-1.65,1.31-4.57,1-6.36,0-2.19-1.23-2.53-3.42-3.68-3.24-1.05.17-1.16,2.05-2.68,2.34-.45.09-.67-.03-1.56-.22-.52-.11-1.19-.24-2-.33-.02.1-.03.2-.05.3Z"/>
            <path class="cls-4" d="M1460.13,20.46c.81.09,1.48.22,2,.33.89.19,1.12.31,1.56.22,1.52-.3,1.63-2.18,2.68-2.34,1.15-.18,1.49,2.01,3.68,3.24,1.79,1,4.72,1.31,6.36,0,.94-.75,1.42-1.99,2.34-1.9.4.04.51.29,1.23.45.13.03.81.16,1.56,0,1.27-.28,1.61-1.14,2.01-1,.74.25-.52,3.18.67,4.46,1.35,1.45,4.36-.76,6.25.89,1.12.98.86,2.47,2.23,3.01.92.37,1.84.02,1.9,0,1.5-.58,1.79-2.45,2.46-2.34.5.08.51,1.18,1,1.23.47.04.6-.93,1.56-1.56.18-.12,1.11-.73,1.9-.45,1.18.43.81,2.48,2.23,3.12.14.06.63.29,1.12.11.47-.17.54-.58.78-.67.35-.13,1.07.36,2.68,2.85.2-.13.41-.19.67-.18.47.03,1.75.39,2.42.36.13,0,.26-.02.26-.02,1.58-.19,1.84-.96,3.79-1.79.27-.11.58-.23.95-.35h0c2.03-1.11,3.41-3.26,3.41-5.74,0-3.32-2.48-6.07-5.7-6.48.29-.72.45-1.51.45-2.34,0-3.48-2.82-6.31-6.31-6.31-.92,0-1.79.2-2.57.55,0-.09,0-.18,0-.27,0-3.64-2.95-6.58-6.58-6.58-2.25,0-4.23,1.12-5.42,2.84-2.55-1.86-6.03-3.01-9.87-3.01-7.8,0-14.12,4.72-14.12,10.55,0,.92.16,1.82.46,2.67-.66-.18-1.36-.27-2.07-.27-3.99,0-7.31,2.9-7.97,6.7Z"/>
          </g>
        </g>
        <g>
          <ellipse class="cls-3" cx="1309.73" cy="47.88" rx="9.51" ry=".86"/>
          <path class="cls-6" d="M1311.14,48.01c-.26-3.22-.51-6.45-.77-9.67,2.05-2.78,4.1-5.55,6.15-8.33l-1.03-.77-5.7,7.43-.13-6.41-.9-.06-.06,4.29-2.69-4.61c-.51.04-1.03.09-1.54.13,1.35,2.33,2.69,4.66,4.04,6.98-.04,3.67-.09,7.35-.13,11.02.31.08.69.14,1.12.16.66.03,1.22-.06,1.63-.16Z"/>
          <g>
            <path class="cls-2" d="M1290.89,24.14c0,2.25,1.49,4.07,3.33,4.07,1.03,0,1.96-.58,2.57-1.48.14.76.52,1.59,1.12,2.34,1.36,1.72,3.36,2.41,4.45,1.54.23-.18.4-.42.52-.69.58.53,1.32.84,2.14.84.99,0,1.87-.46,2.48-1.2.07.48.28.88.62,1.15,1.1.87,3.2.04,4.69-1.84,0,0,.01-.02.02-.03.29.08.6.12.94.12.24,0,.48-.02.7-.07.56.92,1.7,1.54,3.02,1.54,1.04,0,1.97-.39,2.59-1.01.34.03.68.05,1.03.05,4.23,0,7.66-2.24,7.66-5,0-1.98-1.76-3.69-4.31-4.5.04-.02.08-.04.11-.06-.21.07-.39.13-.54.2-1.12.47-1.27.92-2.18,1.03,0,0-.07,0-.15.01-.38.02-1.12-.19-1.39-.2-.15-.01-.27.03-.39.1-.44.29-.7,1.09-1.54,1.44-.74.31-.91-.17-2.11-.06-1.59.14-1.98,1.04-2.95.77-.73-.21-.55-.72-1.41-1.09-1.22-.52-2.25.23-2.82-.38-.34-.37-.13-.81-.45-.96-.5-.23-1.14.79-1.79.58-.34-.11-.26-.42-.64-.77-.8-.73-1.83-.04-2.43-.64-.59-.59-.02-1.67-.58-1.99-.42-.24-.9.28-1.35,0-.41-.26-.2-.84-.51-1.03-.58-.35-1.59,1.54-3.01,1.54s-2.37-1.9-3.08-1.54c-.38.2-.28.85-.7.96-.43.11-.93-.47-.96-.51-.46-.56-.25-1.04-.64-1.41-.13-.12-.34-.25-.73-.27-.03.21-.04.41-.04.63,0,.26.02.51.06.76h0c-.36.42-.58.95-.58,1.51,0,.78.4,1.47,1.03,1.93-1.07.68-1.8,2.04-1.8,3.61Z"/>
            <path class="cls-1" d="M1292.22,15.7c.38.03.6.15.73.27.39.37.18.85.64,1.41.03.04.53.62.96.51.42-.11.32-.76.7-.96.7-.36,1.65,1.54,3.08,1.54s2.43-1.88,3.01-1.54c.31.18.1.76.51,1.03.44.28.93-.24,1.35,0,.55.31-.01,1.4.58,1.99.6.6,1.64-.09,2.43.64.38.35.3.66.64.77.65.22,1.3-.81,1.79-.58.32.15.11.59.45.96.57.62,1.6-.14,2.82.38.86.37.68.88,1.41,1.09.97.27,1.36-.62,2.95-.77,1.2-.11,1.37.37,2.11.06.84-.35,1.09-1.15,1.54-1.44-.92-1.43-1.34-1.72-1.54-1.64-.14.05-.18.29-.45.38-.28.1-.56-.03-.64-.06-.81-.37-.6-1.55-1.28-1.79-.45-.16-.99.19-1.09.26-.55.36-.63.92-.9.9-.28-.02-.29-.66-.58-.7-.38-.06-.55,1.01-1.41,1.35-.03.01-.56.21-1.09,0-.79-.31-.64-1.17-1.28-1.73-1.08-.95-2.81.32-3.59-.51-.69-.74.04-2.42-.38-2.56-.23-.08-.42.42-1.15.58-.43.09-.82.02-.9,0-.41-.09-.47-.23-.7-.26-.53-.05-.81.66-1.35,1.09-.95.75-2.63.57-3.65,0-1.26-.7-1.45-1.96-2.11-1.86-.6.09-.67,1.17-1.54,1.35-.26.05-.39-.02-.9-.13-.3-.07-.68-.14-1.15-.19-.01.06-.02.11-.03.17Z"/>
            <path class="cls-4" d="M1292.24,15.53c.46.05.85.12,1.15.19.51.11.64.18.9.13.87-.17.94-1.25,1.54-1.35.66-.1.85,1.15,2.11,1.86,1.03.57,2.71.75,3.65,0,.54-.43.82-1.14,1.35-1.09.23.02.29.17.7.26.08.02.46.09.9,0,.73-.16.92-.66,1.15-.58.43.15-.3,1.82.38,2.56.77.83,2.5-.43,3.59.51.65.56.49,1.42,1.28,1.73.53.21,1.06.01,1.09,0,.86-.34,1.03-1.41,1.41-1.35.29.05.29.68.58.7.27.02.35-.54.9-.9.1-.07.64-.42,1.09-.26.68.25.47,1.42,1.28,1.79.08.04.36.17.64.06.27-.1.31-.33.45-.38.2-.08.61.21,1.54,1.64.11-.07.24-.11.39-.1.27.02,1,.22,1.39.2.08,0,.15-.01.15-.01.91-.11,1.06-.55,2.18-1.03.15-.07.34-.13.54-.2h0c1.16-.64,1.95-1.87,1.95-3.29,0-1.91-1.43-3.48-3.27-3.72.17-.42.26-.87.26-1.34,0-2-1.62-3.62-3.62-3.62-.53,0-1.03.11-1.48.31,0-.05,0-.1,0-.15,0-2.09-1.69-3.78-3.78-3.78-1.29,0-2.43.65-3.11,1.63-1.46-1.07-3.46-1.73-5.67-1.73-4.48,0-8.1,2.71-8.1,6.05,0,.53.09,1.04.26,1.53-.38-.1-.78-.15-1.19-.15-2.29,0-4.2,1.66-4.58,3.85Z"/>
          </g>
        </g>
        <g>
          <ellipse class="cls-3" cx="1171.64" cy="38.74" rx="6.22" ry=".57"/>
          <path class="cls-6" d="M1172.56,38.83c-.17-2.11-.33-4.21-.5-6.32,1.34-1.81,2.68-3.63,4.02-5.44l-.67-.5-3.73,4.86-.08-4.19-.59-.04-.04,2.8-1.76-3.01c-.33.03-.67.06-1,.08.88,1.52,1.76,3.04,2.64,4.56-.03,2.4-.06,4.8-.08,7.2.2.05.45.09.73.1.43.02.8-.04,1.07-.1Z"/>
          <g>
            <path class="cls-2" d="M1159.33,23.23c0,1.47.97,2.66,2.18,2.66.68,0,1.28-.38,1.68-.97.09.5.34,1.04.73,1.53.89,1.12,2.19,1.57,2.91,1.01.15-.12.26-.27.34-.45.38.34.87.55,1.4.55.65,0,1.22-.3,1.62-.78.05.32.18.58.4.75.72.57,2.09.03,3.06-1.21,0,0,0-.01.01-.02.19.05.4.08.61.08.16,0,.31-.02.46-.04.37.6,1.11,1.01,1.97,1.01.68,0,1.29-.26,1.69-.66.22.02.45.03.67.03,2.76,0,5-1.46,5-3.27,0-1.29-1.15-2.41-2.82-2.94.03-.01.05-.03.07-.04-.14.04-.25.09-.36.13-.73.31-.83.6-1.42.67,0,0-.05,0-.1,0-.25.01-.73-.12-.91-.13-.1,0-.18.02-.25.07-.29.19-.46.71-1,.94-.49.2-.59-.11-1.38-.04-1.04.09-1.29.68-1.93.5-.48-.13-.36-.47-.92-.71-.8-.34-1.47.15-1.84-.25-.22-.24-.09-.53-.29-.63-.32-.15-.75.52-1.17.38-.22-.07-.17-.27-.42-.5-.52-.48-1.2-.03-1.59-.42-.38-.38-.02-1.09-.38-1.3-.27-.15-.59.18-.88,0-.27-.17-.13-.55-.33-.67-.38-.23-1.04,1-1.97,1s-1.55-1.24-2.01-1c-.25.13-.19.56-.46.63-.28.07-.61-.31-.63-.33-.3-.36-.16-.68-.42-.92-.08-.08-.23-.16-.47-.18-.02.13-.03.27-.03.41,0,.17.01.34.04.5h0c-.24.28-.38.62-.38.99,0,.51.26.96.67,1.26-.7.44-1.17,1.33-1.17,2.36Z"/>
            <path class="cls-1" d="M1160.2,17.72c.25.02.39.1.47.18.25.24.12.56.42.92.02.03.35.41.63.33.28-.07.21-.5.46-.63.46-.24,1.08,1,2.01,1s1.59-1.23,1.97-1c.2.12.07.5.33.67.29.18.61-.15.88,0,.36.21,0,.91.38,1.3.39.39,1.07-.06,1.59.42.25.23.2.43.42.5.42.14.85-.53,1.17-.38.21.1.07.39.29.63.37.4,1.05-.09,1.84.25.56.24.45.58.92.71.63.18.89-.41,1.93-.5.79-.07.9.24,1.38.04.55-.23.71-.75,1-.94-.6-.94-.87-1.12-1-1.07-.09.04-.12.19-.29.25-.18.07-.37-.02-.42-.04-.53-.24-.39-1.01-.84-1.17-.29-.11-.64.12-.71.17-.36.24-.41.6-.59.59-.18-.02-.19-.43-.38-.46-.25-.04-.36.66-.92.88-.02,0-.37.14-.71,0-.51-.2-.42-.76-.84-1.13-.71-.62-1.84.21-2.34-.33-.45-.48.03-1.58-.25-1.67-.15-.05-.28.27-.75.38-.28.06-.54.01-.59,0-.27-.06-.31-.15-.46-.17-.35-.03-.53.43-.88.71-.62.49-1.72.37-2.39,0-.82-.46-.95-1.28-1.38-1.21-.39.06-.44.77-1,.88-.17.03-.25-.01-.59-.08-.2-.04-.45-.09-.75-.12,0,.04-.01.07-.02.11Z"/>
            <path class="cls-4" d="M1160.21,17.6c.3.03.56.08.75.12.33.07.42.12.59.08.57-.11.61-.82,1-.88.43-.07.56.75,1.38,1.21.67.37,1.77.49,2.39,0,.35-.28.53-.75.88-.71.15.02.19.11.46.17.05.01.3.06.59,0,.48-.1.6-.43.75-.38.28.1-.2,1.19.25,1.67.51.55,1.64-.28,2.34.33.42.37.32.93.84,1.13.34.14.69,0,.71,0,.56-.22.67-.92.92-.88.19.03.19.44.38.46.17.02.23-.35.59-.59.07-.04.42-.28.71-.17.44.16.31.93.84,1.17.05.02.24.11.42.04.17-.06.2-.22.29-.25.13-.05.4.13,1,1.07.07-.05.15-.07.25-.07.18.01.66.15.91.13.05,0,.1,0,.1,0,.59-.07.69-.36,1.42-.67.1-.04.22-.09.36-.13h0c.76-.42,1.28-1.22,1.28-2.15,0-1.25-.93-2.28-2.14-2.43.11-.27.17-.57.17-.88,0-1.31-1.06-2.37-2.37-2.37-.34,0-.67.07-.96.21,0-.03,0-.07,0-.1,0-1.36-1.11-2.47-2.47-2.47-.84,0-1.59.42-2.03,1.07-.95-.7-2.26-1.13-3.7-1.13-2.92,0-5.3,1.77-5.3,3.96,0,.35.06.68.17,1-.25-.07-.51-.1-.78-.1-1.5,0-2.74,1.09-2.99,2.51Z"/>
          </g>
        </g>
      </g>
      <g>
        <path class="cls-5" d="M1475.15,198.06c19.81-.06,39.61-.13,59.42-.19,2.5,0,4.99-.01,7.49-.02.2-.05.4-.11.58-.17,1.12-.37,1.81-.87,1.81-1.43,0-.93-1.9-1.71-4.5-1.95-.71-.67-1.37-1.12-1.99-1.43,0,0,0,0,0,0h0c-.54-.48-1.25-.78-2.04-.78-.55,0-1.07.15-1.51.4h0c-.87.26-1.65.7-3.39.67-3.1-.05-3.64-1.5-6.4-1.28-2.42.19-2.36,1.33-4.48,1.28-2.67-.06-3.46-1.89-5.76-1.49-1.59.27-1.55,1.2-2.99,1.28-2.17.12-2.78-1.97-4.9-1.92-1.5.04-1.62,1.09-3.63,1.71-1.87.58-2.49-.12-5.33-.21-4.1-.13-4.23,1.28-7.46.85-2.78-.37-3.58-1.52-5.12-.85-1.47.64-1.63,2.08-3.2,2.35-1.11.19-1.53-.46-2.56-.43-.99.03-2.39.67-4.05,3.63Z"/>
        <path class="cls-5" d="M1874.2,47.64c5.49-.02,10.98-.03,16.47-.05.69,0,1.38,0,2.08,0,.06-.01.11-.03.16-.05.31-.1.5-.24.5-.4,0-.26-.53-.47-1.25-.54-.2-.18-.38-.31-.55-.4,0,0,0,0,0,0h0c-.15-.13-.35-.22-.57-.22-.15,0-.3.04-.42.11h0c-.24.07-.46.19-.94.19-.86-.01-1.01-.42-1.77-.35-.67.05-.65.37-1.24.35-.74-.02-.96-.52-1.6-.41-.44.08-.43.33-.83.35-.6.03-.77-.55-1.36-.53-.42.01-.45.3-1,.47-.52.16-.69-.03-1.48-.06-1.14-.04-1.17.35-2.07.24-.77-.1-.99-.42-1.42-.24-.41.18-.45.58-.89.65-.31.05-.42-.13-.71-.12-.27,0-.66.19-1.12,1Z"/>
        <path class="cls-5" d="M1487.65,85.61c7.15-.02,14.3-.05,21.45-.07.9,0,1.8,0,2.7,0,.07-.02.14-.04.21-.06.4-.13.65-.32.65-.52,0-.33-.69-.62-1.62-.7-.25-.24-.49-.4-.72-.52,0,0,0,0,0,0h0c-.19-.17-.45-.28-.74-.28-.2,0-.39.05-.55.14h0c-.31.09-.6.25-1.22.24-1.12-.02-1.31-.54-2.31-.46-.88.07-.85.48-1.62.46-.96-.02-1.25-.68-2.08-.54-.57.1-.56.43-1.08.46-.78.04-1-.71-1.77-.69-.54.01-.58.39-1.31.62-.68.21-.9-.04-1.92-.08-1.48-.05-1.53.46-2.69.31-1-.13-1.29-.55-1.85-.31-.53.23-.59.75-1.15.85-.4.07-.55-.17-.92-.15-.36.01-.86.24-1.46,1.31Z"/>
        <path class="cls-5" d="M1436.16,133.2c8.25-.03,16.5-.05,24.76-.08,1.04,0,2.08,0,3.12,0,.09-.02.17-.05.24-.07.47-.15.75-.36.75-.6,0-.39-.79-.71-1.87-.81-.29-.28-.57-.47-.83-.59,0,0,0,0,0,0h0c-.22-.2-.52-.33-.85-.33-.23,0-.45.06-.63.17h0c-.36.11-.69.29-1.41.28-1.29-.02-1.51-.62-2.67-.53-1.01.08-.98.55-1.87.53-1.11-.03-1.44-.79-2.4-.62-.66.11-.65.5-1.24.53-.9.05-1.16-.82-2.04-.8-.62.02-.67.45-1.51.71-.78.24-1.04-.05-2.22-.09-1.71-.05-1.76.53-3.11.36-1.16-.15-1.49-.64-2.13-.36-.61.27-.68.87-1.33.98-.46.08-.64-.19-1.07-.18-.41.01-1,.28-1.69,1.51Z"/>
        <path class="cls-5" d="M1661.08,169.46c14.57-.05,29.13-.09,43.7-.14,1.84,0,3.67-.01,5.51-.02.15-.04.29-.08.43-.12.82-.27,1.33-.64,1.33-1.05,0-.68-1.4-1.26-3.31-1.43-.52-.49-1.01-.82-1.46-1.05,0,0,0,0,0,0h0c-.39-.36-.92-.57-1.5-.57-.4,0-.79.11-1.11.29h0c-.64.19-1.22.51-2.49.49-2.28-.04-2.67-1.1-4.7-.94-1.78.14-1.73.98-3.29.94-1.96-.05-2.54-1.39-4.23-1.1-1.17.2-1.14.88-2.2.94-1.59.09-2.04-1.45-3.61-1.41-1.1.03-1.19.8-2.67,1.25-1.38.42-1.83-.09-3.92-.16-3.02-.1-3.11.94-5.49.63-2.05-.27-2.63-1.12-3.76-.63-1.08.47-1.2,1.53-2.35,1.72-.82.14-1.12-.34-1.88-.31-.72.02-1.76.5-2.98,2.67Z"/>
        <path class="cls-5" d="M1373.47,183.78c7.23-.02,14.45-.05,21.68-.07.91,0,1.82,0,2.73,0,.07-.02.15-.04.21-.06.41-.13.66-.32.66-.52,0-.34-.69-.62-1.64-.71-.26-.24-.5-.41-.72-.52,0,0,0,0,0,0h0c-.2-.18-.46-.28-.75-.28-.2,0-.39.05-.55.14h0c-.32.1-.6.26-1.24.24-1.13-.02-1.33-.55-2.33-.47-.88.07-.86.49-1.63.47-.97-.02-1.26-.69-2.1-.54-.58.1-.57.44-1.09.47-.79.04-1.01-.72-1.79-.7-.55.01-.59.4-1.32.62-.68.21-.91-.05-1.94-.08-1.5-.05-1.54.47-2.72.31-1.02-.13-1.31-.56-1.87-.31-.53.23-.6.76-1.17.86-.41.07-.56-.17-.93-.16-.36.01-.87.25-1.48,1.32Z"/>
        <path class="cls-5" d="M1294.34,115.59c5.02-.02,10.05-.03,15.07-.05.63,0,1.27,0,1.9,0,.05-.01.1-.03.15-.04.28-.09.46-.22.46-.36,0-.24-.48-.43-1.14-.49-.18-.17-.35-.28-.5-.36,0,0,0,0,0,0h0c-.14-.12-.32-.2-.52-.2-.14,0-.27.04-.38.1h0c-.22.07-.42.18-.86.17-.79-.01-.92-.38-1.62-.32-.61.05-.6.34-1.14.32-.68-.02-.88-.48-1.46-.38-.4.07-.39.3-.76.32-.55.03-.71-.5-1.24-.49-.38,0-.41.28-.92.43-.48.15-.63-.03-1.35-.05-1.04-.03-1.07.32-1.89.22-.71-.09-.91-.39-1.3-.22-.37.16-.41.53-.81.59-.28.05-.39-.12-.65-.11-.25,0-.61.17-1.03.92Z"/>
        <path class="cls-5" d="M1147.77,45.3c2.54,0,5.08-.02,7.62-.02.32,0,.64,0,.96,0,.03,0,.05-.01.07-.02.14-.05.23-.11.23-.18,0-.12-.24-.22-.58-.25-.09-.09-.18-.14-.25-.18,0,0,0,0,0,0h0c-.07-.06-.16-.1-.26-.1-.07,0-.14.02-.19.05h0c-.11.03-.21.09-.43.09-.4,0-.47-.19-.82-.16-.31.02-.3.17-.57.16-.34,0-.44-.24-.74-.19-.2.03-.2.15-.38.16-.28.02-.36-.25-.63-.25-.19,0-.21.14-.47.22-.24.07-.32-.02-.68-.03-.53-.02-.54.16-.96.11-.36-.05-.46-.2-.66-.11-.19.08-.21.27-.41.3-.14.02-.2-.06-.33-.05-.13,0-.31.09-.52.47Z"/>
        <path class="cls-5" d="M1082.43,53.71c3.38-.01,6.76-.02,10.14-.03.43,0,.85,0,1.28,0,.03,0,.07-.02.1-.03.19-.06.31-.15.31-.24,0-.16-.32-.29-.77-.33-.12-.11-.23-.19-.34-.24,0,0,0,0,0,0h0c-.09-.08-.21-.13-.35-.13-.09,0-.18.02-.26.07h0c-.15.04-.28.12-.58.11-.53,0-.62-.26-1.09-.22-.41.03-.4.23-.76.22-.46-.01-.59-.32-.98-.25-.27.05-.27.2-.51.22-.37.02-.47-.34-.84-.33-.26,0-.28.19-.62.29-.32.1-.42-.02-.91-.04-.7-.02-.72.22-1.27.15-.48-.06-.61-.26-.87-.15-.25.11-.28.36-.55.4-.19.03-.26-.08-.44-.07-.17,0-.41.12-.69.62Z"/>
        <path class="cls-5" d="M1646.27,65.85c7.23-.02,14.45-.05,21.68-.07.91,0,1.82,0,2.73,0,.07-.02.15-.04.21-.06.41-.13.66-.32.66-.52,0-.34-.69-.62-1.64-.71-.26-.24-.5-.41-.72-.52,0,0,0,0,0,0h0c-.2-.18-.46-.28-.75-.28-.2,0-.39.05-.55.14h0c-.32.1-.6.26-1.24.24-1.13-.02-1.33-.55-2.33-.47-.88.07-.86.49-1.63.47-.97-.02-1.26-.69-2.1-.54-.58.1-.57.44-1.09.47-.79.04-1.01-.72-1.79-.7-.55.01-.59.4-1.32.62-.68.21-.91-.05-1.94-.08-1.5-.05-1.54.47-2.72.31-1.02-.13-1.31-.56-1.87-.31-.53.23-.6.76-1.17.86-.41.07-.56-.17-.93-.16-.36.01-.87.25-1.48,1.32Z"/>
        <path class="cls-5" d="M1684.67,266.22c33.05-.1,66.08-.21,99.13-.31,4.17-.01,8.33-.02,12.49-.04.34-.09.67-.18.97-.28,1.87-.61,3.02-1.46,3.02-2.39,0-1.55-3.17-2.85-7.5-3.25-1.18-1.11-2.28-1.87-3.31-2.38,0,0,0,0,0,0h0c-.89-.81-2.09-1.3-3.41-1.3-.92,0-1.78.24-2.52.66h0c-1.45.44-2.76,1.17-5.66,1.12-5.17-.09-6.07-2.5-10.67-2.13-4.04.32-3.93,2.22-7.47,2.13-4.45-.11-5.77-3.14-9.61-2.49-2.65.45-2.59,2-4.98,2.13-3.61.2-4.64-3.29-8.18-3.2-2.5.06-2.7,1.82-6.05,2.85-3.13.96-4.15-.21-8.89-.36-6.84-.22-7.05,2.13-12.45,1.42-4.64-.61-5.97-2.54-8.54-1.42-2.44,1.07-2.73,3.48-5.34,3.91-1.86.31-2.55-.76-4.27-.71-1.64.05-3.98,1.12-6.76,6.05Z"/>
      </g>
    </g>
  </g>
</svg>